  0
SECTION
  2
HEADER
  9
$ACADVER
  1
AC1027
  9
$ACADMAINTVER
 70
   105
  9
$DWGCODEPAGE
  3
ANSI_1252
  9
$LASTSAVEDBY
  1
Ryzen5
  9
$REQUIREDVERSIONS
160
                 0
  9
$INSBASE
 10
0.0
 20
0.0
 30
0.0
  9
$EXTMIN
 10
-142.7021274463983
 20
-89.99999999999999
 30
0.0
  9
$EXTMAX
 10
133.1088437857962
 20
20.00000000000004
 30
0.0
  9
$LIMMIN
 10
0.0
 20
0.0
  9
$LIMMAX
 10
12.0
 20
9.0
  9
$ORTHOMODE
 70
     0
  9
$REGENMODE
 70
     1
  9
$FILLMODE
 70
     1
  9
$QTEXTMODE
 70
     0
  9
$MIRRTEXT
 70
     0
  9
$LTSCALE
 40
1.0
  9
$ATTMODE
 70
     1
  9
$TEXTSIZE
 40
0.2
  9
$TRACEWID
 40
0.05
  9
$TEXTSTYLE
  7
Standard
  9
$CLAYER
  8
0
  9
$CELTYPE
  6
ByLayer
  9
$CECOLOR
 62
   256
  9
$CELTSCALE
 40
1.0
  9
$DISPSILH
 70
     0
  9
$DIMSCALE
 40
1.0
  9
$DIMASZ
 40
2.5
  9
$DIMEXO
 40
0.625
  9
$DIMDLI
 40
5.0
  9
$DIMRND
 40
0.0
  9
$DIMDLE
 40
0.0
  9
$DIMEXE
 40
1.25
  9
$DIMTP
 40
0.0
  9
$DIMTM
 40
0.0
  9
$DIMTXT
 40
2.5
  9
$DIMCEN
 40
0.09
  9
$DIMTSZ
 40
0.0
  9
$DIMTOL
 70
     0
  9
$DIMLIM
 70
     0
  9
$DIMTIH
 70
     1
  9
$DIMTOH
 70
     1
  9
$DIMSE1
 70
     0
  9
$DIMSE2
 70
     0
  9
$DIMTAD
 70
     0
  9
$DIMZIN
 70
     8
  9
$DIMBLK
  1

  9
$DIMASO
 70
     1
  9
$DIMSHO
 70
     1
  9
$DIMPOST
  1

  9
$DIMAPOST
  1

  9
$DIMALT
 70
     0
  9
$DIMALTD
 70
     2
  9
$DIMALTF
 40
25.4
  9
$DIMLFAC
 40
1.0
  9
$DIMTOFL
 70
     0
  9
$DIMTVP
 40
0.0
  9
$DIMTIX
 70
     0
  9
$DIMSOXD
 70
     0
  9
$DIMSAH
 70
     0
  9
$DIMBLK1
  1

  9
$DIMBLK2
  1

  9
$DIMSTYLE
  2
Standard
  9
$DIMCLRD
 70
    18
  9
$DIMCLRE
 70
    18
  9
$DIMCLRT
 70
    18
  9
$DIMTFAC
 40
1.0
  9
$DIMGAP
 40
0.625
  9
$DIMJUST
 70
     0
  9
$DIMSD1
 70
     0
  9
$DIMSD2
 70
     0
  9
$DIMTOLJ
 70
     1
  9
$DIMTZIN
 70
     0
  9
$DIMALTZ
 70
     0
  9
$DIMALTTZ
 70
     0
  9
$DIMUPT
 70
     0
  9
$DIMDEC
 70
     4
  9
$DIMTDEC
 70
     4
  9
$DIMALTU
 70
     2
  9
$DIMALTTD
 70
     2
  9
$DIMTXSTY
  7
Standard
  9
$DIMAUNIT
 70
     0
  9
$DIMADEC
 70
     0
  9
$DIMALTRND
 40
0.0
  9
$DIMAZIN
 70
     2
  9
$DIMDSEP
 70
    46
  9
$DIMATFIT
 70
     3
  9
$DIMFRAC
 70
     0
  9
$DIMLDRBLK
  1

  9
$DIMLUNIT
 70
     2
  9
$DIMLWD
 70
    -2
  9
$DIMLWE
 70
    -2
  9
$DIMTMOVE
 70
     0
  9
$DIMFXL
 40
1.0
  9
$DIMFXLON
 70
     0
  9
$DIMJOGANG
 40
0.7853981633974483
  9
$DIMTFILL
 70
     0
  9
$DIMTFILLCLR
 70
     0
  9
$DIMARCSYM
 70
     0
  9
$DIMLTYPE
  6

  9
$DIMLTEX1
  6

  9
$DIMLTEX2
  6

  9
$DIMTXTDIRECTION
 70
     0
  9
$LUNITS
 70
     2
  9
$LUPREC
 70
     4
  9
$SKETCHINC
 40
0.1
  9
$FILLETRAD
 40
0.5
  9
$AUNITS
 70
     0
  9
$AUPREC
 70
     0
  9
$MENU
  1
.
  9
$ELEVATION
 40
0.0
  9
$PELEVATION
 40
0.0
  9
$THICKNESS
 40
0.0
  9
$LIMCHECK
 70
     0
  9
$CHAMFERA
 40
0.0
  9
$CHAMFERB
 40
0.0
  9
$CHAMFERC
 40
0.0
  9
$CHAMFERD
 40
0.0
  9
$SKPOLY
 70
     0
  9
$TDCREATE
 40
2459429.876334896
  9
$TDUCREATE
 40
2459429.793001562
  9
$TDUPDATE
 40
2459429.876334896
  9
$TDUUPDATE
 40
2459429.793001562
  9
$TDINDWG
 40
0.0000000116
  9
$TDUSRTIMER
 40
0.0000000116
  9
$USRTIMER
 70
     1
  9
$ANGBASE
 50
0.0
  9
$ANGDIR
 70
     0
  9
$PDMODE
 70
     0
  9
$PDSIZE
 40
0.0
  9
$PLINEWID
 40
0.0
  9
$SPLFRAME
 70
     0
  9
$SPLINETYPE
 70
     6
  9
$SPLINESEGS
 70
     8
  9
$HANDSEED
  5
726C
  9
$SURFTAB1
 70
     6
  9
$SURFTAB2
 70
     6
  9
$SURFTYPE
 70
     6
  9
$SURFU
 70
     6
  9
$SURFV
 70
     6
  9
$UCSBASE
  2

  9
$UCSNAME
  2

  9
$UCSORG
 10
0.0
 20
0.0
 30
0.0
  9
$UCSXDIR
 10
1.0
 20
0.0
 30
0.0
  9
$UCSYDIR
 10
0.0
 20
1.0
 30
0.0
  9
$UCSORTHOREF
  2

  9
$UCSORTHOVIEW
 70
     0
  9
$UCSORGTOP
 10
0.0
 20
0.0
 30
0.0
  9
$UCSORGBOTTOM
 10
0.0
 20
0.0
 30
0.0
  9
$UCSORGLEFT
 10
0.0
 20
0.0
 30
0.0
  9
$UCSORGRIGHT
 10
0.0
 20
0.0
 30
0.0
  9
$UCSORGFRONT
 10
0.0
 20
0.0
 30
0.0
  9
$UCSORGBACK
 10
0.0
 20
0.0
 30
0.0
  9
$PUCSBASE
  2

  9
$PUCSNAME
  2

  9
$PUCSORG
 10
0.0
 20
0.0
 30
0.0
  9
$PUCSXDIR
 10
1.0
 20
0.0
 30
0.0
  9
$PUCSYDIR
 10
0.0
 20
1.0
 30
0.0
  9
$PUCSORTHOREF
  2

  9
$PUCSORTHOVIEW
 70
     0
  9
$PUCSORGTOP
 10
0.0
 20
0.0
 30
0.0
  9
$PUCSORGBOTTOM
 10
0.0
 20
0.0
 30
0.0
  9
$PUCSORGLEFT
 10
0.0
 20
0.0
 30
0.0
  9
$PUCSORGRIGHT
 10
0.0
 20
0.0
 30
0.0
  9
$PUCSORGFRONT
 10
0.0
 20
0.0
 30
0.0
  9
$PUCSORGBACK
 10
0.0
 20
0.0
 30
0.0
  9
$USERI1
 70
     0
  9
$USERI2
 70
     0
  9
$USERI3
 70
     0
  9
$USERI4
 70
     0
  9
$USERI5
 70
     0
  9
$USERR1
 40
0.0
  9
$USERR2
 40
0.0
  9
$USERR3
 40
0.0
  9
$USERR4
 40
0.0
  9
$USERR5
 40
0.0
  9
$WORLDVIEW
 70
     1
  9
$SHADEDGE
 70
     3
  9
$SHADEDIF
 70
    70
  9
$TILEMODE
 70
     1
  9
$MAXACTVP
 70
    64
  9
$PINSBASE
 10
0.0
 20
0.0
 30
0.0
  9
$PLIMCHECK
 70
     0
  9
$PEXTMIN
 10
0.0
 20
0.0
 30
0.0
  9
$PEXTMAX
 10
0.0
 20
0.0
 30
0.0
  9
$PLIMMIN
 10
-20.0
 20
-7.5
  9
$PLIMMAX
 10
277.0
 20
202.5
  9
$UNITMODE
 70
     0
  9
$VISRETAIN
 70
     1
  9
$PLINEGEN
 70
     0
  9
$PSLTSCALE
 70
     1
  9
$TREEDEPTH
 70
  3020
  9
$CMLSTYLE
  2
Standard
  9
$CMLJUST
 70
     0
  9
$CMLSCALE
 40
1.0
  9
$PROXYGRAPHICS
 70
     1
  9
$MEASUREMENT
 70
     1
  9
$CELWEIGHT
370
    -1
  9
$ENDCAPS
280
     0
  9
$JOINSTYLE
280
     0
  9
$LWDISPLAY
290
     0
  9
$INSUNITS
 70
     4
  9
$HYPERLINKBASE
  1

  9
$STYLESHEET
  1

  9
$XEDIT
290
     1
  9
$CEPSNTYPE
380
     0
  9
$PSTYLEMODE
290
     1
  9
$FINGERPRINTGUID
  2
{b04b2525-75cf-40b7-b322-091893304407}
  9
$VERSIONGUID
  2
{FAEB1C32-E019-11D5-929B-00C0DF256EC4}
  9
$EXTNAMES
290
     1
  9
$PSVPSCALE
 40
0.0
  9
$OLESTARTUP
290
     0
  9
$SORTENTS
280
   127
  9
$INDEXCTL
280
     0
  9
$HIDETEXT
280
     1
  9
$XCLIPFRAME
280
     2
  9
$HALOGAP
280
     0
  9
$OBSCOLOR
 70
   257
  9
$OBSLTYPE
280
     0
  9
$INTERSECTIONDISPLAY
280
     0
  9
$INTERSECTIONCOLOR
 70
   257
  9
$DIMASSOC
280
     2
  9
$PROJECTNAME
  1

  9
$CAMERADISPLAY
290
     0
  9
$LENSLENGTH
 40
50.0
  9
$CAMERAHEIGHT
 40
0.0
  9
$STEPSPERSEC
 40
2.0
  9
$STEPSIZE
 40
6.0
  9
$3DDWFPREC
 40
2.0
  9
$PSOLWIDTH
 40
0.25
  9
$PSOLHEIGHT
 40
4.0
  9
$LOFTANG1
 40
1.570796326794897
  9
$LOFTANG2
 40
1.570796326794897
  9
$LOFTMAG1
 40
0.0
  9
$LOFTMAG2
 40
0.0
  9
$LOFTPARAM
 70
     7
  9
$LOFTNORMALS
280
     1
  9
$LATITUDE
 40
37.795
  9
$LONGITUDE
 40
-122.394
  9
$NORTHDIRECTION
 40
0.0
  9
$TIMEZONE
 70
 -8000
  9
$LIGHTGLYPHDISPLAY
280
     1
  9
$TILEMODELIGHTSYNCH
280
     1
  9
$CMATERIAL
347
71CD
  9
$SOLIDHIST
280
     0
  9
$SHOWHIST
280
     1
  9
$DWFFRAME
280
     2
  9
$DGNFRAME
280
     2
  9
$REALWORLDSCALE
290
     1
  9
$INTERFERECOLOR
 62
   256
  9
$CSHADOW
280
     0
  9
$SHADOWPLANELOCATION
 40
0.0
  0
ENDSEC
  0
SECTION
  2
CLASSES
  0
CLASS
  1
ACDBDICTIONARYWDFLT
  2
AcDbDictionaryWithDefault
  3
ObjectDBX Classes
 90
        0
 91
        3
280
     0
281
     0
  0
CLASS
  1
VISUALSTYLE
  2
AcDbVisualStyle
  3
ObjectDBX Classes
 90
     4095
 91
        3
280
     0
281
     0
  0
CLASS
  1
MATERIAL
  2
AcDbMaterial
  3
ObjectDBX Classes
 90
     1153
 91
        3
280
     0
281
     0
  0
CLASS
  1
SCALE
  2
AcDbScale
  3
ObjectDBX Classes
 90
     1153
 91
        3
280
     0
281
     0
  0
CLASS
  1
TABLESTYLE
  2
AcDbTableStyle
  3
ObjectDBX Classes
 90
     4095
 91
        3
280
     0
281
     0
  0
CLASS
  1
MLEADERSTYLE
  2
AcDbMLeaderStyle
  3
ACDB_MLEADERSTYLE_CLASS
 90
     4095
 91
        3
280
     0
281
     0
  0
CLASS
  1
SUN
  2
AcDbSun
  3
SCENEOE
 90
     1153
 91
        3
280
     0
281
     0
  0
CLASS
  1
DICTIONARYVAR
  2
AcDbDictionaryVar
  3
ObjectDBX Classes
 90
        0
 91
        3
280
     0
281
     0
  0
CLASS
  1
CELLSTYLEMAP
  2
AcDbCellStyleMap
  3
ObjectDBX Classes
 90
     1152
 91
        3
280
     0
281
     0
  0
ENDSEC
  0
SECTION
  2
TABLES
  0
TABLE
  2
VPORT
  5
7192
330
0
100
AcDbSymbolTable
 70
     1
  0
VPORT
  5
71B2
330
7192
100
AcDbSymbolTableRecord
100
AcDbViewportTableRecord
  2
*Active
 70
     0
 10
0.0
 20
0.0
 11
1.0
 21
1.0
 12
-4.79664183030107
 22
-34.99999999999996
 13
0.0
 23
0.0
 14
0.5
 24
0.5
 15
0.5
 25
0.5
 16
0.0
 26
0.0
 36
1.0
 17
0.0
 27
0.0
 37
0.0
 40
147.2590750824934
 41
1.919747520288548
 42
50.0
 43
0.0
 44
0.0
 50
0.0
 51
0.0
 71
     0
 72
   100
 73
     1
 74
     3
 75
     0
 76
     0
 77
     0
 78
     0
281
     0
 65
     1
110
0.0
120
0.0
130
0.0
111
1.0
121
0.0
131
0.0
112
0.0
122
1.0
132
0.0
 79
     0
146
0.0
348
71B8
 60
     3
 61
     5
292
     1
282
     1
141
0.0
142
0.0
 63
   250
361
71E6
  0
ENDTAB
  0
TABLE
  2
LTYPE
  5
718F
330
0
100
AcDbSymbolTable
 70
    48
  0
LTYPE
  5
719D
330
718F
100
AcDbSymbolTableRecord
100
AcDbLinetypeTableRecord
  2
ByBlock
 70
     0
  3

 72
    65
 73
     0
 40
0.0
  0
LTYPE
  5
719E
330
718F
100
AcDbSymbolTableRecord
100
AcDbLinetypeTableRecord
  2
ByLayer
 70
     0
  3

 72
    65
 73
     0
 40
0.0
  0
LTYPE
  5
719F
330
718F
100
AcDbSymbolTableRecord
100
AcDbLinetypeTableRecord
  2
Continuous
 70
     0
  3
Solid line
 72
    65
 73
     0
 40
0.0
  0
LTYPE
  5
7221
330
718F
100
AcDbSymbolTableRecord
100
AcDbLinetypeTableRecord
  2
CENTERX2
 70
     0
  3
Center (2x) ________  __  ________  __  _____
 72
    65
 73
     4
 40
101.6
 49
63.5
 74
     0
 49
-12.7
 74
     0
 49
12.7
 74
     0
 49
-12.7
 74
     0
  0
LTYPE
  5
7222
330
718F
100
AcDbSymbolTableRecord
100
AcDbLinetypeTableRecord
  2
DASHDOT
 70
     0
  3
Dash dot __ . __ . __ . __ . __ . __ . __ . __
 72
    65
 73
     4
 40
25.4
 49
12.7
 74
     0
 49
-6.35
 74
     0
 49
0.0
 74
     0
 49
-6.35
 74
     0
  0
LTYPE
  5
7223
330
718F
100
AcDbSymbolTableRecord
100
AcDbLinetypeTableRecord
  2
DASHDOT2
 70
     0
  3
Dash dot (.5x) _._._._._._._._._._._._._._._.
 72
    65
 73
     4
 40
12.7
 49
6.35
 74
     0
 49
-3.175
 74
     0
 49
0.0
 74
     0
 49
-3.175
 74
     0
  0
LTYPE
  5
7224
330
718F
100
AcDbSymbolTableRecord
100
AcDbLinetypeTableRecord
  2
DASHDOTX2
 70
     0
  3
Dash dot (2x) ____  .  ____  .  ____  .  ___
 72
    65
 73
     4
 40
50.8
 49
25.4
 74
     0
 49
-12.7
 74
     0
 49
0.0
 74
     0
 49
-12.7
 74
     0
  0
LTYPE
  5
7225
330
718F
100
AcDbSymbolTableRecord
100
AcDbLinetypeTableRecord
  2
ACAD_ISO10W100
 70
     0
  3
ISO dash dot __ . __ . __ . __ . __ . __ . __ . 
 72
    65
 73
     4
 40
18.0
 49
12.0
 74
     0
 49
-3.0
 74
     0
 49
0.0
 74
     0
 49
-3.0
 74
     0
  0
LTYPE
  5
7226
330
718F
100
AcDbSymbolTableRecord
100
AcDbLinetypeTableRecord
  2
ACAD_ISO11W100
 70
     0
  3
ISO double-dash dot __ __ . __ __ . __ __ . __ _
 72
    65
 73
     6
 40
33.0
 49
12.0
 74
     0
 49
-3.0
 74
     0
 49
12.0
 74
     0
 49
-3.0
 74
     0
 49
0.0
 74
     0
 49
-3.0
 74
     0
  0
LTYPE
  5
7227
330
718F
100
AcDbSymbolTableRecord
100
AcDbLinetypeTableRecord
  2
ACAD_ISO12W100
 70
     0
  3
ISO dash double-dot __ . . __ . . __ . . __ . . 
 72
    65
 73
     6
 40
21.0
 49
12.0
 74
     0
 49
-3.0
 74
     0
 49
0.0
 74
     0
 49
-3.0
 74
     0
 49
0.0
 74
     0
 49
-3.0
 74
     0
  0
LTYPE
  5
7228
330
718F
100
AcDbSymbolTableRecord
100
AcDbLinetypeTableRecord
  2
ACAD_ISO13W100
 70
     0
  3
ISO double-dash double-dot __ __ . . __ __ . . _
 72
    65
 73
     8
 40
36.0
 49
12.0
 74
     0
 49
-3.0
 74
     0
 49
12.0
 74
     0
 49
-3.0
 74
     0
 49
0.0
 74
     0
 49
-3.0
 74
     0
 49
0.0
 74
     0
 49
-3.0
 74
     0
  0
LTYPE
  5
7229
330
718F
100
AcDbSymbolTableRecord
100
AcDbLinetypeTableRecord
  2
ACAD_ISO14W100
 70
     0
  3
ISO dash triple-dot __ . . . __ . . . __ . . . _
 72
    65
 73
     8
 40
24.0
 49
12.0
 74
     0
 49
-3.0
 74
     0
 49
0.0
 74
     0
 49
-3.0
 74
     0
 49
0.0
 74
     0
 49
-3.0
 74
     0
 49
0.0
 74
     0
 49
-3.0
 74
     0
  0
LTYPE
  5
722A
330
718F
100
AcDbSymbolTableRecord
100
AcDbLinetypeTableRecord
  2
ACAD_ISO15W100
 70
     0
  3
ISO double-dash triple-dot __ __ . . . __ __ . .
 72
    65
 73
    10
 40
39.0
 49
12.0
 74
     0
 49
-3.0
 74
     0
 49
12.0
 74
     0
 49
-3.0
 74
     0
 49
0.0
 74
     0
 49
-3.0
 74
     0
 49
0.0
 74
     0
 49
-3.0
 74
     0
 49
0.0
 74
     0
 49
-3.0
 74
     0
  0
LTYPE
  5
722D
330
718F
100
AcDbSymbolTableRecord
100
AcDbLinetypeTableRecord
  2
BATTING
 70
     0
  3
Batting SSSSSSSSSSSSSSSSSSSSSSSSSSSSSSSSSSSSSSSSSSSSSSS
 72
    65
 73
     4
 40
10.16254
 49
0.00254
 74
     0
 49
-2.54
 74
     2
 75
     0
340
722B
 46
2.54
 50
0.0
 44
-2.54
 45
0.0
  9
BAT
 49
-5.08
 74
     2
 75
     0
340
722C
 46
2.54
 50
180.0
 44
2.54
 45
0.0
  9
BAT
 49
-2.54
 74
     0
  0
LTYPE
  5
722E
330
718F
100
AcDbSymbolTableRecord
100
AcDbLinetypeTableRecord
  2
BORDER
 70
     0
  3
Border __ __ . __ __ . __ __ . __ __ . __ __ .
 72
    65
 73
     6
 40
44.45
 49
12.7
 74
     0
 49
-6.35
 74
     0
 49
12.7
 74
     0
 49
-6.35
 74
     0
 49
0.0
 74
     0
 49
-6.35
 74
     0
  0
LTYPE
  5
722F
330
718F
100
AcDbSymbolTableRecord
100
AcDbLinetypeTableRecord
  2
ACAD_ISO02W100
 70
     0
  3
ISO dash __ __ __ __ __ __ __ __ __ __ __ __ __
 72
    65
 73
     2
 40
15.0
 49
12.0
 74
     0
 49
-3.0
 74
     0
  0
LTYPE
  5
7230
330
718F
100
AcDbSymbolTableRecord
100
AcDbLinetypeTableRecord
  2
ACAD_ISO03W100
 70
     0
  3
ISO dash space __    __    __    __    __    __
 72
    65
 73
     2
 40
30.0
 49
12.0
 74
     0
 49
-18.0
 74
     0
  0
LTYPE
  5
7231
330
718F
100
AcDbSymbolTableRecord
100
AcDbLinetypeTableRecord
  2
ACAD_ISO04W100
 70
     0
  3
ISO long-dash dot ____ . ____ . ____ . ____ . _
 72
    65
 73
     4
 40
30.0
 49
24.0
 74
     0
 49
-3.0
 74
     0
 49
0.0
 74
     0
 49
-3.0
 74
     0
  0
LTYPE
  5
7232
330
718F
100
AcDbSymbolTableRecord
100
AcDbLinetypeTableRecord
  2
ACAD_ISO05W100
 70
     0
  3
ISO long-dash double-dot ____ .. ____ .. ____ . 
 72
    65
 73
     6
 40
33.0
 49
24.0
 74
     0
 49
-3.0
 74
     0
 49
0.0
 74
     0
 49
-3.0
 74
     0
 49
0.0
 74
     0
 49
-3.0
 74
     0
  0
LTYPE
  5
7233
330
718F
100
AcDbSymbolTableRecord
100
AcDbLinetypeTableRecord
  2
ACAD_ISO06W100
 70
     0
  3
ISO long-dash triple-dot ____ ... ____ ... ____
 72
    65
 73
     8
 40
36.0
 49
24.0
 74
     0
 49
-3.0
 74
     0
 49
0.0
 74
     0
 49
-3.0
 74
     0
 49
0.0
 74
     0
 49
-3.0
 74
     0
 49
0.0
 74
     0
 49
-3.0
 74
     0
  0
LTYPE
  5
7234
330
718F
100
AcDbSymbolTableRecord
100
AcDbLinetypeTableRecord
  2
ACAD_ISO07W100
 70
     0
  3
ISO dot . . . . . . . . . . . . . . . . . . . . 
 72
    65
 73
     2
 40
3.0
 49
0.0
 74
     0
 49
-3.0
 74
     0
  0
LTYPE
  5
7235
330
718F
100
AcDbSymbolTableRecord
100
AcDbLinetypeTableRecord
  2
ACAD_ISO08W100
 70
     0
  3
ISO long-dash short-dash ____ __ ____ __ ____ _
 72
    65
 73
     4
 40
36.0
 49
24.0
 74
     0
 49
-3.0
 74
     0
 49
6.0
 74
     0
 49
-3.0
 74
     0
  0
LTYPE
  5
7236
330
718F
100
AcDbSymbolTableRecord
100
AcDbLinetypeTableRecord
  2
ACAD_ISO09W100
 70
     0
  3
ISO long-dash double-short-dash ____ __ __ ____
 72
    65
 73
     6
 40
45.0
 49
24.0
 74
     0
 49
-3.0
 74
     0
 49
6.0
 74
     0
 49
-3.0
 74
     0
 49
6.0
 74
     0
 49
-3.0
 74
     0
  0
LTYPE
  5
7237
330
718F
100
AcDbSymbolTableRecord
100
AcDbLinetypeTableRecord
  2
HIDDENX2
 70
     0
  3
Hidden (2x) ____ ____ ____ ____ ____ ____ ____ 
 72
    65
 73
     2
 40
19.05
 49
12.7
 74
     0
 49
-6.35
 74
     0
  0
LTYPE
  5
7239
330
718F
100
AcDbSymbolTableRecord
100
AcDbLinetypeTableRecord
  2
HOT_WATER_SUPPLY
 70
     0
  3
Hot water supply ---- HW ---- HW ---- HW ----
 72
    65
 73
     3
 40
22.86
 49
12.7
 74
     0
 49
-5.08
 74
     2
 75
     0
340
7238
 46
2.54
 50
0.0
 44
-2.54
 45
-1.27
  9
HW
 49
-5.08
 74
     0
  0
LTYPE
  5
723A
330
718F
100
AcDbSymbolTableRecord
100
AcDbLinetypeTableRecord
  2
PHANTOM
 70
     0
  3
Phantom ______  __  __  ______  __  __  ______ 
 72
    65
 73
     6
 40
63.50000000000001
 49
31.75
 74
     0
 49
-6.35
 74
     0
 49
6.35
 74
     0
 49
-6.35
 74
     0
 49
6.35
 74
     0
 49
-6.35
 74
     0
  0
LTYPE
  5
723B
330
718F
100
AcDbSymbolTableRecord
100
AcDbLinetypeTableRecord
  2
PHANTOM2
 70
     0
  3
Phantom (.5x) ___ _ _ ___ _ _ ___ _ _ ___ _ _
 72
    65
 73
     6
 40
31.75
 49
15.875
 74
     0
 49
-3.175
 74
     0
 49
3.175
 74
     0
 49
-3.175
 74
     0
 49
3.175
 74
     0
 49
-3.175
 74
     0
  0
LTYPE
  5
723C
330
718F
100
AcDbSymbolTableRecord
100
AcDbLinetypeTableRecord
  2
PHANTOMX2
 70
     0
  3
Phantom (2x) ____________    ____    ____   _
 72
    65
 73
     6
 40
127.0
 49
63.5
 74
     0
 49
-12.7
 74
     0
 49
12.7
 74
     0
 49
-12.7
 74
     0
 49
12.7
 74
     0
 49
-12.7
 74
     0
  0
LTYPE
  5
723E
330
718F
100
AcDbSymbolTableRecord
100
AcDbLinetypeTableRecord
  2
TRACKS
 70
     0
  3
Tracks -|-|-|-|-|-|-|-|-|-|-|-|-|-|-|-|-|-|-|-|-|-|-|-|-
 72
    65
 73
     2
 40
7.62
 49
3.81
 74
     2
 75
     0
340
723D
 46
6.35
 50
0.0
 44
0.0
 45
0.0
  9
TRACK1
 49
3.81
 74
     0
  0
LTYPE
  5
7241
330
718F
100
AcDbSymbolTableRecord
100
AcDbLinetypeTableRecord
  2
ZIGZAG
 70
     0
  3
Zig zag /\/\/\/\/\/\/\/\/\/\/\/\/\/\/\/\/\/\/\/\/\/\/\/
 72
    65
 73
     4
 40
20.32254
 49
0.00254
 74
     0
 49
-5.08
 74
     2
 75
     0
340
723F
 46
5.08
 50
0.0
 44
-5.08
 45
0.0
  9
ZIG
 49
-10.16
 74
     2
 75
     0
340
7240
 46
5.08
 50
180.0
 44
5.08
 45
0.0
  9
ZIG
 49
-5.08
 74
     0
  0
LTYPE
  5
7242
330
718F
100
AcDbSymbolTableRecord
100
AcDbLinetypeTableRecord
  2
DOTX2
 70
     0
  3
Dot (2x) .  .  .  .  .  .  .  .  .  .  .  .  .  .
 72
    65
 73
     2
 40
12.7
 49
0.0
 74
     0
 49
-12.7
 74
     0
  0
LTYPE
  5
7244
330
718F
100
AcDbSymbolTableRecord
100
AcDbLinetypeTableRecord
  2
DRAINAGE
 70
     0
  3
Drainage ---->---->---->----
 72
    65
 73
     2
 40
10.16
 49
5.08
 74
     2
 75
     0
340
7243
 46
2.54
 50
180.0
 44
0.0
 45
0.0
  9
RIGHT_ARROW
 49
5.08
 74
     0
  0
LTYPE
  5
7246
330
718F
100
AcDbSymbolTableRecord
100
AcDbLinetypeTableRecord
  2
DRAINAGE2
 70
     0
  3
Drainage reversed----<----<----<----
 72
    65
 73
     2
 40
10.16
 49
5.08
 74
     2
 75
     0
340
7245
 46
2.54
 50
0.0
 44
0.0
 45
0.0
  9
RIGHT_ARROW
 49
5.08
 74
     0
  0
LTYPE
  5
7248
330
718F
100
AcDbSymbolTableRecord
100
AcDbLinetypeTableRecord
  2
FENCELINE1
 70
     0
  3
Fenceline circle ----0-----0----0-----0----0-----0--
 72
    65
 73
     4
 40
36.83
 49
6.35
 74
     0
 49
-2.54
 74
     2
 75
     0
340
7247
 46
2.54
 50
0.0
 44
-2.54
 45
0.0
  9
CIRC1
 49
-2.54
 74
     0
 49
25.4
 74
     0
  0
LTYPE
  5
724A
330
718F
100
AcDbSymbolTableRecord
100
AcDbLinetypeTableRecord
  2
FENCELINE2
 70
     0
  3
Fenceline square ----[]-----[]----[]-----[]----[]---
 72
    65
 73
     4
 40
36.83
 49
6.35
 74
     0
 49
-2.54
 74
     2
 75
     0
340
7249
 46
2.54
 50
0.0
 44
-2.54
 45
0.0
  9
BOX
 49
-2.54
 74
     0
 49
25.4
 74
     0
  0
LTYPE
  5
724C
330
718F
100
AcDbSymbolTableRecord
100
AcDbLinetypeTableRecord
  2
GAS_LINE
 70
     0
  3
Gas line ----GAS----GAS----GAS----GAS----GAS----GAS--
 72
    65
 73
     3
 40
24.13
 49
12.7
 74
     0
 49
-5.08
 74
     2
 75
     0
340
724B
 46
2.54
 50
0.0
 44
-2.54
 45
-1.27
  9
GAS
 49
-6.35
 74
     0
  0
LTYPE
  5
724D
330
718F
100
AcDbSymbolTableRecord
100
AcDbLinetypeTableRecord
  2
HIDDEN
 70
     0
  3
Hidden __ __ __ __ __ __ __ __ __ __ __ __ __ __
 72
    65
 73
     2
 40
9.524999999999999
 49
6.35
 74
     0
 49
-3.175
 74
     0
  0
LTYPE
  5
724E
330
718F
100
AcDbSymbolTableRecord
100
AcDbLinetypeTableRecord
  2
HIDDEN2
 70
     0
  3
Hidden (.5x) _ _ _ _ _ _ _ _ _ _ _ _ _ _ _ _ _ 
 72
    65
 73
     2
 40
4.762499999999999
 49
3.175
 74
     0
 49
-1.5875
 74
     0
  0
LTYPE
  5
724F
330
718F
100
AcDbSymbolTableRecord
100
AcDbLinetypeTableRecord
  2
DASHED
 70
     0
  3
Dashed __ __ __ __ __ __ __ __ __ __ __ __ __ _
 72
    65
 73
     2
 40
19.05
 49
12.7
 74
     0
 49
-6.35
 74
     0
  0
LTYPE
  5
7250
330
718F
100
AcDbSymbolTableRecord
100
AcDbLinetypeTableRecord
  2
DASHED2
 70
     0
  3
Dashed (.5x) _ _ _ _ _ _ _ _ _ _ _ _ _ _ _ _ _ 
 72
    65
 73
     2
 40
9.524999999999999
 49
6.35
 74
     0
 49
-3.175
 74
     0
  0
LTYPE
  5
7251
330
718F
100
AcDbSymbolTableRecord
100
AcDbLinetypeTableRecord
  2
DASHEDX2
 70
     0
  3
Dashed (2x) ____  ____  ____  ____  ____  ___
 72
    65
 73
     2
 40
38.09999999999999
 49
25.4
 74
     0
 49
-12.7
 74
     0
  0
LTYPE
  5
7252
330
718F
100
AcDbSymbolTableRecord
100
AcDbLinetypeTableRecord
  2
DIVIDE
 70
     0
  3
Divide ____ . . ____ . . ____ . . ____ . . ____
 72
    65
 73
     6
 40
31.75
 49
12.7
 74
     0
 49
-6.35
 74
     0
 49
0.0
 74
     0
 49
-6.35
 74
     0
 49
0.0
 74
     0
 49
-6.35
 74
     0
  0
LTYPE
  5
7253
330
718F
100
AcDbSymbolTableRecord
100
AcDbLinetypeTableRecord
  2
DIVIDE2
 70
     0
  3
Divide (.5x) __..__..__..__..__..__..__..__.._
 72
    65
 73
     6
 40
15.875
 49
6.35
 74
     0
 49
-3.175
 74
     0
 49
0.0
 74
     0
 49
-3.175
 74
     0
 49
0.0
 74
     0
 49
-3.175
 74
     0
  0
LTYPE
  5
7254
330
718F
100
AcDbSymbolTableRecord
100
AcDbLinetypeTableRecord
  2
DIVIDEX2
 70
     0
  3
Divide (2x) ________  .  .  ________  .  .  _
 72
    65
 73
     6
 40
63.5
 49
25.4
 74
     0
 49
-12.7
 74
     0
 49
0.0
 74
     0
 49
-12.7
 74
     0
 49
0.0
 74
     0
 49
-12.7
 74
     0
  0
LTYPE
  5
7255
330
718F
100
AcDbSymbolTableRecord
100
AcDbLinetypeTableRecord
  2
DOT
 70
     0
  3
Dot . . . . . . . . . . . . . . . . . . . . . . . .
 72
    65
 73
     2
 40
6.35
 49
0.0
 74
     0
 49
-6.35
 74
     0
  0
LTYPE
  5
7256
330
718F
100
AcDbSymbolTableRecord
100
AcDbLinetypeTableRecord
  2
DOT2
 70
     0
  3
Dot (.5x) ........................................
 72
    65
 73
     2
 40
3.175
 49
0.0
 74
     0
 49
-3.175
 74
     0
  0
LTYPE
  5
7257
330
718F
100
AcDbSymbolTableRecord
100
AcDbLinetypeTableRecord
  2
BORDER2
 70
     0
  3
Border (.5x) __.__.__.__.__.__.__.__.__.__.__.
 72
    65
 73
     6
 40
22.225
 49
6.35
 74
     0
 49
-3.175
 74
     0
 49
6.35
 74
     0
 49
-3.175
 74
     0
 49
0.0
 74
     0
 49
-3.175
 74
     0
  0
LTYPE
  5
7258
330
718F
100
AcDbSymbolTableRecord
100
AcDbLinetypeTableRecord
  2
BORDERX2
 70
     0
  3
Border (2x) ____  ____  .  ____  ____  .  ___
 72
    65
 73
     6
 40
88.89999999999999
 49
25.4
 74
     0
 49
-12.7
 74
     0
 49
25.4
 74
     0
 49
-12.7
 74
     0
 49
0.0
 74
     0
 49
-12.7
 74
     0
  0
LTYPE
  5
7259
330
718F
100
AcDbSymbolTableRecord
100
AcDbLinetypeTableRecord
  2
CENTER
 70
     0
  3
Center ____ _ ____ _ ____ _ ____ _ ____ _ ____
 72
    65
 73
     4
 40
50.8
 49
31.75
 74
     0
 49
-6.35
 74
     0
 49
6.35
 74
     0
 49
-6.35
 74
     0
  0
LTYPE
  5
725A
330
718F
100
AcDbSymbolTableRecord
100
AcDbLinetypeTableRecord
  2
CENTER2
 70
     0
  3
Center (.5x) ___ _ ___ _ ___ _ ___ _ ___ _ ___
 72
    65
 73
     4
 40
28.575
 49
19.05
 74
     0
 49
-3.175
 74
     0
 49
3.175
 74
     0
 49
-3.175
 74
     0
  0
ENDTAB
  0
TABLE
  2
LAYER
  5
718D
330
0
100
AcDbSymbolTable
 70
     1
  0
LAYER
  5
719A
330
718D
100
AcDbSymbolTableRecord
100
AcDbLayerTableRecord
  2
0
 70
     0
 62
    18
420
        0
  6
Continuous
370
    25
390
7199
347
71CF
348
0
  0
ENDTAB
  0
TABLE
  2
STYLE
  5
718E
330
0
100
AcDbSymbolTable
 70
    13
  0
STYLE
  5
719B
330
718E
100
AcDbSymbolTableRecord
100
AcDbTextStyleTableRecord
  2
Standard
 70
     0
 40
0.0
 41
1.0
 50
0.0
 71
     0
 42
0.2
  3
txt
  4

  0
STYLE
  5
721F
330
718E
100
AcDbSymbolTableRecord
100
AcDbTextStyleTableRecord
  2
QCADDimTextStyle
 70
     0
 40
0.0
 41
1.0
 50
0.0
 71
     0
 42
0.2
  3
txt
  4

  0
STYLE
  5
722B
330
718E
100
AcDbSymbolTableRecord
100
AcDbTextStyleTableRecord
  2
textstyle0
 70
     0
 40
0.0
 41
1.0
 50
0.0
 71
     0
 42
0.2
  3
ltypeshp.shx
  4

  0
STYLE
  5
722C
330
718E
100
AcDbSymbolTableRecord
100
AcDbTextStyleTableRecord
  2
textstyle1
 70
     0
 40
0.0
 41
1.0
 50
0.0
 71
     0
 42
0.2
  3
ltypeshp.shx
  4

  0
STYLE
  5
7238
330
718E
100
AcDbSymbolTableRecord
100
AcDbTextStyleTableRecord
  2
textstyle2
 70
     0
 40
0.0
 41
1.0
 50
0.0
 71
     0
 42
0.2
  3
STANDARD
  4

  0
STYLE
  5
723D
330
718E
100
AcDbSymbolTableRecord
100
AcDbTextStyleTableRecord
  2
textstyle3
 70
     0
 40
0.0
 41
1.0
 50
0.0
 71
     0
 42
0.2
  3
ltypeshp.shx
  4

  0
STYLE
  5
723F
330
718E
100
AcDbSymbolTableRecord
100
AcDbTextStyleTableRecord
  2
textstyle4
 70
     0
 40
0.0
 41
1.0
 50
0.0
 71
     0
 42
0.2
  3
ltypeshp.shx
  4

  0
STYLE
  5
7240
330
718E
100
AcDbSymbolTableRecord
100
AcDbTextStyleTableRecord
  2
textstyle5
 70
     0
 40
0.0
 41
1.0
 50
0.0
 71
     0
 42
0.2
  3
ltypeshp.shx
  4

  0
STYLE
  5
7243
330
718E
100
AcDbSymbolTableRecord
100
AcDbTextStyleTableRecord
  2
textstyle6
 70
     0
 40
0.0
 41
1.0
 50
0.0
 71
     0
 42
0.2
  3
qcadshp.shx
  4

  0
STYLE
  5
7245
330
718E
100
AcDbSymbolTableRecord
100
AcDbTextStyleTableRecord
  2
textstyle7
 70
     0
 40
0.0
 41
1.0
 50
0.0
 71
     0
 42
0.2
  3
qcadshp.shx
  4

  0
STYLE
  5
7247
330
718E
100
AcDbSymbolTableRecord
100
AcDbTextStyleTableRecord
  2
textstyle8
 70
     0
 40
0.0
 41
1.0
 50
0.0
 71
     0
 42
0.2
  3
ltypeshp.shx
  4

  0
STYLE
  5
7249
330
718E
100
AcDbSymbolTableRecord
100
AcDbTextStyleTableRecord
  2
textstyle9
 70
     0
 40
0.0
 41
1.0
 50
0.0
 71
     0
 42
0.2
  3
ltypeshp.shx
  4

  0
STYLE
  5
724B
330
718E
100
AcDbSymbolTableRecord
100
AcDbTextStyleTableRecord
  2
textstyle10
 70
     0
 40
0.0
 41
1.0
 50
0.0
 71
     0
 42
0.2
  3
STANDARD
  4

  0
ENDTAB
  0
TABLE
  2
VIEW
  5
7190
330
0
100
AcDbSymbolTable
 70
     0
  0
ENDTAB
  0
TABLE
  2
UCS
  5
7191
330
0
100
AcDbSymbolTable
 70
     0
  0
ENDTAB
  0
TABLE
  2
APPID
  5
7193
330
0
100
AcDbSymbolTable
 70
     2
  0
APPID
  5
719C
330
7193
100
AcDbSymbolTableRecord
100
AcDbRegAppTableRecord
  2
ACAD
 70
     0
  0
APPID
  5
71E7
330
7193
100
AcDbSymbolTableRecord
100
AcDbRegAppTableRecord
  2
QCAD
 70
     0
  0
ENDTAB
  0
TABLE
  2
DIMSTYLE
  5
7194
330
0
100
AcDbSymbolTable
 70
     2
100
AcDbDimStyleTable
  0
DIMSTYLE
105
71B0
330
7194
100
AcDbSymbolTableRecord
100
AcDbDimStyleTableRecord
  2
Standard
 70
     0
178
     0
340
719B
  0
DIMSTYLE
105
7220
330
7194
100
AcDbSymbolTableRecord
100
AcDbDimStyleTableRecord
  2
QCADDimStyle
 70
     0
 41
2.5
 42
0.625
 44
1.25
 73
     0
 77
     1
140
2.5
147
0.625
178
    18
340
721F
  0
ENDTAB
  0
TABLE
  2
BLOCK_RECORD
  5
718C
330
0
100
AcDbSymbolTable
 70
     2
  0
BLOCK_RECORD
  5
71A8
330
718C
100
AcDbSymbolTableRecord
100
AcDbBlockTableRecord
  2
*Model_Space
340
71AB
 70
     0
280
     1
281
     0
  0
BLOCK_RECORD
  5
71A4
330
718C
100
AcDbSymbolTableRecord
100
AcDbBlockTableRecord
  2
*Paper_Space
340
71A7
 70
     0
280
     1
281
     0
  0
BLOCK_RECORD
  5
725D
330
718C
100
AcDbSymbolTableRecord
100
AcDbBlockTableRecord
  2
cartridge
340
0
 70
     0
280
     1
281
     0
  0
BLOCK_RECORD
  5
7260
330
718C
100
AcDbSymbolTableRecord
100
AcDbBlockTableRecord
  2
PCB
340
0
 70
     0
280
     1
281
     0
  0
ENDTAB
  0
ENDSEC
  0
SECTION
  2
BLOCKS
  0
BLOCK
  5
71A9
330
71A8
100
AcDbEntity
  8
0
100
AcDbBlockBegin
  2
*Model_Space
 70
     0
 10
0.0
 20
0.0
 30
0.0
  3
*Model_Space
  1

  0
ENDBLK
  5
71AA
330
71A8
100
AcDbEntity
  8
0
100
AcDbBlockEnd
  0
BLOCK
  5
71A5
330
71A4
100
AcDbEntity
 67
     1
  8
0
100
AcDbBlockBegin
  2
*Paper_Space
 70
     0
 10
0.0
 20
0.0
 30
0.0
  3
*Paper_Space
  1

  0
ENDBLK
  5
71A6
330
71A4
100
AcDbEntity
 67
     1
  8
0
100
AcDbBlockEnd
  0
BLOCK
  5
725E
330
725D
100
AcDbEntity
  8
0
100
AcDbBlockBegin
  2
cartridge
 70
     0
 10
0.0
 20
0.0
 30
0.0
  3
cartridge
  1

  0
LWPOLYLINE
  5
17F
330
725D
100
AcDbEntity
  8
0
100
AcDbPolyline
 90
        2
 70
     0
 43
0.0
 10
105.7524309903379
 20
-59.25245306723752
 10
105.7524309903379
 20
-4.067447867237426
  0
LWPOLYLINE
  5
1A0
330
725D
100
AcDbEntity
  8
0
100
AcDbPolyline
 90
        2
 70
     0
 43
0.0
 10
91.78243099033789
 20
-69.4124530672375
 10
91.78243099033789
 20
-59.25245306723752
  0
LWPOLYLINE
  5
1A1
330
725D
100
AcDbEntity
  8
0
100
AcDbPolyline
 90
        2
 70
     0
 43
0.0
 10
27.0124309903379
 20
-59.25245306723752
 10
27.0124309903379
 20
-69.4124530672375
  0
LWPOLYLINE
  5
1A4
330
725D
100
AcDbEntity
  8
0
100
AcDbPolyline
 90
        2
 70
     0
 43
0.0
 10
14.31243099033786
 20
-46.55245306723747
 10
14.31243099033786
 20
-59.25245306723752
  0
LWPOLYLINE
  5
1A2
330
725D
100
AcDbEntity
  8
0
100
AcDbPolyline
 90
        2
 70
     0
 43
0.0
 10
4.152430990337891
 20
-4.067422467237513
 10
4.152430990337891
 20
-46.55245306723747
  0
LWPOLYLINE
  5
185
330
725D
100
AcDbEntity
  8
0
100
AcDbPolyline
 90
        2
 70
     0
 43
0.0
 10
14.31243099033786
 20
-46.55245306723747
 10
4.152430990337891
 20
-46.55245306723747
  0
LWPOLYLINE
  5
182
330
725D
100
AcDbEntity
  8
0
100
AcDbPolyline
 90
        2
 70
     0
 43
0.0
 10
27.0124309903379
 20
-59.25245306723752
 10
14.31243099033786
 20
-59.25245306723752
  0
LWPOLYLINE
  5
187
330
725D
100
AcDbEntity
  8
0
100
AcDbPolyline
 90
        2
 70
     0
 43
0.0
 10
91.78243099033789
 20
-69.4124530672375
 10
27.02543579033799
 20
-69.4124530672375
  0
LWPOLYLINE
  5
184
330
725D
100
AcDbEntity
  8
0
100
AcDbPolyline
 90
        2
 70
     0
 43
0.0
 10
105.6724717903378
 20
-59.25245306723752
 10
91.78243099033789
 20
-59.25245306723752
  0
LWPOLYLINE
  5
186
330
725D
100
AcDbEntity
  8
0
100
AcDbPolyline
 90
        2
 70
     0
 43
0.0
 10
4.152430990337891
 20
-4.067422467237513
 10
105.7524309903379
 20
-4.067422467237513
  0
LWPOLYLINE
  5
18C
330
725D
100
AcDbEntity
  8
0
100
AcDbPolyline
 90
        2
 70
     0
 43
0.0
 10
4.157383990337891
 20
-4.067422467237513
 10
105.747427190338
 20
-4.067422467237513
  0
LWPOLYLINE
  5
1B1
330
725D
100
AcDbEntity
  8
0
100
AcDbPolyline
 90
       10
 70
     0
 43
0.0
 10
105.7524309903379
 20
-4.067447867237426
 10
105.7524309903379
 20
-59.25245306723752
 10
91.78243099033789
 20
-59.25245306723752
 10
91.78243099033789
 20
-69.4124530672375
 10
27.0124309903379
 20
-69.4124530672375
 10
27.0124309903379
 20
-59.25245306723752
 10
14.31243099033786
 20
-59.25245306723752
 10
14.31243099033786
 20
-46.55245306723747
 10
4.152430990337891
 20
-46.55245306723747
 10
4.152430990337891
 20
-4.067422467237513
  0
LWPOLYLINE
  5
189
330
725D
100
AcDbEntity
  8
0
100
AcDbPolyline
 90
        4
 70
     1
 43
0.0
 10
28.28243099033789
 20
-61.79245306723748
 10
29.55243099033787
 20
-61.79245306723748
 10
29.55243099033787
 20
-69.4124530672375
 10
28.28243099033789
 20
-69.4124530672375
  0
LWPOLYLINE
  5
18B
330
725D
100
AcDbEntity
  8
0
100
AcDbPolyline
 90
        4
 70
     1
 43
0.0
 10
30.82243099033785
 20
-61.79245306723748
 10
32.09243099033783
 20
-61.79245306723748
 10
32.09243099033783
 20
-69.4124530672375
 10
30.82243099033785
 20
-69.4124530672375
  0
LWPOLYLINE
  5
188
330
725D
100
AcDbEntity
  8
0
100
AcDbPolyline
 90
        4
 70
     1
 43
0.0
 10
33.36243099033781
 20
-61.79245306723748
 10
34.63243099033802
 20
-61.79245306723748
 10
34.63243099033802
 20
-69.4124530672375
 10
33.36243099033781
 20
-69.4124530672375
  0
LWPOLYLINE
  5
18D
330
725D
100
AcDbEntity
  8
0
100
AcDbPolyline
 90
        4
 70
     1
 43
0.0
 10
35.902430990338
 20
-61.79245306723748
 10
37.17243099033799
 20
-61.79245306723748
 10
37.17243099033799
 20
-69.4124530672375
 10
35.902430990338
 20
-69.4124530672375
  0
LWPOLYLINE
  5
18A
330
725D
100
AcDbEntity
  8
0
100
AcDbPolyline
 90
        4
 70
     1
 43
0.0
 10
38.44243099033797
 20
-61.79245306723748
 10
39.71243099033795
 20
-61.79245306723748
 10
39.71243099033795
 20
-69.4124530672375
 10
38.44243099033797
 20
-69.4124530672375
  0
LWPOLYLINE
  5
1AF
330
725D
100
AcDbEntity
  8
0
100
AcDbPolyline
 90
        4
 70
     1
 43
0.0
 10
40.98243099033793
 20
-61.79245306723748
 10
42.25243099033791
 20
-61.79245306723748
 10
42.25243099033791
 20
-69.4124530672375
 10
40.98243099033793
 20
-69.4124530672375
  0
LWPOLYLINE
  5
18F
330
725D
100
AcDbEntity
  8
0
100
AcDbPolyline
 90
        4
 70
     1
 43
0.0
 10
43.5224309903379
 20
-61.79245306723748
 10
44.79243099033788
 20
-61.79245306723748
 10
44.79243099033788
 20
-69.4124530672375
 10
43.5224309903379
 20
-69.4124530672375
  0
LWPOLYLINE
  5
1B4
330
725D
100
AcDbEntity
  8
0
100
AcDbPolyline
 90
        4
 70
     1
 43
0.0
 10
46.06243099033786
 20
-61.79245306723748
 10
47.33243099033784
 20
-61.79245306723748
 10
47.33243099033784
 20
-69.4124530672375
 10
46.06243099033786
 20
-69.4124530672375
  0
LWPOLYLINE
  5
1B3
330
725D
100
AcDbEntity
  8
0
100
AcDbPolyline
 90
        4
 70
     1
 43
0.0
 10
48.60243099033782
 20
-61.79245306723748
 10
49.8724309903378
 20
-61.79245306723748
 10
49.8724309903378
 20
-69.4124530672375
 10
48.60243099033782
 20
-69.4124530672375
  0
LWPOLYLINE
  5
195
330
725D
100
AcDbEntity
  8
0
100
AcDbPolyline
 90
        4
 70
     1
 43
0.0
 10
51.14243099033801
 20
-61.79245306723748
 10
52.412430990338
 20
-61.79245306723748
 10
52.412430990338
 20
-69.4124530672375
 10
51.14243099033801
 20
-69.4124530672375
  0
LWPOLYLINE
  5
192
330
725D
100
AcDbEntity
  8
0
100
AcDbPolyline
 90
        4
 70
     1
 43
0.0
 10
53.68243099033798
 20
-61.79245306723748
 10
54.95243099033796
 20
-61.79245306723748
 10
54.95243099033796
 20
-69.4124530672375
 10
53.68243099033798
 20
-69.4124530672375
  0
LWPOLYLINE
  5
197
330
725D
100
AcDbEntity
  8
0
100
AcDbPolyline
 90
        4
 70
     1
 43
0.0
 10
56.22243099033794
 20
-61.79245306723748
 10
57.49243099033792
 20
-61.79245306723748
 10
57.49243099033792
 20
-69.4124530672375
 10
56.22243099033794
 20
-69.4124530672375
  0
LWPOLYLINE
  5
194
330
725D
100
AcDbEntity
  8
0
100
AcDbPolyline
 90
        4
 70
     1
 43
0.0
 10
58.7624309903379
 20
-61.79245306723748
 10
60.03243099033789
 20
-61.79245306723748
 10
60.03243099033789
 20
-69.4124530672375
 10
58.7624309903379
 20
-69.4124530672375
  0
LWPOLYLINE
  5
199
330
725D
100
AcDbEntity
  8
0
100
AcDbPolyline
 90
        4
 70
     1
 43
0.0
 10
61.30243099033787
 20
-61.79245306723748
 10
62.57243099033785
 20
-61.79245306723748
 10
62.57243099033785
 20
-69.4124530672375
 10
61.30243099033787
 20
-69.4124530672375
  0
LWPOLYLINE
  5
196
330
725D
100
AcDbEntity
  8
0
100
AcDbPolyline
 90
        4
 70
     1
 43
0.0
 10
63.84243099033783
 20
-61.79245306723748
 10
65.11243099033781
 20
-61.79245306723748
 10
65.11243099033781
 20
-69.4124530672375
 10
63.84243099033783
 20
-69.4124530672375
  0
LWPOLYLINE
  5
19B
330
725D
100
AcDbEntity
  8
0
100
AcDbPolyline
 90
        4
 70
     1
 43
0.0
 10
66.38243099033802
 20
-61.79245306723748
 10
67.652430990338
 20
-61.79245306723748
 10
67.652430990338
 20
-69.4124530672375
 10
66.38243099033802
 20
-69.4124530672375
  0
LWPOLYLINE
  5
198
330
725D
100
AcDbEntity
  8
0
100
AcDbPolyline
 90
        4
 70
     1
 43
0.0
 10
68.92243099033799
 20
-61.79245306723748
 10
70.19243099033797
 20
-61.79245306723748
 10
70.19243099033797
 20
-69.4124530672375
 10
68.92243099033799
 20
-69.4124530672375
  0
LWPOLYLINE
  5
19D
330
725D
100
AcDbEntity
  8
0
100
AcDbPolyline
 90
        4
 70
     1
 43
0.0
 10
71.46243099033795
 20
-61.79245306723748
 10
72.73243099033793
 20
-61.79245306723748
 10
72.73243099033793
 20
-69.4124530672375
 10
71.46243099033795
 20
-69.4124530672375
  0
LWPOLYLINE
  5
19A
330
725D
100
AcDbEntity
  8
0
100
AcDbPolyline
 90
        4
 70
     1
 43
0.0
 10
74.00243099033791
 20
-61.79245306723748
 10
75.2724309903379
 20
-61.79245306723748
 10
75.2724309903379
 20
-69.4124530672375
 10
74.00243099033791
 20
-69.4124530672375
  0
LWPOLYLINE
  5
19F
330
725D
100
AcDbEntity
  8
0
100
AcDbPolyline
 90
        4
 70
     1
 43
0.0
 10
76.54243099033788
 20
-61.79245306723748
 10
77.81243099033786
 20
-61.79245306723748
 10
77.81243099033786
 20
-69.4124530672375
 10
76.54243099033788
 20
-69.4124530672375
  0
LWPOLYLINE
  5
19C
330
725D
100
AcDbEntity
  8
0
100
AcDbPolyline
 90
        4
 70
     1
 43
0.0
 10
79.08243099033784
 20
-61.79245306723748
 10
80.35243099033782
 20
-61.79245306723748
 10
80.35243099033782
 20
-69.4124530672375
 10
79.08243099033784
 20
-69.4124530672375
  0
LWPOLYLINE
  5
181
330
725D
100
AcDbEntity
  8
0
100
AcDbPolyline
 90
        4
 70
     1
 43
0.0
 10
81.6224309903378
 20
-61.79245306723748
 10
82.89243099033801
 20
-61.79245306723748
 10
82.89243099033801
 20
-69.4124530672375
 10
81.6224309903378
 20
-69.4124530672375
  0
LWPOLYLINE
  5
19E
330
725D
100
AcDbEntity
  8
0
100
AcDbPolyline
 90
        4
 70
     1
 43
0.0
 10
84.162430990338
 20
-61.79245306723748
 10
85.43243099033798
 20
-61.79245306723748
 10
85.43243099033798
 20
-69.4124530672375
 10
84.162430990338
 20
-69.4124530672375
  0
LWPOLYLINE
  5
183
330
725D
100
AcDbEntity
  8
0
100
AcDbPolyline
 90
        4
 70
     1
 43
0.0
 10
86.70243099033796
 20
-61.79245306723748
 10
87.97243099033794
 20
-61.79245306723748
 10
87.97243099033794
 20
-69.4124530672375
 10
86.70243099033796
 20
-69.4124530672375
  0
LWPOLYLINE
  5
180
330
725D
100
AcDbEntity
  8
0
100
AcDbPolyline
 90
        4
 70
     1
 43
0.0
 10
89.24243099033792
 20
-61.79245306723748
 10
90.5124309903379
 20
-61.79245306723748
 10
90.5124309903379
 20
-69.4124530672375
 10
89.24243099033792
 20
-69.4124530672375
  0
LWPOLYLINE
  5
1A5
330
725D
100
AcDbEntity
  8
0
100
AcDbPolyline
 90
        4
 70
     1
 43
0.0
 10
28.28243099033789
 20
-61.79245306723748
 10
29.55243099033787
 20
-61.79245306723748
 10
29.55243099033787
 20
-69.4124530672375
 10
28.28243099033789
 20
-69.4124530672375
  0
LWPOLYLINE
  5
1A3
330
725D
100
AcDbEntity
  8
0
100
AcDbPolyline
 90
        4
 70
     1
 43
0.0
 10
30.82243099033785
 20
-61.79245306723748
 10
32.09243099033783
 20
-61.79245306723748
 10
32.09243099033783
 20
-69.4124530672375
 10
30.82243099033785
 20
-69.4124530672375
  0
LWPOLYLINE
  5
1A7
330
725D
100
AcDbEntity
  8
0
100
AcDbPolyline
 90
        4
 70
     1
 43
0.0
 10
33.36243099033781
 20
-61.79245306723748
 10
34.63243099033802
 20
-61.79245306723748
 10
34.63243099033802
 20
-69.4124530672375
 10
33.36243099033781
 20
-69.4124530672375
  0
LWPOLYLINE
  5
1A9
330
725D
100
AcDbEntity
  8
0
100
AcDbPolyline
 90
        4
 70
     1
 43
0.0
 10
38.44243099033797
 20
-61.79245306723748
 10
39.71243099033795
 20
-61.79245306723748
 10
39.71243099033795
 20
-69.4124530672375
 10
38.44243099033797
 20
-69.4124530672375
  0
LWPOLYLINE
  5
1A6
330
725D
100
AcDbEntity
  8
0
100
AcDbPolyline
 90
        4
 70
     1
 43
0.0
 10
40.98243099033793
 20
-61.79245306723748
 10
42.25243099033791
 20
-61.79245306723748
 10
42.25243099033791
 20
-69.4124530672375
 10
40.98243099033793
 20
-69.4124530672375
  0
LWPOLYLINE
  5
1AB
330
725D
100
AcDbEntity
  8
0
100
AcDbPolyline
 90
        4
 70
     1
 43
0.0
 10
43.5224309903379
 20
-61.79245306723748
 10
44.79243099033788
 20
-61.79245306723748
 10
44.79243099033788
 20
-69.4124530672375
 10
43.5224309903379
 20
-69.4124530672375
  0
LWPOLYLINE
  5
1A8
330
725D
100
AcDbEntity
  8
0
100
AcDbPolyline
 90
        4
 70
     1
 43
0.0
 10
46.06243099033786
 20
-61.79245306723748
 10
47.33243099033784
 20
-61.79245306723748
 10
47.33243099033784
 20
-69.4124530672375
 10
46.06243099033786
 20
-69.4124530672375
  0
LWPOLYLINE
  5
1AE
330
725D
100
AcDbEntity
  8
0
100
AcDbPolyline
 90
        4
 70
     1
 43
0.0
 10
48.60243099033782
 20
-61.79245306723748
 10
49.8724309903378
 20
-61.79245306723748
 10
49.8724309903378
 20
-69.4124530672375
 10
48.60243099033782
 20
-69.4124530672375
  0
LWPOLYLINE
  5
1AA
330
725D
100
AcDbEntity
  8
0
100
AcDbPolyline
 90
        4
 70
     1
 43
0.0
 10
51.14243099033801
 20
-61.79245306723748
 10
52.412430990338
 20
-61.79245306723748
 10
52.412430990338
 20
-69.4124530672375
 10
51.14243099033801
 20
-69.4124530672375
  0
LWPOLYLINE
  5
1B2
330
725D
100
AcDbEntity
  8
0
100
AcDbPolyline
 90
        4
 70
     1
 43
0.0
 10
53.68243099033798
 20
-61.79245306723748
 10
54.95243099033796
 20
-61.79245306723748
 10
54.95243099033796
 20
-69.4124530672375
 10
53.68243099033798
 20
-69.4124530672375
  0
LWPOLYLINE
  5
1AC
330
725D
100
AcDbEntity
  8
0
100
AcDbPolyline
 90
        4
 70
     1
 43
0.0
 10
56.22243099033794
 20
-61.79245306723748
 10
57.49243099033792
 20
-61.79245306723748
 10
57.49243099033792
 20
-69.4124530672375
 10
56.22243099033794
 20
-69.4124530672375
  0
LWPOLYLINE
  5
191
330
725D
100
AcDbEntity
  8
0
100
AcDbPolyline
 90
        4
 70
     1
 43
0.0
 10
58.7624309903379
 20
-61.79245306723748
 10
60.03243099033789
 20
-61.79245306723748
 10
60.03243099033789
 20
-69.4124530672375
 10
58.7624309903379
 20
-69.4124530672375
  0
LWPOLYLINE
  5
1B0
330
725D
100
AcDbEntity
  8
0
100
AcDbPolyline
 90
        4
 70
     1
 43
0.0
 10
61.30243099033787
 20
-61.79245306723748
 10
62.57243099033785
 20
-61.79245306723748
 10
62.57243099033785
 20
-69.4124530672375
 10
61.30243099033787
 20
-69.4124530672375
  0
LWPOLYLINE
  5
193
330
725D
100
AcDbEntity
  8
0
100
AcDbPolyline
 90
        4
 70
     1
 43
0.0
 10
63.84243099033783
 20
-61.79245306723748
 10
65.11243099033781
 20
-61.79245306723748
 10
65.11243099033781
 20
-69.4124530672375
 10
63.84243099033783
 20
-69.4124530672375
  0
LWPOLYLINE
  5
190
330
725D
100
AcDbEntity
  8
0
100
AcDbPolyline
 90
        4
 70
     1
 43
0.0
 10
66.38243099033802
 20
-61.79245306723748
 10
67.652430990338
 20
-61.79245306723748
 10
67.652430990338
 20
-69.4124530672375
 10
66.38243099033802
 20
-69.4124530672375
  0
LWPOLYLINE
  5
1AD
330
725D
100
AcDbEntity
  8
0
100
AcDbPolyline
 90
        4
 70
     1
 43
0.0
 10
68.92243099033799
 20
-61.79245306723748
 10
70.19243099033797
 20
-61.79245306723748
 10
70.19243099033797
 20
-69.4124530672375
 10
68.92243099033799
 20
-69.4124530672375
  0
LWPOLYLINE
  5
18E
330
725D
100
AcDbEntity
  8
0
100
AcDbPolyline
 90
        4
 70
     1
 43
0.0
 10
71.46243099033795
 20
-61.79245306723748
 10
72.73243099033793
 20
-61.79245306723748
 10
72.73243099033793
 20
-69.4124530672375
 10
71.46243099033795
 20
-69.4124530672375
  0
LWPOLYLINE
  5
1B6
330
725D
100
AcDbEntity
  8
0
100
AcDbPolyline
 90
        4
 70
     1
 43
0.0
 10
74.00243099033791
 20
-61.79245306723748
 10
75.2724309903379
 20
-61.79245306723748
 10
75.2724309903379
 20
-69.4124530672375
 10
74.00243099033791
 20
-69.4124530672375
  0
LWPOLYLINE
  5
1B5
330
725D
100
AcDbEntity
  8
0
100
AcDbPolyline
 90
        4
 70
     1
 43
0.0
 10
76.54243099033788
 20
-61.79245306723748
 10
77.81243099033786
 20
-61.79245306723748
 10
77.81243099033786
 20
-69.4124530672375
 10
76.54243099033788
 20
-69.4124530672375
  0
LWPOLYLINE
  5
1B7
330
725D
100
AcDbEntity
  8
0
100
AcDbPolyline
 90
        4
 70
     1
 43
0.0
 10
79.08243099033784
 20
-61.79245306723748
 10
80.35243099033782
 20
-61.79245306723748
 10
80.35243099033782
 20
-69.4124530672375
 10
79.08243099033784
 20
-69.4124530672375
  0
LWPOLYLINE
  5
1B8
330
725D
100
AcDbEntity
  8
0
100
AcDbPolyline
 90
        4
 70
     1
 43
0.0
 10
81.6224309903378
 20
-61.79245306723748
 10
82.89243099033801
 20
-61.79245306723748
 10
82.89243099033801
 20
-69.4124530672375
 10
81.6224309903378
 20
-69.4124530672375
  0
LWPOLYLINE
  5
1B9
330
725D
100
AcDbEntity
  8
0
100
AcDbPolyline
 90
        4
 70
     1
 43
0.0
 10
84.162430990338
 20
-61.79245306723748
 10
85.43243099033798
 20
-61.79245306723748
 10
85.43243099033798
 20
-69.4124530672375
 10
84.162430990338
 20
-69.4124530672375
  0
LWPOLYLINE
  5
1BA
330
725D
100
AcDbEntity
  8
0
100
AcDbPolyline
 90
        4
 70
     1
 43
0.0
 10
86.70243099033796
 20
-61.79245306723748
 10
87.97243099033794
 20
-61.79245306723748
 10
87.97243099033794
 20
-69.4124530672375
 10
86.70243099033796
 20
-69.4124530672375
  0
LWPOLYLINE
  5
1BC
330
725D
100
AcDbEntity
  8
0
100
AcDbPolyline
 90
        4
 70
     1
 43
0.0
 10
89.24243099033792
 20
-61.79245306723748
 10
90.5124309903379
 20
-61.79245306723748
 10
90.5124309903379
 20
-69.4124530672375
 10
89.24243099033792
 20
-69.4124530672375
  0
CIRCLE
  5
1BB
330
725D
100
AcDbEntity
  8
0
100
AcDbCircle
 10
31.29741099033781
 20
-48.36753706723754
 30
0.0
 40
2.4500078
  0
CIRCLE
  5
17E
330
725D
100
AcDbEntity
  8
0
100
AcDbCircle
 10
87.49745099033798
 20
-53.46734906723758
 30
0.0
 40
2.4500078
  0
ENDBLK
  5
725F
330
725D
100
AcDbEntity
  8
0
100
AcDbBlockEnd
  0
BLOCK
  5
7261
330
7260
100
AcDbEntity
  8
0
100
AcDbBlockBegin
  2
PCB
 70
     0
 10
0.0
 20
0.0
 30
0.0
  3
PCB
  1

  0
ENDBLK
  5
7262
330
7260
100
AcDbEntity
  8
0
100
AcDbBlockEnd
  0
ENDSEC
  0
SECTION
  2
ENTITIES
  0
LINE
  5
39
330
71A8
100
AcDbEntity
  8
0
100
AcDbLine
 10
0.4999999999999872
 20
-70.0
 30
0.0
 11
108.5
 21
-70.0
 31
0.0
  0
LINE
  5
42
330
71A8
100
AcDbEntity
  8
0
100
AcDbLine
 10
-23.0
 20
0.0000000000000028
 30
0.0
 11
-10.0
 21
0.0000000000000012
 31
0.0
  0
LINE
  5
2758
330
71A8
100
AcDbEntity
  8
0
100
AcDbLine
 10
118.1088437857962
 20
0.0
 30
0.0
 11
131.1088437857962
 21
0.0
 31
0.0
  0
LINE
  5
47
330
71A8
100
AcDbEntity
  8
0
100
AcDbLine
 10
-10.00000000000001
 20
-70.0
 30
0.0
 11
-23.00000000000001
 21
-70.0
 31
0.0
  0
LINE
  5
2759
330
71A8
100
AcDbEntity
  8
0
100
AcDbLine
 10
131.1088437857962
 20
-70.0
 30
0.0
 11
118.1088437857962
 21
-70.0
 31
0.0
  0
LINE
  5
13A
330
71A8
100
AcDbEntity
  8
0
100
AcDbLine
 10
25.89999999999998
 20
-81.00000000000001
 30
0.0
 11
92.20002000000005
 21
-81.00000000000001
 31
0.0
  0
LINE
  5
13C
330
71A8
100
AcDbEntity
  8
0
100
AcDbLine
 10
92.20002000000005
 20
-83.00000000000001
 30
0.0
 11
25.89999999999998
 21
-83.00000000000001
 31
0.0
  0
LINE
  5
13D
330
71A8
100
AcDbEntity
  8
0
100
AcDbLine
 10
25.89999999999998
 20
-83.00000000000001
 30
0.0
 11
25.89999999999998
 21
-81.00000000000001
 31
0.0
  0
LINE
  5
4AD
330
71A8
100
AcDbEntity
  8
0
100
AcDbLine
 10
-10.0
 20
0.0000000000000012
 30
0.0
 11
-8.0
 21
0.000000000000001
 31
0.0
  0
LINE
  5
26CD
330
71A8
100
AcDbEntity
  8
0
100
AcDbLine
 10
-23.00000000000004
 20
0.0
 30
0.0
 11
-25.00000000000004
 21
0.0
 31
0.0
  0
LINE
  5
275A
330
71A8
100
AcDbEntity
  8
0
100
AcDbLine
 10
131.1088437857962
 20
0.0
 30
0.0
 11
133.1088437857962
 21
0.0
 31
0.0
  0
LINE
  5
275B
330
71A8
100
AcDbEntity
  8
0
100
AcDbLine
 10
118.1088437857962
 20
0.0
 30
0.0
 11
116.1088437857962
 21
0.0
 31
0.0
  0
LINE
  5
4AF
330
71A8
100
AcDbEntity
  8
0
100
AcDbLine
 10
-8.0
 20
0.000000000000001
 30
0.0
 11
-8.0
 21
-8.749999999999998
 31
0.0
  0
LINE
  5
26CE
330
71A8
100
AcDbEntity
  8
0
100
AcDbLine
 10
-25.00000000000004
 20
0.0
 30
0.0
 11
-25.00000000000004
 21
-8.75
 31
0.0
  0
LINE
  5
275C
330
71A8
100
AcDbEntity
  8
0
100
AcDbLine
 10
133.1088437857962
 20
0.0
 30
0.0
 11
133.1088437857962
 21
-8.75
 31
0.0
  0
LINE
  5
275D
330
71A8
100
AcDbEntity
  8
0
100
AcDbLine
 10
116.1088437857962
 20
0.0
 30
0.0
 11
116.1088437857962
 21
-8.75
 31
0.0
  0
LINE
  5
4B0
330
71A8
100
AcDbEntity
  8
0
100
AcDbLine
 10
-8.0
 20
-8.749999999999998
 30
0.0
 11
-10.0
 21
-8.749999999999998
 31
0.0
  0
LINE
  5
26CF
330
71A8
100
AcDbEntity
  8
0
100
AcDbLine
 10
-25.00000000000004
 20
-8.75
 30
0.0
 11
-23.00000000000004
 21
-8.75
 31
0.0
  0
LINE
  5
275E
330
71A8
100
AcDbEntity
  8
0
100
AcDbLine
 10
133.1088437857962
 20
-8.75
 30
0.0
 11
131.1088437857962
 21
-8.75
 31
0.0
  0
LINE
  5
275F
330
71A8
100
AcDbEntity
  8
0
100
AcDbLine
 10
116.1088437857962
 20
-8.75
 30
0.0
 11
118.1088437857962
 21
-8.75
 31
0.0
  0
LINE
  5
4B1
330
71A8
100
AcDbEntity
  8
0
100
AcDbLine
 10
-10.0
 20
-17.55
 30
0.0
 11
-8.000000000000004
 21
-17.55
 31
0.0
  0
LINE
  5
26D0
330
71A8
100
AcDbEntity
  8
0
100
AcDbLine
 10
-23.00000000000004
 20
-17.55
 30
0.0
 11
-25.00000000000004
 21
-17.55000000000001
 31
0.0
  0
LINE
  5
2760
330
71A8
100
AcDbEntity
  8
0
100
AcDbLine
 10
131.1088437857962
 20
-17.55
 30
0.0
 11
133.1088437857962
 21
-17.55
 31
0.0
  0
LINE
  5
2761
330
71A8
100
AcDbEntity
  8
0
100
AcDbLine
 10
118.1088437857962
 20
-17.55
 30
0.0
 11
116.1088437857962
 21
-17.55000000000001
 31
0.0
  0
LINE
  5
4B2
330
71A8
100
AcDbEntity
  8
0
100
AcDbLine
 10
-8.000000000000004
 20
-17.55
 30
0.0
 11
-8.000000000000004
 21
-26.3
 31
0.0
  0
LINE
  5
26D1
330
71A8
100
AcDbEntity
  8
0
100
AcDbLine
 10
-25.00000000000004
 20
-17.55000000000001
 30
0.0
 11
-25.00000000000004
 21
-26.3
 31
0.0
  0
LINE
  5
2762
330
71A8
100
AcDbEntity
  8
0
100
AcDbLine
 10
133.1088437857962
 20
-17.55
 30
0.0
 11
133.1088437857962
 21
-26.3
 31
0.0
  0
LINE
  5
2763
330
71A8
100
AcDbEntity
  8
0
100
AcDbLine
 10
116.1088437857962
 20
-17.55000000000001
 30
0.0
 11
116.1088437857962
 21
-26.3
 31
0.0
  0
LINE
  5
4B3
330
71A8
100
AcDbEntity
  8
0
100
AcDbLine
 10
-8.000000000000004
 20
-26.3
 30
0.0
 11
-10.0
 21
-26.3
 31
0.0
  0
LINE
  5
26D2
330
71A8
100
AcDbEntity
  8
0
100
AcDbLine
 10
-25.00000000000004
 20
-26.3
 30
0.0
 11
-23.00000000000004
 21
-26.3
 31
0.0
  0
LINE
  5
2764
330
71A8
100
AcDbEntity
  8
0
100
AcDbLine
 10
133.1088437857962
 20
-26.3
 30
0.0
 11
131.1088437857962
 21
-26.3
 31
0.0
  0
LINE
  5
2765
330
71A8
100
AcDbEntity
  8
0
100
AcDbLine
 10
116.1088437857962
 20
-26.3
 30
0.0
 11
118.1088437857962
 21
-26.3
 31
0.0
  0
LINE
  5
4B4
330
71A8
100
AcDbEntity
  8
0
100
AcDbLine
 10
-10.00000000000001
 20
-35.1
 30
0.0
 11
-8.000000000000007
 21
-35.1
 31
0.0
  0
LINE
  5
26D3
330
71A8
100
AcDbEntity
  8
0
100
AcDbLine
 10
-23.00000000000004
 20
-35.1
 30
0.0
 11
-25.00000000000004
 21
-35.1
 31
0.0
  0
LINE
  5
2766
330
71A8
100
AcDbEntity
  8
0
100
AcDbLine
 10
131.1088437857962
 20
-35.1
 30
0.0
 11
133.1088437857962
 21
-35.1
 31
0.0
  0
LINE
  5
2767
330
71A8
100
AcDbEntity
  8
0
100
AcDbLine
 10
118.1088437857962
 20
-35.1
 30
0.0
 11
116.1088437857962
 21
-35.1
 31
0.0
  0
LINE
  5
1F5A
330
71A8
100
AcDbEntity
  8
0
100
AcDbLine
 10
-10.00000000000001
 20
-43.85
 30
0.0
 11
-8.000000000000009
 21
-43.85
 31
0.0
  0
LINE
  5
26D4
330
71A8
100
AcDbEntity
  8
0
100
AcDbLine
 10
-23.00000000000004
 20
-43.85
 30
0.0
 11
-25.00000000000004
 21
-43.85
 31
0.0
  0
LINE
  5
2768
330
71A8
100
AcDbEntity
  8
0
100
AcDbLine
 10
131.1088437857962
 20
-43.85
 30
0.0
 11
133.1088437857962
 21
-43.85
 31
0.0
  0
LINE
  5
2769
330
71A8
100
AcDbEntity
  8
0
100
AcDbLine
 10
118.1088437857962
 20
-43.85
 30
0.0
 11
116.1088437857962
 21
-43.85
 31
0.0
  0
LINE
  5
1F5B
330
71A8
100
AcDbEntity
  8
0
100
AcDbLine
 10
-10.00000000000001
 20
-52.65000000000001
 30
0.0
 11
-8.00000000000001
 21
-52.65000000000001
 31
0.0
  0
LINE
  5
26D5
330
71A8
100
AcDbEntity
  8
0
100
AcDbLine
 10
-23.00000000000004
 20
-52.65000000000001
 30
0.0
 11
-25.00000000000004
 21
-52.65000000000001
 31
0.0
  0
LINE
  5
276A
330
71A8
100
AcDbEntity
  8
0
100
AcDbLine
 10
131.1088437857962
 20
-52.65000000000001
 30
0.0
 11
133.1088437857962
 21
-52.65000000000001
 31
0.0
  0
LINE
  5
276B
330
71A8
100
AcDbEntity
  8
0
100
AcDbLine
 10
118.1088437857962
 20
-52.65000000000001
 30
0.0
 11
116.1088437857962
 21
-52.65000000000001
 31
0.0
  0
LINE
  5
1F5C
330
71A8
100
AcDbEntity
  8
0
100
AcDbLine
 10
-10.00000000000002
 20
-61.40000000000001
 30
0.0
 11
-8.000000000000012
 21
-61.40000000000001
 31
0.0
  0
LINE
  5
26D6
330
71A8
100
AcDbEntity
  8
0
100
AcDbLine
 10
-23.00000000000001
 20
-61.40000000000001
 30
0.0
 11
-25.00000000000004
 21
-61.40000000000001
 31
0.0
  0
LINE
  5
276C
330
71A8
100
AcDbEntity
  8
0
100
AcDbLine
 10
131.1088437857962
 20
-61.40000000000001
 30
0.0
 11
133.1088437857962
 21
-61.40000000000001
 31
0.0
  0
LINE
  5
276D
330
71A8
100
AcDbEntity
  8
0
100
AcDbLine
 10
118.1088437857962
 20
-61.40000000000001
 30
0.0
 11
116.1088437857962
 21
-61.40000000000001
 31
0.0
  0
LINE
  5
4B5
330
71A8
100
AcDbEntity
  8
0
100
AcDbLine
 10
-8.000000000000007
 20
-35.1
 30
0.0
 11
-8.000000000000007
 21
-43.85
 31
0.0
  0
LINE
  5
26D7
330
71A8
100
AcDbEntity
  8
0
100
AcDbLine
 10
-25.00000000000004
 20
-35.1
 30
0.0
 11
-25.00000000000004
 21
-43.85
 31
0.0
  0
LINE
  5
276E
330
71A8
100
AcDbEntity
  8
0
100
AcDbLine
 10
133.1088437857962
 20
-35.1
 30
0.0
 11
133.1088437857962
 21
-43.85
 31
0.0
  0
LINE
  5
276F
330
71A8
100
AcDbEntity
  8
0
100
AcDbLine
 10
116.1088437857962
 20
-35.1
 30
0.0
 11
116.1088437857962
 21
-43.85
 31
0.0
  0
LINE
  5
4B8
330
71A8
100
AcDbEntity
  8
0
100
AcDbLine
 10
-8.000000000000009
 20
-52.65
 30
0.0
 11
-8.000000000000009
 21
-61.39999999999999
 31
0.0
  0
LINE
  5
26D8
330
71A8
100
AcDbEntity
  8
0
100
AcDbLine
 10
-25.00000000000004
 20
-52.65
 30
0.0
 11
-25.00000000000004
 21
-61.39999999999999
 31
0.0
  0
LINE
  5
2770
330
71A8
100
AcDbEntity
  8
0
100
AcDbLine
 10
133.1088437857962
 20
-52.65
 30
0.0
 11
133.1088437857962
 21
-61.39999999999999
 31
0.0
  0
LINE
  5
2771
330
71A8
100
AcDbEntity
  8
0
100
AcDbLine
 10
116.1088437857962
 20
-52.65
 30
0.0
 11
116.1088437857962
 21
-61.39999999999999
 31
0.0
  0
LINE
  5
4C9
330
71A8
100
AcDbEntity
  8
0
100
AcDbLine
 10
-10.0
 20
-8.749999999999998
 30
0.0
 11
-10.0
 21
-17.5
 31
0.0
  0
LINE
  5
26D9
330
71A8
100
AcDbEntity
  8
0
100
AcDbLine
 10
-23.00000000000004
 20
-8.75
 30
0.0
 11
-23.00000000000004
 21
-17.5
 31
0.0
  0
LINE
  5
2772
330
71A8
100
AcDbEntity
  8
0
100
AcDbLine
 10
131.1088437857962
 20
-8.75
 30
0.0
 11
131.1088437857962
 21
-17.5
 31
0.0
  0
LINE
  5
2773
330
71A8
100
AcDbEntity
  8
0
100
AcDbLine
 10
118.1088437857962
 20
-8.75
 30
0.0
 11
118.1088437857962
 21
-17.5
 31
0.0
  0
LINE
  5
4CA
330
71A8
100
AcDbEntity
  8
0
100
AcDbLine
 10
-10.0
 20
-26.3
 30
0.0
 11
-10.00000000000001
 21
-35.1
 31
0.0
  0
LINE
  5
26DA
330
71A8
100
AcDbEntity
  8
0
100
AcDbLine
 10
-23.00000000000004
 20
-26.3
 30
0.0
 11
-23.00000000000004
 21
-35.1
 31
0.0
  0
LINE
  5
2774
330
71A8
100
AcDbEntity
  8
0
100
AcDbLine
 10
131.1088437857962
 20
-26.3
 30
0.0
 11
131.1088437857962
 21
-35.1
 31
0.0
  0
LINE
  5
2775
330
71A8
100
AcDbEntity
  8
0
100
AcDbLine
 10
118.1088437857962
 20
-26.3
 30
0.0
 11
118.1088437857962
 21
-35.1
 31
0.0
  0
LINE
  5
4CD
330
71A8
100
AcDbEntity
  8
0
100
AcDbLine
 10
-10.00000000000001
 20
-52.65000000000001
 30
0.0
 11
-10.00000000000001
 21
-43.84999999999999
 31
0.0
  0
LINE
  5
26DB
330
71A8
100
AcDbEntity
  8
0
100
AcDbLine
 10
-23.00000000000004
 20
-52.65000000000001
 30
0.0
 11
-23.00000000000004
 21
-43.84999999999999
 31
0.0
  0
LINE
  5
2776
330
71A8
100
AcDbEntity
  8
0
100
AcDbLine
 10
131.1088437857962
 20
-52.65000000000001
 30
0.0
 11
131.1088437857962
 21
-43.84999999999999
 31
0.0
  0
LINE
  5
2777
330
71A8
100
AcDbEntity
  8
0
100
AcDbLine
 10
118.1088437857962
 20
-52.65000000000001
 30
0.0
 11
118.1088437857962
 21
-43.84999999999999
 31
0.0
  0
LINE
  5
4CE
330
71A8
100
AcDbEntity
  8
0
100
AcDbLine
 10
-10.00000000000001
 20
-70.0
 30
0.0
 11
-10.00000000000001
 21
-61.40000000000001
 31
0.0
  0
LINE
  5
26DC
330
71A8
100
AcDbEntity
  8
0
100
AcDbLine
 10
-23.00000000000001
 20
-70.0
 30
0.0
 11
-23.00000000000001
 21
-61.40000000000001
 31
0.0
  0
LINE
  5
2778
330
71A8
100
AcDbEntity
  8
0
100
AcDbLine
 10
131.1088437857962
 20
-70.0
 30
0.0
 11
131.1088437857962
 21
-61.40000000000001
 31
0.0
  0
LINE
  5
2779
330
71A8
100
AcDbEntity
  8
0
100
AcDbLine
 10
118.1088437857962
 20
-70.0
 30
0.0
 11
118.1088437857962
 21
-61.40000000000001
 31
0.0
  0
LINE
  5
5D3
330
71A8
100
AcDbEntity
  8
0
100
AcDbLine
 10
9.894000000000002
 20
5.0
 30
0.0
 11
9.894
 21
3.0
 31
0.0
  0
LINE
  5
32E1
330
71A8
100
AcDbEntity
  8
0
100
AcDbLine
 10
9.894000000000004
 20
18.00000000000017
 30
0.0
 11
9.894000000000004
 21
19.99999999999986
 31
0.0
  0
LINE
  5
3326
330
71A8
100
AcDbEntity
  8
0
100
AcDbLine
 10
9.894000000000002
 20
-87.99999999999999
 30
0.0
 11
9.894
 21
-89.99999999999999
 31
0.0
  0
LINE
  5
3327
330
71A8
100
AcDbEntity
  8
0
100
AcDbLine
 10
9.894000000000004
 20
-74.99999999999982
 30
0.0
 11
9.894000000000004
 21
-73.00000000000011
 31
0.0
  0
LINE
  5
5D4
330
71A8
100
AcDbEntity
  8
0
100
AcDbLine
 10
9.894
 20
3.0
 30
0.0
 11
19.833
 21
3.0
 31
0.0
  0
LINE
  5
32E2
330
71A8
100
AcDbEntity
  8
0
100
AcDbLine
 10
9.894000000000004
 20
19.99999999999986
 30
0.0
 11
19.833
 21
20.00000000000004
 31
0.0
  0
LINE
  5
3328
330
71A8
100
AcDbEntity
  8
0
100
AcDbLine
 10
9.894
 20
-89.99999999999999
 30
0.0
 11
19.833
 21
-89.99999999999999
 31
0.0
  0
LINE
  5
3329
330
71A8
100
AcDbEntity
  8
0
100
AcDbLine
 10
9.894000000000004
 20
-73.00000000000011
 30
0.0
 11
19.833
 21
-72.99999999999994
 31
0.0
  0
LINE
  5
5D5
330
71A8
100
AcDbEntity
  8
0
100
AcDbLine
 10
19.833
 20
3.0
 30
0.0
 11
19.833
 21
5.0
 31
0.0
  0
LINE
  5
32E3
330
71A8
100
AcDbEntity
  8
0
100
AcDbLine
 10
19.833
 20
20.00000000000004
 30
0.0
 11
19.833
 21
17.99999999999999
 31
0.0
  0
LINE
  5
332A
330
71A8
100
AcDbEntity
  8
0
100
AcDbLine
 10
19.833
 20
-89.99999999999999
 30
0.0
 11
19.833
 21
-87.99999999999999
 31
0.0
  0
LINE
  5
332B
330
71A8
100
AcDbEntity
  8
0
100
AcDbLine
 10
19.833
 20
-72.99999999999994
 30
0.0
 11
19.833
 21
-75.0
 31
0.0
  0
LINE
  5
5D6
330
71A8
100
AcDbEntity
  8
0
100
AcDbLine
 10
29.712
 20
5.0
 30
0.0
 11
29.712
 21
3.0
 31
0.0
  0
LINE
  5
32E4
330
71A8
100
AcDbEntity
  8
0
100
AcDbLine
 10
29.712
 20
18.00000000000004
 30
0.0
 11
29.712
 21
20.0
 31
0.0
  0
LINE
  5
332C
330
71A8
100
AcDbEntity
  8
0
100
AcDbLine
 10
29.712
 20
-87.99999999999999
 30
0.0
 11
29.712
 21
-89.99999999999999
 31
0.0
  0
LINE
  5
332D
330
71A8
100
AcDbEntity
  8
0
100
AcDbLine
 10
29.712
 20
-74.99999999999994
 30
0.0
 11
29.712
 21
-72.99999999999999
 31
0.0
  0
LINE
  5
5D7
330
71A8
100
AcDbEntity
  8
0
100
AcDbLine
 10
29.712
 20
3.0
 30
0.0
 11
39.651
 21
3.0
 31
0.0
  0
LINE
  5
32E5
330
71A8
100
AcDbEntity
  8
0
100
AcDbLine
 10
29.712
 20
20.0
 30
0.0
 11
39.651
 21
20.00000000000003
 31
0.0
  0
LINE
  5
332E
330
71A8
100
AcDbEntity
  8
0
100
AcDbLine
 10
29.712
 20
-89.99999999999999
 30
0.0
 11
39.651
 21
-89.99999999999999
 31
0.0
  0
LINE
  5
332F
330
71A8
100
AcDbEntity
  8
0
100
AcDbLine
 10
29.712
 20
-72.99999999999999
 30
0.0
 11
39.651
 21
-72.99999999999996
 31
0.0
  0
LINE
  5
5D8
330
71A8
100
AcDbEntity
  8
0
100
AcDbLine
 10
39.651
 20
3.0
 30
0.0
 11
39.651
 21
5.0
 31
0.0
  0
LINE
  5
32E6
330
71A8
100
AcDbEntity
  8
0
100
AcDbLine
 10
39.651
 20
20.00000000000003
 30
0.0
 11
39.651
 21
18.00000000000001
 31
0.0
  0
LINE
  5
3330
330
71A8
100
AcDbEntity
  8
0
100
AcDbLine
 10
39.651
 20
-89.99999999999999
 30
0.0
 11
39.651
 21
-87.99999999999999
 31
0.0
  0
LINE
  5
3331
330
71A8
100
AcDbEntity
  8
0
100
AcDbLine
 10
39.651
 20
-72.99999999999996
 30
0.0
 11
39.651
 21
-74.99999999999997
 31
0.0
  0
LINE
  5
5D9
330
71A8
100
AcDbEntity
  8
0
100
AcDbLine
 10
49.52999999999999
 20
5.0
 30
0.0
 11
49.52999999999999
 21
3.0
 31
0.0
  0
LINE
  5
32E7
330
71A8
100
AcDbEntity
  8
0
100
AcDbLine
 10
49.52999999999999
 20
18.00000000000002
 30
0.0
 11
49.52999999999999
 21
20.00000000000002
 31
0.0
  0
LINE
  5
3332
330
71A8
100
AcDbEntity
  8
0
100
AcDbLine
 10
49.52999999999999
 20
-87.99999999999999
 30
0.0
 11
49.52999999999999
 21
-89.99999999999999
 31
0.0
  0
LINE
  5
3333
330
71A8
100
AcDbEntity
  8
0
100
AcDbLine
 10
49.52999999999999
 20
-74.99999999999997
 30
0.0
 11
49.52999999999999
 21
-72.99999999999997
 31
0.0
  0
LINE
  5
5DA
330
71A8
100
AcDbEntity
  8
0
100
AcDbLine
 10
49.52999999999999
 20
3.0
 30
0.0
 11
59.46899999999999
 21
3.0
 31
0.0
  0
LINE
  5
32E8
330
71A8
100
AcDbEntity
  8
0
100
AcDbLine
 10
49.52999999999999
 20
20.00000000000002
 30
0.0
 11
59.46899999999999
 21
20.00000000000002
 31
0.0
  0
LINE
  5
3334
330
71A8
100
AcDbEntity
  8
0
100
AcDbLine
 10
49.52999999999999
 20
-89.99999999999999
 30
0.0
 11
59.46899999999999
 21
-89.99999999999999
 31
0.0
  0
LINE
  5
3335
330
71A8
100
AcDbEntity
  8
0
100
AcDbLine
 10
49.52999999999999
 20
-72.99999999999997
 30
0.0
 11
59.46899999999999
 21
-72.99999999999997
 31
0.0
  0
LINE
  5
5DB
330
71A8
100
AcDbEntity
  8
0
100
AcDbLine
 10
59.46899999999999
 20
3.0
 30
0.0
 11
59.46899999999999
 21
5.0
 31
0.0
  0
LINE
  5
32E9
330
71A8
100
AcDbEntity
  8
0
100
AcDbLine
 10
59.46899999999999
 20
20.00000000000002
 30
0.0
 11
59.46899999999999
 21
18.00000000000002
 31
0.0
  0
LINE
  5
3336
330
71A8
100
AcDbEntity
  8
0
100
AcDbLine
 10
59.46899999999999
 20
-89.99999999999999
 30
0.0
 11
59.46899999999999
 21
-87.99999999999999
 31
0.0
  0
LINE
  5
3337
330
71A8
100
AcDbEntity
  8
0
100
AcDbLine
 10
59.46899999999999
 20
-72.99999999999997
 30
0.0
 11
59.46899999999999
 21
-74.99999999999997
 31
0.0
  0
LINE
  5
5DC
330
71A8
100
AcDbEntity
  8
0
100
AcDbLine
 10
69.348
 20
5.0
 30
0.0
 11
69.348
 21
3.0
 31
0.0
  0
LINE
  5
32EA
330
71A8
100
AcDbEntity
  8
0
100
AcDbLine
 10
69.348
 20
18.00000000000003
 30
0.0
 11
69.348
 21
20.00000000000002
 31
0.0
  0
LINE
  5
3338
330
71A8
100
AcDbEntity
  8
0
100
AcDbLine
 10
69.348
 20
-87.99999999999999
 30
0.0
 11
69.348
 21
-89.99999999999999
 31
0.0
  0
LINE
  5
3339
330
71A8
100
AcDbEntity
  8
0
100
AcDbLine
 10
69.348
 20
-74.99999999999996
 30
0.0
 11
69.348
 21
-72.99999999999997
 31
0.0
  0
LINE
  5
5DD
330
71A8
100
AcDbEntity
  8
0
100
AcDbLine
 10
69.348
 20
3.0
 30
0.0
 11
79.287
 21
3.0
 31
0.0
  0
LINE
  5
32EB
330
71A8
100
AcDbEntity
  8
0
100
AcDbLine
 10
69.348
 20
20.00000000000002
 30
0.0
 11
79.287
 21
20.00000000000001
 31
0.0
  0
LINE
  5
333A
330
71A8
100
AcDbEntity
  8
0
100
AcDbLine
 10
69.348
 20
-89.99999999999999
 30
0.0
 11
79.287
 21
-89.99999999999999
 31
0.0
  0
LINE
  5
333B
330
71A8
100
AcDbEntity
  8
0
100
AcDbLine
 10
69.348
 20
-72.99999999999997
 30
0.0
 11
79.287
 21
-72.99999999999997
 31
0.0
  0
LINE
  5
5DE
330
71A8
100
AcDbEntity
  8
0
100
AcDbLine
 10
79.287
 20
3.0
 30
0.0
 11
79.287
 21
5.0
 31
0.0
  0
LINE
  5
32EC
330
71A8
100
AcDbEntity
  8
0
100
AcDbLine
 10
79.287
 20
20.00000000000001
 30
0.0
 11
79.287
 21
18.00000000000004
 31
0.0
  0
LINE
  5
333C
330
71A8
100
AcDbEntity
  8
0
100
AcDbLine
 10
79.287
 20
-89.99999999999999
 30
0.0
 11
79.287
 21
-87.99999999999999
 31
0.0
  0
LINE
  5
333D
330
71A8
100
AcDbEntity
  8
0
100
AcDbLine
 10
79.287
 20
-72.99999999999997
 30
0.0
 11
79.287
 21
-74.99999999999994
 31
0.0
  0
LINE
  5
5DF
330
71A8
100
AcDbEntity
  8
0
100
AcDbLine
 10
89.16600000000001
 20
5.0
 30
0.0
 11
89.16600000000001
 21
3.0
 31
0.0
  0
LINE
  5
32ED
330
71A8
100
AcDbEntity
  8
0
100
AcDbLine
 10
89.16600000000001
 20
18.00000000000007
 30
0.0
 11
89.16600000000001
 21
19.99999999999998
 31
0.0
  0
LINE
  5
333E
330
71A8
100
AcDbEntity
  8
0
100
AcDbLine
 10
89.16600000000001
 20
-87.99999999999999
 30
0.0
 11
89.16600000000001
 21
-89.99999999999999
 31
0.0
  0
LINE
  5
333F
330
71A8
100
AcDbEntity
  8
0
100
AcDbLine
 10
89.16600000000001
 20
-74.99999999999991
 30
0.0
 11
89.16600000000001
 21
-73.0
 31
0.0
  0
LINE
  5
5E0
330
71A8
100
AcDbEntity
  8
0
100
AcDbLine
 10
89.16600000000001
 20
3.0
 30
0.0
 11
99.105
 21
3.0
 31
0.0
  0
LINE
  5
32EE
330
71A8
100
AcDbEntity
  8
0
100
AcDbLine
 10
89.16600000000001
 20
19.99999999999998
 30
0.0
 11
99.105
 21
19.99999999999991
 31
0.0
  0
LINE
  5
3340
330
71A8
100
AcDbEntity
  8
0
100
AcDbLine
 10
89.16600000000001
 20
-89.99999999999999
 30
0.0
 11
99.105
 21
-89.99999999999999
 31
0.0
  0
LINE
  5
3341
330
71A8
100
AcDbEntity
  8
0
100
AcDbLine
 10
89.16600000000001
 20
-73.0
 30
0.0
 11
99.105
 21
-73.00000000000009
 31
0.0
  0
LINE
  5
5E1
330
71A8
100
AcDbEntity
  8
0
100
AcDbLine
 10
99.105
 20
3.0
 30
0.0
 11
99.105
 21
5.0
 31
0.0
  0
LINE
  5
32EF
330
71A8
100
AcDbEntity
  8
0
100
AcDbLine
 10
99.105
 20
19.99999999999991
 30
0.0
 11
99.105
 21
18.00000000000016
 31
0.0
  0
LINE
  5
3342
330
71A8
100
AcDbEntity
  8
0
100
AcDbLine
 10
99.105
 20
-89.99999999999999
 30
0.0
 11
99.105
 21
-87.99999999999999
 31
0.0
  0
LINE
  5
3343
330
71A8
100
AcDbEntity
  8
0
100
AcDbLine
 10
99.105
 20
-73.00000000000009
 30
0.0
 11
99.105
 21
-74.99999999999983
 31
0.0
  0
LINE
  5
5F7
330
71A8
100
AcDbEntity
  8
0
100
AcDbLine
 10
2.499999999999998
 20
5.0
 30
0.0
 11
9.909000000000002
 21
5.0
 31
0.0
  0
LINE
  5
32F0
330
71A8
100
AcDbEntity
  8
0
100
AcDbLine
 10
2.499999999999998
 20
18.0
 30
0.0
 11
9.909000000000004
 21
18.00000000000008
 31
0.0
  0
LINE
  5
3344
330
71A8
100
AcDbEntity
  8
0
100
AcDbLine
 10
2.499999999999998
 20
-87.99999999999999
 30
0.0
 11
9.909000000000002
 21
-87.99999999999999
 31
0.0
  0
LINE
  5
3345
330
71A8
100
AcDbEntity
  8
0
100
AcDbLine
 10
2.499999999999998
 20
-74.99999999999999
 30
0.0
 11
9.909000000000004
 21
-74.99999999999991
 31
0.0
  0
LINE
  5
5F8
330
71A8
100
AcDbEntity
  8
0
100
AcDbLine
 10
19.818
 20
5.0
 30
0.0
 11
29.727
 21
5.0
 31
0.0
  0
LINE
  5
32F1
330
71A8
100
AcDbEntity
  8
0
100
AcDbLine
 10
19.818
 20
18.00000000000007
 30
0.0
 11
29.727
 21
18.00000000000005
 31
0.0
  0
LINE
  5
3346
330
71A8
100
AcDbEntity
  8
0
100
AcDbLine
 10
19.818
 20
-87.99999999999999
 30
0.0
 11
29.727
 21
-87.99999999999999
 31
0.0
  0
LINE
  5
3347
330
71A8
100
AcDbEntity
  8
0
100
AcDbLine
 10
19.818
 20
-74.99999999999991
 30
0.0
 11
29.727
 21
-74.99999999999994
 31
0.0
  0
LINE
  5
5F9
330
71A8
100
AcDbEntity
  8
0
100
AcDbLine
 10
39.636
 20
5.0
 30
0.0
 11
49.54499999999999
 21
5.0
 31
0.0
  0
LINE
  5
32F2
330
71A8
100
AcDbEntity
  8
0
100
AcDbLine
 10
39.636
 20
18.00000000000003
 30
0.0
 11
49.54499999999999
 21
18.00000000000002
 31
0.0
  0
LINE
  5
3348
330
71A8
100
AcDbEntity
  8
0
100
AcDbLine
 10
39.636
 20
-87.99999999999999
 30
0.0
 11
49.54499999999999
 21
-87.99999999999999
 31
0.0
  0
LINE
  5
3349
330
71A8
100
AcDbEntity
  8
0
100
AcDbLine
 10
39.636
 20
-74.99999999999996
 30
0.0
 11
49.54499999999999
 21
-74.99999999999997
 31
0.0
  0
LINE
  5
5FA
330
71A8
100
AcDbEntity
  8
0
100
AcDbLine
 10
59.45399999999999
 20
5.0
 30
0.0
 11
69.363
 21
5.0
 31
0.0
  0
LINE
  5
32F3
330
71A8
100
AcDbEntity
  8
0
100
AcDbLine
 10
59.45399999999999
 20
18.00000000000002
 30
0.0
 11
69.363
 21
18.00000000000004
 31
0.0
  0
LINE
  5
334A
330
71A8
100
AcDbEntity
  8
0
100
AcDbLine
 10
59.45399999999999
 20
-87.99999999999999
 30
0.0
 11
69.363
 21
-87.99999999999999
 31
0.0
  0
LINE
  5
334B
330
71A8
100
AcDbEntity
  8
0
100
AcDbLine
 10
59.45399999999999
 20
-74.99999999999997
 30
0.0
 11
69.363
 21
-74.99999999999994
 31
0.0
  0
LINE
  5
5FB
330
71A8
100
AcDbEntity
  8
0
100
AcDbLine
 10
79.272
 20
5.0
 30
0.0
 11
89.18100000000001
 21
5.0
 31
0.0
  0
LINE
  5
32F4
330
71A8
100
AcDbEntity
  8
0
100
AcDbLine
 10
79.272
 20
17.99999999999998
 30
0.0
 11
89.18100000000001
 21
17.99999999999997
 31
0.0
  0
LINE
  5
334C
330
71A8
100
AcDbEntity
  8
0
100
AcDbLine
 10
79.272
 20
-87.99999999999999
 30
0.0
 11
89.18100000000001
 21
-87.99999999999999
 31
0.0
  0
LINE
  5
334D
330
71A8
100
AcDbEntity
  8
0
100
AcDbLine
 10
79.272
 20
-75.0
 30
0.0
 11
89.18100000000001
 21
-75.00000000000001
 31
0.0
  0
LINE
  5
5FC
330
71A8
100
AcDbEntity
  8
0
100
AcDbLine
 10
99.09
 20
5.0
 30
0.0
 11
106.5
 21
5.0
 31
0.0
  0
LINE
  5
32F5
330
71A8
100
AcDbEntity
  8
0
100
AcDbLine
 10
99.09
 20
18.00000000000011
 30
0.0
 11
106.5
 21
18.0
 31
0.0
  0
LINE
  5
334E
330
71A8
100
AcDbEntity
  8
0
100
AcDbLine
 10
99.09
 20
-87.99999999999999
 30
0.0
 11
106.5
 21
-87.99999999999999
 31
0.0
  0
LINE
  5
334F
330
71A8
100
AcDbEntity
  8
0
100
AcDbLine
 10
99.09
 20
-74.99999999999989
 30
0.0
 11
106.5
 21
-74.99999999999999
 31
0.0
  0
LINE
  5
757
330
71A8
100
AcDbEntity
  8
0
100
AcDbLine
 10
2.499999999999998
 20
5.0
 30
0.0
 11
2.499999999999998
 21
18.0
 31
0.0
  0
LINE
  5
3350
330
71A8
100
AcDbEntity
  8
0
100
AcDbLine
 10
2.499999999999998
 20
-87.99999999999999
 30
0.0
 11
2.499999999999998
 21
-74.99999999999999
 31
0.0
  0
LINE
  5
76B
330
71A8
100
AcDbEntity
  8
0
100
AcDbLine
 10
2.499999999999991
 20
-8.765
 30
0.0
 11
2.499999999999991
 21
0.0
 31
0.0
  0
LINE
  5
3279
330
71A8
100
AcDbEntity
  8
0
100
AcDbLine
 10
-140.7021274463983
 20
-8.765
 30
0.0
 11
-140.7021274463983
 21
0.0
 31
0.0
  0
LINE
  5
3127
330
71A8
100
AcDbEntity
  8
0
100
AcDbLine
 10
106.5
 20
-8.765
 30
0.0
 11
106.5
 21
0.0
 31
0.0
  0
LINE
  5
327A
330
71A8
100
AcDbEntity
  8
0
100
AcDbLine
 10
-36.70212744639824
 20
-8.765
 30
0.0
 11
-36.70212744639824
 21
0.0
 31
0.0
  0
LINE
  5
76C
330
71A8
100
AcDbEntity
  8
0
100
AcDbLine
 10
2.499999999999991
 20
-8.774999999999999
 30
0.0
 11
2.499999999999991
 21
-8.774999999999999
 31
0.0
  0
LINE
  5
327B
330
71A8
100
AcDbEntity
  8
0
100
AcDbLine
 10
-140.7021274463983
 20
-8.774999999999999
 30
0.0
 11
-140.7021274463983
 21
-8.774999999999999
 31
0.0
  0
LINE
  5
3128
330
71A8
100
AcDbEntity
  8
0
100
AcDbLine
 10
106.5
 20
-8.774999999999999
 30
0.0
 11
106.5
 21
-8.774999999999999
 31
0.0
  0
LINE
  5
327C
330
71A8
100
AcDbEntity
  8
0
100
AcDbLine
 10
-36.70212744639824
 20
-8.774999999999999
 30
0.0
 11
-36.70212744639824
 21
-8.774999999999999
 31
0.0
  0
LINE
  5
76D
330
71A8
100
AcDbEntity
  8
0
100
AcDbLine
 10
2.499999999999991
 20
-8.774999999999999
 30
0.0
 11
2.499999999999991
 21
-8.774999999999999
 31
0.0
  0
LINE
  5
327D
330
71A8
100
AcDbEntity
  8
0
100
AcDbLine
 10
-140.7021274463983
 20
-8.774999999999999
 30
0.0
 11
-140.7021274463983
 21
-8.774999999999999
 31
0.0
  0
LINE
  5
3129
330
71A8
100
AcDbEntity
  8
0
100
AcDbLine
 10
106.5
 20
-8.774999999999999
 30
0.0
 11
106.5
 21
-8.774999999999999
 31
0.0
  0
LINE
  5
327E
330
71A8
100
AcDbEntity
  8
0
100
AcDbLine
 10
-36.70212744639824
 20
-8.774999999999999
 30
0.0
 11
-36.70212744639824
 21
-8.774999999999999
 31
0.0
  0
LINE
  5
76E
330
71A8
100
AcDbEntity
  8
0
100
AcDbLine
 10
2.499999999999991
 20
-8.774999999999999
 30
0.0
 11
2.499999999999991
 21
-8.774999999999999
 31
0.0
  0
LINE
  5
327F
330
71A8
100
AcDbEntity
  8
0
100
AcDbLine
 10
-140.7021274463983
 20
-8.774999999999999
 30
0.0
 11
-140.7021274463983
 21
-8.774999999999999
 31
0.0
  0
LINE
  5
312A
330
71A8
100
AcDbEntity
  8
0
100
AcDbLine
 10
106.5
 20
-8.774999999999999
 30
0.0
 11
106.5
 21
-8.774999999999999
 31
0.0
  0
LINE
  5
3280
330
71A8
100
AcDbEntity
  8
0
100
AcDbLine
 10
-36.70212744639824
 20
-8.774999999999999
 30
0.0
 11
-36.70212744639824
 21
-8.774999999999999
 31
0.0
  0
LINE
  5
859
330
71A8
100
AcDbEntity
  8
0
100
AcDbLine
 10
0.4999999999999985
 20
-8.76
 30
0.0
 11
0.499999999999991
 21
-17.54
 31
0.0
  0
LINE
  5
3281
330
71A8
100
AcDbEntity
  8
0
100
AcDbLine
 10
-142.7021274463982
 20
-8.76
 30
0.0
 11
-142.7021274463983
 21
-17.54
 31
0.0
  0
LINE
  5
312B
330
71A8
100
AcDbEntity
  8
0
100
AcDbLine
 10
108.5
 20
-8.759999999999998
 30
0.0
 11
108.5
 21
-17.54
 31
0.0
  0
LINE
  5
3282
330
71A8
100
AcDbEntity
  8
0
100
AcDbLine
 10
-34.70212744639824
 20
-8.759999999999998
 30
0.0
 11
-34.70212744639824
 21
-17.54
 31
0.0
  0
LINE
  5
85A
330
71A8
100
AcDbEntity
  8
0
100
AcDbLine
 10
2.499999999999989
 20
-17.555
 30
0.0
 11
2.499999999999991
 21
-26.31499999999999
 31
0.0
  0
LINE
  5
3283
330
71A8
100
AcDbEntity
  8
0
100
AcDbLine
 10
-140.7021274463983
 20
-17.555
 30
0.0
 11
-140.7021274463983
 21
-26.31499999999999
 31
0.0
  0
LINE
  5
312C
330
71A8
100
AcDbEntity
  8
0
100
AcDbLine
 10
106.5
 20
-17.555
 30
0.0
 11
106.5
 21
-26.31499999999999
 31
0.0
  0
LINE
  5
3284
330
71A8
100
AcDbEntity
  8
0
100
AcDbLine
 10
-36.70212744639824
 20
-17.555
 30
0.0
 11
-36.70212744639824
 21
-26.31499999999999
 31
0.0
  0
LINE
  5
85B
330
71A8
100
AcDbEntity
  8
0
100
AcDbLine
 10
0.4999999999999953
 20
-26.31
 30
0.0
 11
0.4999999999999921
 21
-35.09
 31
0.0
  0
LINE
  5
3285
330
71A8
100
AcDbEntity
  8
0
100
AcDbLine
 10
-142.7021274463982
 20
-26.31
 30
0.0
 11
-142.7021274463983
 21
-35.09
 31
0.0
  0
LINE
  5
312D
330
71A8
100
AcDbEntity
  8
0
100
AcDbLine
 10
108.5
 20
-26.31
 30
0.0
 11
108.5
 21
-35.09
 31
0.0
  0
LINE
  5
3286
330
71A8
100
AcDbEntity
  8
0
100
AcDbLine
 10
-34.70212744639824
 20
-26.31
 30
0.0
 11
-34.70212744639824
 21
-35.09
 31
0.0
  0
LINE
  5
85C
330
71A8
100
AcDbEntity
  8
0
100
AcDbLine
 10
2.499999999999992
 20
-35.085
 30
0.0
 11
2.499999999999992
 21
-43.86500000000001
 31
0.0
  0
LINE
  5
70A8
330
71A8
100
AcDbEntity
  8
0
100
AcDbLine
 10
-140.7021274463983
 20
-35.085
 30
0.0
 11
-140.7021274463983
 21
-43.86500000000001
 31
0.0
  0
LINE
  5
3287
330
71A8
100
AcDbEntity
  8
0
100
AcDbLine
 10
-140.7021274463983
 20
-35.085
 30
0.0
 11
-140.7021274463983
 21
-43.86500000000001
 31
0.0
  0
LINE
  5
312E
330
71A8
100
AcDbEntity
  8
0
100
AcDbLine
 10
106.5
 20
-35.085
 30
0.0
 11
106.5
 21
-43.86500000000001
 31
0.0
  0
LINE
  5
70A9
330
71A8
100
AcDbEntity
  8
0
100
AcDbLine
 10
-36.70212744639824
 20
-35.085
 30
0.0
 11
-36.70212744639824
 21
-43.86500000000001
 31
0.0
  0
LINE
  5
3288
330
71A8
100
AcDbEntity
  8
0
100
AcDbLine
 10
-36.70212744639824
 20
-35.085
 30
0.0
 11
-36.70212744639824
 21
-43.86500000000001
 31
0.0
  0
LINE
  5
85D
330
71A8
100
AcDbEntity
  8
0
100
AcDbLine
 10
0.4999999999999944
 20
-43.86
 30
0.0
 11
0.4999999999999936
 21
-52.64
 31
0.0
  0
LINE
  5
3289
330
71A8
100
AcDbEntity
  8
0
100
AcDbLine
 10
-142.7021274463982
 20
-43.86
 30
0.0
 11
-142.7021274463982
 21
-52.64
 31
0.0
  0
LINE
  5
312F
330
71A8
100
AcDbEntity
  8
0
100
AcDbLine
 10
108.5
 20
-43.86
 30
0.0
 11
108.5
 21
-52.64
 31
0.0
  0
LINE
  5
328A
330
71A8
100
AcDbEntity
  8
0
100
AcDbLine
 10
-34.70212744639824
 20
-43.86
 30
0.0
 11
-34.70212744639824
 21
-52.64
 31
0.0
  0
LINE
  5
85E
330
71A8
100
AcDbEntity
  8
0
100
AcDbLine
 10
2.499999999999994
 20
-52.635
 30
0.0
 11
2.499999999999995
 21
-61.41500000000001
 31
0.0
  0
LINE
  5
328B
330
71A8
100
AcDbEntity
  8
0
100
AcDbLine
 10
-140.7021274463982
 20
-52.635
 30
0.0
 11
-140.7021274463982
 21
-61.41500000000001
 31
0.0
  0
LINE
  5
3130
330
71A8
100
AcDbEntity
  8
0
100
AcDbLine
 10
106.5
 20
-52.635
 30
0.0
 11
106.5
 21
-61.41500000000001
 31
0.0
  0
LINE
  5
328C
330
71A8
100
AcDbEntity
  8
0
100
AcDbLine
 10
-36.70212744639824
 20
-52.635
 30
0.0
 11
-36.70212744639824
 21
-61.41500000000001
 31
0.0
  0
LINE
  5
85F
330
71A8
100
AcDbEntity
  8
0
100
AcDbLine
 10
0.4999999999999944
 20
-61.41
 30
0.0
 11
0.4999999999999873
 21
-70.0
 31
0.0
  0
LINE
  5
328D
330
71A8
100
AcDbEntity
  8
0
100
AcDbLine
 10
-142.7021274463982
 20
-61.41
 30
0.0
 11
-142.7021274463983
 21
-70.0
 31
0.0
  0
LINE
  5
3131
330
71A8
100
AcDbEntity
  8
0
100
AcDbLine
 10
108.5
 20
-61.41
 30
0.0
 11
108.5
 21
-70.0
 31
0.0
  0
LINE
  5
328E
330
71A8
100
AcDbEntity
  8
0
100
AcDbLine
 10
-34.70212744639824
 20
-61.41
 30
0.0
 11
-34.70212744639824
 21
-70.0
 31
0.0
  0
LINE
  5
885
330
71A8
100
AcDbEntity
  8
0
100
AcDbLine
 10
106.5
 20
18.0
 30
0.0
 11
106.5
 21
5.0
 31
0.0
  0
LINE
  5
3351
330
71A8
100
AcDbEntity
  8
0
100
AcDbLine
 10
106.5
 20
-74.99999999999999
 30
0.0
 11
106.5
 21
-87.99999999999999
 31
0.0
  0
LINE
  5
A97
330
71A8
100
AcDbEntity
  8
0
100
AcDbLine
 10
9.884
 20
0.0
 30
0.0
 11
9.884
 21
-2.0
 31
0.0
  0
LINE
  5
328F
330
71A8
100
AcDbEntity
  8
0
100
AcDbLine
 10
-133.3181274463983
 20
0.0
 30
0.0
 11
-133.3181274463983
 21
-2.0
 31
0.0
  0
LINE
  5
A98
330
71A8
100
AcDbEntity
  8
0
100
AcDbLine
 10
9.884
 20
-2.0
 30
0.0
 11
19.843
 21
-2.0
 31
0.0
  0
LINE
  5
3290
330
71A8
100
AcDbEntity
  8
0
100
AcDbLine
 10
-133.3181274463983
 20
-2.0
 30
0.0
 11
-123.3591274463982
 21
-2.0
 31
0.0
  0
LINE
  5
A99
330
71A8
100
AcDbEntity
  8
0
100
AcDbLine
 10
19.843
 20
-2.0
 30
0.0
 11
19.843
 21
0.0
 31
0.0
  0
LINE
  5
3291
330
71A8
100
AcDbEntity
  8
0
100
AcDbLine
 10
-123.3591274463982
 20
-2.0
 30
0.0
 11
-123.3591274463982
 21
0.0
 31
0.0
  0
LINE
  5
A9A
330
71A8
100
AcDbEntity
  8
0
100
AcDbLine
 10
29.702
 20
0.0
 30
0.0
 11
29.702
 21
-2.0
 31
0.0
  0
LINE
  5
3292
330
71A8
100
AcDbEntity
  8
0
100
AcDbLine
 10
-113.5001274463982
 20
0.0
 30
0.0
 11
-113.5001274463982
 21
-2.0
 31
0.0
  0
LINE
  5
A9B
330
71A8
100
AcDbEntity
  8
0
100
AcDbLine
 10
29.702
 20
-2.0
 30
0.0
 11
39.66099999999999
 21
-2.0
 31
0.0
  0
LINE
  5
3293
330
71A8
100
AcDbEntity
  8
0
100
AcDbLine
 10
-113.5001274463982
 20
-2.0
 30
0.0
 11
-103.5411274463982
 21
-2.0
 31
0.0
  0
LINE
  5
A9C
330
71A8
100
AcDbEntity
  8
0
100
AcDbLine
 10
39.66099999999999
 20
-2.0
 30
0.0
 11
39.66099999999999
 21
0.0
 31
0.0
  0
LINE
  5
3294
330
71A8
100
AcDbEntity
  8
0
100
AcDbLine
 10
-103.5411274463982
 20
-2.0
 30
0.0
 11
-103.5411274463982
 21
0.0
 31
0.0
  0
LINE
  5
A9D
330
71A8
100
AcDbEntity
  8
0
100
AcDbLine
 10
49.51999999999998
 20
0.0
 30
0.0
 11
49.51999999999998
 21
-2.0
 31
0.0
  0
LINE
  5
3295
330
71A8
100
AcDbEntity
  8
0
100
AcDbLine
 10
-93.68212744639825
 20
0.0
 30
0.0
 11
-93.68212744639825
 21
-2.0
 31
0.0
  0
LINE
  5
A9E
330
71A8
100
AcDbEntity
  8
0
100
AcDbLine
 10
49.51999999999998
 20
-2.0
 30
0.0
 11
59.47900000000001
 21
-2.0
 31
0.0
  0
LINE
  5
3296
330
71A8
100
AcDbEntity
  8
0
100
AcDbLine
 10
-93.68212744639825
 20
-2.0
 30
0.0
 11
-83.72312744639822
 21
-2.0
 31
0.0
  0
LINE
  5
A9F
330
71A8
100
AcDbEntity
  8
0
100
AcDbLine
 10
59.47900000000001
 20
-2.0
 30
0.0
 11
59.47900000000001
 21
0.0
 31
0.0
  0
LINE
  5
3297
330
71A8
100
AcDbEntity
  8
0
100
AcDbLine
 10
-83.72312744639822
 20
-2.0
 30
0.0
 11
-83.72312744639822
 21
0.0
 31
0.0
  0
LINE
  5
AA0
330
71A8
100
AcDbEntity
  8
0
100
AcDbLine
 10
69.338
 20
0.0
 30
0.0
 11
69.338
 21
-2.0
 31
0.0
  0
LINE
  5
3298
330
71A8
100
AcDbEntity
  8
0
100
AcDbLine
 10
-73.86412744639824
 20
0.0
 30
0.0
 11
-73.86412744639824
 21
-2.0
 31
0.0
  0
LINE
  5
AA1
330
71A8
100
AcDbEntity
  8
0
100
AcDbLine
 10
69.338
 20
-2.0
 30
0.0
 11
79.29700000000001
 21
-2.0
 31
0.0
  0
LINE
  5
3299
330
71A8
100
AcDbEntity
  8
0
100
AcDbLine
 10
-73.86412744639824
 20
-2.0
 30
0.0
 11
-63.90512744639823
 21
-2.0
 31
0.0
  0
LINE
  5
AA2
330
71A8
100
AcDbEntity
  8
0
100
AcDbLine
 10
79.29700000000001
 20
-2.0
 30
0.0
 11
79.29700000000001
 21
0.0
 31
0.0
  0
LINE
  5
329A
330
71A8
100
AcDbEntity
  8
0
100
AcDbLine
 10
-63.90512744639823
 20
-2.0
 30
0.0
 11
-63.90512744639823
 21
0.0
 31
0.0
  0
LINE
  5
AA3
330
71A8
100
AcDbEntity
  8
0
100
AcDbLine
 10
89.15599999999999
 20
0.0
 30
0.0
 11
89.15599999999999
 21
-2.0
 31
0.0
  0
LINE
  5
329B
330
71A8
100
AcDbEntity
  8
0
100
AcDbLine
 10
-54.04612744639824
 20
0.0
 30
0.0
 11
-54.04612744639824
 21
-2.0
 31
0.0
  0
LINE
  5
AA4
330
71A8
100
AcDbEntity
  8
0
100
AcDbLine
 10
89.15599999999999
 20
-2.0
 30
0.0
 11
99.11500000000001
 21
-2.0
 31
0.0
  0
LINE
  5
329C
330
71A8
100
AcDbEntity
  8
0
100
AcDbLine
 10
-54.04612744639824
 20
-2.0
 30
0.0
 11
-44.08712744639823
 21
-2.0
 31
0.0
  0
LINE
  5
AA5
330
71A8
100
AcDbEntity
  8
0
100
AcDbLine
 10
99.11500000000001
 20
-2.0
 30
0.0
 11
99.11500000000001
 21
0.0
 31
0.0
  0
LINE
  5
329D
330
71A8
100
AcDbEntity
  8
0
100
AcDbLine
 10
-44.08712744639823
 20
-2.0
 30
0.0
 11
-44.08712744639823
 21
0.0
 31
0.0
  0
LINE
  5
AA6
330
71A8
100
AcDbEntity
  8
0
100
AcDbLine
 10
106.5
 20
0.0
 30
0.0
 11
99.11500000000001
 21
0.0
 31
0.0
  0
LINE
  5
329E
330
71A8
100
AcDbEntity
  8
0
100
AcDbLine
 10
-36.70212744639824
 20
0.0
 30
0.0
 11
-44.08712744639823
 21
0.0
 31
0.0
  0
LINE
  5
AA7
330
71A8
100
AcDbEntity
  8
0
100
AcDbLine
 10
89.15599999999999
 20
0.0
 30
0.0
 11
79.29700000000001
 21
0.0
 31
0.0
  0
LINE
  5
329F
330
71A8
100
AcDbEntity
  8
0
100
AcDbLine
 10
-54.04612744639824
 20
0.0
 30
0.0
 11
-63.90512744639823
 21
0.0
 31
0.0
  0
LINE
  5
AA8
330
71A8
100
AcDbEntity
  8
0
100
AcDbLine
 10
69.338
 20
0.0
 30
0.0
 11
59.47900000000001
 21
0.0
 31
0.0
  0
LINE
  5
32A0
330
71A8
100
AcDbEntity
  8
0
100
AcDbLine
 10
-73.86412744639824
 20
0.0
 30
0.0
 11
-83.72312744639822
 21
0.0
 31
0.0
  0
LINE
  5
AA9
330
71A8
100
AcDbEntity
  8
0
100
AcDbLine
 10
49.51999999999998
 20
0.0
 30
0.0
 11
39.66099999999999
 21
0.0
 31
0.0
  0
LINE
  5
32A1
330
71A8
100
AcDbEntity
  8
0
100
AcDbLine
 10
-93.68212744639825
 20
0.0
 30
0.0
 11
-103.5411274463982
 21
0.0
 31
0.0
  0
LINE
  5
AAA
330
71A8
100
AcDbEntity
  8
0
100
AcDbLine
 10
29.702
 20
0.0
 30
0.0
 11
19.843
 21
0.0
 31
0.0
  0
LINE
  5
32A2
330
71A8
100
AcDbEntity
  8
0
100
AcDbLine
 10
-113.5001274463982
 20
0.0
 30
0.0
 11
-123.3591274463982
 21
0.0
 31
0.0
  0
LINE
  5
AAB
330
71A8
100
AcDbEntity
  8
0
100
AcDbLine
 10
9.884
 20
0.0
 30
0.0
 11
2.499999999999991
 21
0.0
 31
0.0
  0
LINE
  5
32A3
330
71A8
100
AcDbEntity
  8
0
100
AcDbLine
 10
-133.3181274463983
 20
0.0
 30
0.0
 11
-140.7021274463983
 21
0.0
 31
0.0
  0
LINE
  5
AAD
330
71A8
100
AcDbEntity
  8
0
100
AcDbLine
 10
89.15599999999999
 20
-59.37491599999992
 30
0.0
 11
99.11500000000001
 21
-59.37491599999992
 31
0.0
  0
LINE
  5
32A4
330
71A8
100
AcDbEntity
  8
0
100
AcDbLine
 10
-54.04612744639824
 20
-59.37491599999992
 30
0.0
 11
-44.08712744639823
 21
-59.37491599999992
 31
0.0
  0
LINE
  5
AAE
330
71A8
100
AcDbEntity
  8
0
100
AcDbLine
 10
99.11500000000001
 20
-59.37491599999992
 30
0.0
 11
99.11500000000001
 21
-61.42491599999993
 31
0.0
  0
LINE
  5
32A5
330
71A8
100
AcDbEntity
  8
0
100
AcDbLine
 10
-44.08712744639823
 20
-59.37491599999992
 30
0.0
 11
-44.08712744639823
 21
-61.42491599999993
 31
0.0
  0
LINE
  5
AAF
330
71A8
100
AcDbEntity
  8
0
100
AcDbLine
 10
99.11500000000001
 20
-61.42491599999993
 30
0.0
 11
89.15599999999999
 21
-61.42491599999993
 31
0.0
  0
LINE
  5
32A6
330
71A8
100
AcDbEntity
  8
0
100
AcDbLine
 10
-44.08712744639823
 20
-61.42491599999993
 30
0.0
 11
-54.04612744639824
 21
-61.42491599999993
 31
0.0
  0
LINE
  5
AB0
330
71A8
100
AcDbEntity
  8
0
100
AcDbLine
 10
89.15599999999999
 20
-61.42491599999993
 30
0.0
 11
89.15599999999999
 21
-59.37491599999992
 31
0.0
  0
LINE
  5
32A7
330
71A8
100
AcDbEntity
  8
0
100
AcDbLine
 10
-54.04612744639824
 20
-61.42491599999993
 30
0.0
 11
-54.04612744639824
 21
-59.37491599999992
 31
0.0
  0
LINE
  5
AB1
330
71A8
100
AcDbEntity
  8
0
100
AcDbLine
 10
79.297
 20
-59.37491599999992
 30
0.0
 11
69.338
 21
-59.37491599999992
 31
0.0
  0
LINE
  5
32A8
330
71A8
100
AcDbEntity
  8
0
100
AcDbLine
 10
-63.90512744639824
 20
-59.37491599999992
 30
0.0
 11
-73.86412744639824
 21
-59.37491599999992
 31
0.0
  0
LINE
  5
AB2
330
71A8
100
AcDbEntity
  8
0
100
AcDbLine
 10
69.338
 20
-59.37491599999992
 30
0.0
 11
69.338
 21
-61.42491599999993
 31
0.0
  0
LINE
  5
32A9
330
71A8
100
AcDbEntity
  8
0
100
AcDbLine
 10
-73.86412744639824
 20
-59.37491599999992
 30
0.0
 11
-73.86412744639824
 21
-61.42491599999993
 31
0.0
  0
LINE
  5
AB3
330
71A8
100
AcDbEntity
  8
0
100
AcDbLine
 10
69.338
 20
-61.42491599999993
 30
0.0
 11
79.297
 21
-61.42491599999993
 31
0.0
  0
LINE
  5
32AA
330
71A8
100
AcDbEntity
  8
0
100
AcDbLine
 10
-73.86412744639824
 20
-61.42491599999993
 30
0.0
 11
-63.90512744639824
 21
-61.42491599999993
 31
0.0
  0
LINE
  5
AB4
330
71A8
100
AcDbEntity
  8
0
100
AcDbLine
 10
79.297
 20
-61.42491599999993
 30
0.0
 11
79.297
 21
-59.37491599999992
 31
0.0
  0
LINE
  5
32AB
330
71A8
100
AcDbEntity
  8
0
100
AcDbLine
 10
-63.90512744639824
 20
-61.42491599999993
 30
0.0
 11
-63.90512744639824
 21
-59.37491599999992
 31
0.0
  0
LINE
  5
AB5
330
71A8
100
AcDbEntity
  8
0
100
AcDbLine
 10
59.47899999999999
 20
-59.37491599999992
 30
0.0
 11
49.51999999999998
 21
-59.37491599999992
 31
0.0
  0
LINE
  5
32AC
330
71A8
100
AcDbEntity
  8
0
100
AcDbLine
 10
-83.72312744639825
 20
-59.37491599999992
 30
0.0
 11
-93.68212744639825
 21
-59.37491599999992
 31
0.0
  0
LINE
  5
AB6
330
71A8
100
AcDbEntity
  8
0
100
AcDbLine
 10
49.51999999999998
 20
-59.37491599999992
 30
0.0
 11
49.51999999999998
 21
-61.42491599999993
 31
0.0
  0
LINE
  5
32AD
330
71A8
100
AcDbEntity
  8
0
100
AcDbLine
 10
-93.68212744639825
 20
-59.37491599999992
 30
0.0
 11
-93.68212744639825
 21
-61.42491599999993
 31
0.0
  0
LINE
  5
AB7
330
71A8
100
AcDbEntity
  8
0
100
AcDbLine
 10
49.51999999999998
 20
-61.42491599999993
 30
0.0
 11
59.47899999999999
 21
-61.42491599999993
 31
0.0
  0
LINE
  5
32AE
330
71A8
100
AcDbEntity
  8
0
100
AcDbLine
 10
-93.68212744639825
 20
-61.42491599999993
 30
0.0
 11
-83.72312744639825
 21
-61.42491599999993
 31
0.0
  0
LINE
  5
AB8
330
71A8
100
AcDbEntity
  8
0
100
AcDbLine
 10
59.47899999999999
 20
-61.42491599999993
 30
0.0
 11
59.47899999999999
 21
-59.37491599999992
 31
0.0
  0
LINE
  5
32AF
330
71A8
100
AcDbEntity
  8
0
100
AcDbLine
 10
-83.72312744639825
 20
-61.42491599999993
 30
0.0
 11
-83.72312744639825
 21
-59.37491599999992
 31
0.0
  0
LINE
  5
AB9
330
71A8
100
AcDbEntity
  8
0
100
AcDbLine
 10
39.661
 20
-59.37491599999992
 30
0.0
 11
29.702
 21
-59.37491599999992
 31
0.0
  0
LINE
  5
32B0
330
71A8
100
AcDbEntity
  8
0
100
AcDbLine
 10
-103.5411274463982
 20
-59.37491599999992
 30
0.0
 11
-113.5001274463982
 21
-59.37491599999992
 31
0.0
  0
LINE
  5
ABA
330
71A8
100
AcDbEntity
  8
0
100
AcDbLine
 10
29.702
 20
-59.37491599999992
 30
0.0
 11
29.702
 21
-61.42491599999993
 31
0.0
  0
LINE
  5
32B1
330
71A8
100
AcDbEntity
  8
0
100
AcDbLine
 10
-113.5001274463982
 20
-59.37491599999992
 30
0.0
 11
-113.5001274463982
 21
-61.42491599999993
 31
0.0
  0
LINE
  5
ABB
330
71A8
100
AcDbEntity
  8
0
100
AcDbLine
 10
29.702
 20
-61.42491599999993
 30
0.0
 11
39.661
 21
-61.42491599999993
 31
0.0
  0
LINE
  5
32B2
330
71A8
100
AcDbEntity
  8
0
100
AcDbLine
 10
-113.5001274463982
 20
-61.42491599999993
 30
0.0
 11
-103.5411274463982
 21
-61.42491599999993
 31
0.0
  0
LINE
  5
ABC
330
71A8
100
AcDbEntity
  8
0
100
AcDbLine
 10
39.661
 20
-61.42491599999993
 30
0.0
 11
39.66100000000001
 21
-59.37491599999993
 31
0.0
  0
LINE
  5
32B3
330
71A8
100
AcDbEntity
  8
0
100
AcDbLine
 10
-103.5411274463982
 20
-61.42491599999993
 30
0.0
 11
-103.5411274463982
 21
-59.37491599999993
 31
0.0
  0
LINE
  5
AC0
330
71A8
100
AcDbEntity
  8
0
100
AcDbLine
 10
19.843
 20
-61.42491599999993
 30
0.0
 11
19.843
 21
-59.37491599999992
 31
0.0
  0
LINE
  5
32B4
330
71A8
100
AcDbEntity
  8
0
100
AcDbLine
 10
-123.3591274463982
 20
-61.42491599999993
 30
0.0
 11
-123.3591274463982
 21
-59.37491599999992
 31
0.0
  0
LINE
  5
AC1
330
71A8
100
AcDbEntity
  8
0
100
AcDbLine
 10
19.843
 20
-59.37491599999992
 30
0.0
 11
9.883999999999999
 21
-59.37491599999992
 31
0.0
  0
LINE
  5
32B5
330
71A8
100
AcDbEntity
  8
0
100
AcDbLine
 10
-123.3591274463982
 20
-59.37491599999992
 30
0.0
 11
-133.3181274463983
 21
-59.37491599999992
 31
0.0
  0
LINE
  5
AC2
330
71A8
100
AcDbEntity
  8
0
100
AcDbLine
 10
9.883999999999999
 20
-59.37491599999992
 30
0.0
 11
9.883999999999999
 21
-61.42491599999993
 31
0.0
  0
LINE
  5
32B6
330
71A8
100
AcDbEntity
  8
0
100
AcDbLine
 10
-133.3181274463983
 20
-59.37491599999992
 30
0.0
 11
-133.3181274463983
 21
-61.42491599999993
 31
0.0
  0
LINE
  5
AC3
330
71A8
100
AcDbEntity
  8
0
100
AcDbLine
 10
9.883999999999999
 20
-61.42491599999993
 30
0.0
 11
19.843
 21
-61.42491599999993
 31
0.0
  0
LINE
  5
C50
330
71A8
100
AcDbEntity
  8
0
100
AcDbLine
 10
92.20002000000005
 20
-81.00000000000001
 30
0.0
 11
92.20002000000005
 21
-83.00000000000001
 31
0.0
  0
CIRCLE
  5
709C
330
71A8
100
AcDbEntity
  8
0
100
AcDbCircle
 10
11.54636440513234
 20
-35.80563677708416
 30
0.0
 40
1.25
  0
CIRCLE
  5
70AA
330
71A8
100
AcDbEntity
  8
0
100
AcDbCircle
 10
-131.6557630412659
 20
-35.80563677708416
 30
0.0
 40
1.25
  0
CIRCLE
  5
709E
330
71A8
100
AcDbEntity
  8
0
100
AcDbCircle
 10
96.53476440513234
 20
-35.80563677708416
 30
0.0
 40
1.25
  0
CIRCLE
  5
70AB
330
71A8
100
AcDbEntity
  8
0
100
AcDbCircle
 10
-46.6673630412659
 20
-35.80563677708416
 30
0.0
 40
1.25
  0
LINE
  5
207B
330
71A8
100
AcDbEntity
  8
0
100
AcDbLine
 10
2.499999999999989
 20
-8.76
 30
0.0
 11
0.4999999999999985
 21
-8.76
 31
0.0
  0
LINE
  5
32BA
330
71A8
100
AcDbEntity
  8
0
100
AcDbLine
 10
-140.7021274463983
 20
-8.76
 30
0.0
 11
-142.7021274463982
 21
-8.76
 31
0.0
  0
LINE
  5
3132
330
71A8
100
AcDbEntity
  8
0
100
AcDbLine
 10
106.5
 20
-8.759999999999998
 30
0.0
 11
108.5
 21
-8.759999999999998
 31
0.0
  0
LINE
  5
32BB
330
71A8
100
AcDbEntity
  8
0
100
AcDbLine
 10
-36.70212744639824
 20
-8.759999999999998
 30
0.0
 11
-34.70212744639824
 21
-8.759999999999998
 31
0.0
  0
LINE
  5
2169
330
71A8
100
AcDbEntity
  8
0
100
AcDbLine
 10
2.499999999999988
 20
-17.54
 30
0.0
 11
0.499999999999997
 21
-17.54
 31
0.0
  0
LINE
  5
32BC
330
71A8
100
AcDbEntity
  8
0
100
AcDbLine
 10
-140.7021274463983
 20
-17.54
 30
0.0
 11
-142.7021274463982
 21
-17.54
 31
0.0
  0
LINE
  5
3133
330
71A8
100
AcDbEntity
  8
0
100
AcDbLine
 10
106.5
 20
-17.54
 30
0.0
 11
108.5
 21
-17.54
 31
0.0
  0
LINE
  5
32BD
330
71A8
100
AcDbEntity
  8
0
100
AcDbLine
 10
-36.70212744639824
 20
-17.54
 30
0.0
 11
-34.70212744639824
 21
-17.54
 31
0.0
  0
LINE
  5
216A
330
71A8
100
AcDbEntity
  8
0
100
AcDbLine
 10
2.499999999999986
 20
-26.31
 30
0.0
 11
0.4999999999999953
 21
-26.31
 31
0.0
  0
LINE
  5
32BE
330
71A8
100
AcDbEntity
  8
0
100
AcDbLine
 10
-140.7021274463983
 20
-26.31
 30
0.0
 11
-142.7021274463982
 21
-26.31
 31
0.0
  0
LINE
  5
3134
330
71A8
100
AcDbEntity
  8
0
100
AcDbLine
 10
106.5
 20
-26.31
 30
0.0
 11
108.5
 21
-26.31
 31
0.0
  0
LINE
  5
32BF
330
71A8
100
AcDbEntity
  8
0
100
AcDbLine
 10
-36.70212744639824
 20
-26.31
 30
0.0
 11
-34.70212744639824
 21
-26.31
 31
0.0
  0
LINE
  5
216B
330
71A8
100
AcDbEntity
  8
0
100
AcDbLine
 10
2.499999999999985
 20
-35.09
 30
0.0
 11
0.4999999999999938
 21
-35.09
 31
0.0
  0
LINE
  5
32C0
330
71A8
100
AcDbEntity
  8
0
100
AcDbLine
 10
-140.7021274463983
 20
-35.09
 30
0.0
 11
-142.7021274463982
 21
-35.09
 31
0.0
  0
LINE
  5
3135
330
71A8
100
AcDbEntity
  8
0
100
AcDbLine
 10
106.5
 20
-35.09
 30
0.0
 11
108.5
 21
-35.09
 31
0.0
  0
LINE
  5
32C1
330
71A8
100
AcDbEntity
  8
0
100
AcDbLine
 10
-36.70212744639824
 20
-35.09
 30
0.0
 11
-34.70212744639824
 21
-35.09
 31
0.0
  0
LINE
  5
216C
330
71A8
100
AcDbEntity
  8
0
100
AcDbLine
 10
2.499999999999983
 20
-43.86
 30
0.0
 11
0.4999999999999921
 21
-43.86
 31
0.0
  0
LINE
  5
32C2
330
71A8
100
AcDbEntity
  8
0
100
AcDbLine
 10
-140.7021274463983
 20
-43.86
 30
0.0
 11
-142.7021274463983
 21
-43.86
 31
0.0
  0
LINE
  5
3136
330
71A8
100
AcDbEntity
  8
0
100
AcDbLine
 10
106.5
 20
-43.86
 30
0.0
 11
108.5
 21
-43.86
 31
0.0
  0
LINE
  5
32C3
330
71A8
100
AcDbEntity
  8
0
100
AcDbLine
 10
-36.70212744639824
 20
-43.86
 30
0.0
 11
-34.70212744639824
 21
-43.86
 31
0.0
  0
LINE
  5
216D
330
71A8
100
AcDbEntity
  8
0
100
AcDbLine
 10
2.499999999999982
 20
-52.64
 30
0.0
 11
0.4999999999999905
 21
-52.64
 31
0.0
  0
LINE
  5
32C4
330
71A8
100
AcDbEntity
  8
0
100
AcDbLine
 10
-140.7021274463983
 20
-52.64
 30
0.0
 11
-142.7021274463983
 21
-52.64
 31
0.0
  0
LINE
  5
3137
330
71A8
100
AcDbEntity
  8
0
100
AcDbLine
 10
106.5
 20
-52.64
 30
0.0
 11
108.5
 21
-52.64
 31
0.0
  0
LINE
  5
32C5
330
71A8
100
AcDbEntity
  8
0
100
AcDbLine
 10
-36.70212744639824
 20
-52.64
 30
0.0
 11
-34.70212744639824
 21
-52.64
 31
0.0
  0
LINE
  5
216E
330
71A8
100
AcDbEntity
  8
0
100
AcDbLine
 10
2.49999999999998
 20
-61.41
 30
0.0
 11
0.4999999999999889
 21
-61.41
 31
0.0
  0
LINE
  5
32C6
330
71A8
100
AcDbEntity
  8
0
100
AcDbLine
 10
-140.7021274463983
 20
-61.41
 30
0.0
 11
-142.7021274463983
 21
-61.41
 31
0.0
  0
LINE
  5
3138
330
71A8
100
AcDbEntity
  8
0
100
AcDbLine
 10
106.5
 20
-61.41
 30
0.0
 11
108.5
 21
-61.41
 31
0.0
  0
LINE
  5
32C7
330
71A8
100
AcDbEntity
  8
0
100
AcDbLine
 10
-36.70212744639824
 20
-61.41
 30
0.0
 11
-34.70212744639824
 21
-61.41
 31
0.0
  0
LINE
  5
32C8
330
71A8
100
AcDbEntity
  8
0
100
AcDbLine
 10
-123.3591274463982
 20
-61.42491599999995
 30
0.0
 11
-131.2021274463983
 21
-61.42500000000001
 31
0.0
  0
LINE
  5
32C9
330
71A8
100
AcDbEntity
  8
0
100
AcDbLine
 10
-131.2021274463983
 20
-61.42500000000001
 30
0.0
 11
-131.2021274463983
 21
-70.0
 31
0.0
  0
LINE
  5
32CA
330
71A8
100
AcDbEntity
  8
0
100
AcDbLine
 10
-133.3181274463983
 20
-61.42491599999993
 30
0.0
 11
-138.7021274463982
 21
-61.42499999999999
 31
0.0
  0
LINE
  5
32CB
330
71A8
100
AcDbEntity
  8
0
100
AcDbLine
 10
-138.7021274463982
 20
-61.42499999999999
 30
0.0
 11
-138.7021274463983
 21
-70.0
 31
0.0
  0
LINE
  5
3447
330
71A8
100
AcDbEntity
  8
0
100
AcDbLine
 10
99.105
 20
-73.00000000000011
 30
0.0
 11
99.105
 21
-73.00000000000011
 31
0.0
  0
LINE
  5
3621
330
71A8
100
AcDbEntity
  8
0
100
AcDbLine
 10
-142.7021274463983
 20
-70.0
 30
0.0
 11
-138.7021274463983
 21
-70.0
 31
0.0
  0
LINE
  5
3622
330
71A8
100
AcDbEntity
  8
0
100
AcDbLine
 10
-131.2021274463983
 20
-70.0
 30
0.0
 11
-34.70212744639824
 21
-70.0
 31
0.0
  0
LINE
  5
7085
330
71A8
100
AcDbEntity
  8
0
100
AcDbLine
 10
16.80751440513187
 20
10.99999999999997
 30
0.0
 11
46.02361440513235
 21
10.99999999999997
 31
0.0
  0
LINE
  5
7087
330
71A8
100
AcDbEntity
  8
0
100
AcDbLine
 10
16.80751440513187
 20
7.499999999999968
 30
0.0
 11
46.02361440513235
 21
7.499999999999972
 31
0.0
  0
LINE
  5
7086
330
71A8
100
AcDbEntity
  8
0
100
AcDbLine
 10
16.80751440513187
 20
12.59999999999997
 30
0.0
 11
46.02361440513234
 21
12.59999999999997
 31
0.0
  0
LINE
  5
7088
330
71A8
100
AcDbEntity
  8
0
100
AcDbLine
 10
16.80751440513187
 20
16.09999999999997
 30
0.0
 11
46.02361440513235
 21
16.09999999999997
 31
0.0
  0
LINE
  5
708B
330
71A8
100
AcDbEntity
  8
0
100
AcDbLine
 10
16.80751440513187
 20
12.59999999999997
 30
0.0
 11
16.80751440513187
 21
16.09999999999997
 31
0.0
  0
LINE
  5
708C
330
71A8
100
AcDbEntity
  8
0
100
AcDbLine
 10
16.80751440513187
 20
16.09999999999997
 30
0.0
 11
16.80751440513187
 21
12.59999999999997
 31
0.0
  0
LINE
  5
708D
330
71A8
100
AcDbEntity
  8
0
100
AcDbLine
 10
16.80751440513187
 20
10.99999999999997
 30
0.0
 11
16.80751440513187
 21
7.499999999999967
 31
0.0
  0
LINE
  5
708E
330
71A8
100
AcDbEntity
  8
0
100
AcDbLine
 10
16.80751440513187
 20
7.499999999999968
 30
0.0
 11
16.80751440513187
 21
10.99999999999997
 31
0.0
  0
LINE
  5
708F
330
71A8
100
AcDbEntity
  8
0
100
AcDbLine
 10
46.02361440513235
 20
10.99999999999997
 30
0.0
 11
46.02361440513235
 21
7.499999999999971
 31
0.0
  0
LINE
  5
7090
330
71A8
100
AcDbEntity
  8
0
100
AcDbLine
 10
46.02361440513235
 20
7.499999999999972
 30
0.0
 11
46.02361440513235
 21
10.99999999999997
 31
0.0
  0
LINE
  5
7091
330
71A8
100
AcDbEntity
  8
0
100
AcDbLine
 10
46.02361440513235
 20
12.59999999999997
 30
0.0
 11
46.02361440513235
 21
16.09999999999997
 31
0.0
  0
LINE
  5
7092
330
71A8
100
AcDbEntity
  8
0
100
AcDbLine
 10
71.49041440513234
 20
10.99999999999997
 30
0.0
 11
80.38041440513234
 21
10.99999999999997
 31
0.0
  0
LINE
  5
7094
330
71A8
100
AcDbEntity
  8
0
100
AcDbLine
 10
71.49041440513234
 20
6.79999999999997
 30
0.0
 11
80.38041440513234
 21
6.79999999999997
 31
0.0
  0
LINE
  5
7093
330
71A8
100
AcDbEntity
  8
0
100
AcDbLine
 10
84.19041440513233
 20
10.99999999999997
 30
0.0
 11
93.08041440513234
 21
10.99999999999997
 31
0.0
  0
LINE
  5
7095
330
71A8
100
AcDbEntity
  8
0
100
AcDbLine
 10
84.19041440513233
 20
6.79999999999997
 30
0.0
 11
93.08041440513234
 21
6.799999999999971
 31
0.0
  0
LINE
  5
7096
330
71A8
100
AcDbEntity
  8
0
100
AcDbLine
 10
71.49041440513234
 20
10.99999999999997
 30
0.0
 11
71.49041440513234
 21
6.79999999999997
 31
0.0
  0
LINE
  5
7097
330
71A8
100
AcDbEntity
  8
0
100
AcDbLine
 10
80.38041440513234
 20
10.99999999999997
 30
0.0
 11
80.38041440513234
 21
6.79999999999997
 31
0.0
  0
LINE
  5
7098
330
71A8
100
AcDbEntity
  8
0
100
AcDbLine
 10
84.19041440513233
 20
10.99999999999997
 30
0.0
 11
84.19041440513233
 21
6.799999999999969
 31
0.0
  0
LINE
  5
7099
330
71A8
100
AcDbEntity
  8
0
100
AcDbLine
 10
93.08041440513234
 20
10.99999999999997
 30
0.0
 11
93.08041440513234
 21
6.799999999999971
 31
0.0
  0
LINE
  5
70A4
330
71A8
100
AcDbEntity
  8
0
100
AcDbLine
 10
-14.3
 20
-3.746136777084175
 30
0.0
 11
-14.3
 21
-16.81113677708416
 31
0.0
  0
LINE
  5
70A5
330
71A8
100
AcDbEntity
  8
0
100
AcDbLine
 10
-19.3
 20
-3.746136777084175
 30
0.0
 11
-19.3
 21
-16.81113677708416
 31
0.0
  0
LINE
  5
70A6
330
71A8
100
AcDbEntity
  8
0
100
AcDbLine
 10
-19.3
 20
-3.746136777084175
 30
0.0
 11
-14.3
 21
-3.746136777084175
 31
0.0
  0
LINE
  5
70A7
330
71A8
100
AcDbEntity
  8
0
100
AcDbLine
 10
-19.3
 20
-16.81113677708416
 30
0.0
 11
-14.3
 21
-16.81113677708416
 31
0.0
  0
VIEWPORT
  5
725B
330
71A4
100
AcDbEntity
 67
     1
  8
0
100
AcDbViewport
 10
128.5
 20
97.5
 30
0.0
 40
314.226
 41
222.18
 68
     1
 69
     1
 12
128.5
 22
97.5
 13
0.0
 23
0.0
 14
10.0
 24
10.0
 15
10.0
 25
10.0
 16
0.0
 26
0.0
 36
1.0
 17
0.0
 27
0.0
 37
0.0
 42
50.0
 43
0.0
 44
0.0
 45
222.18
 50
0.0
 51
0.0
 72
   100
 90
   557152
  1

281
     0
 71
     1
 74
     0
110
0.0
120
0.0
130
0.0
111
1.0
121
0.0
131
0.0
112
0.0
122
1.0
132
0.0
 79
     0
146
0.0
170
     0
 61
     5
348
71B8
292
     1
282
     1
141
0.0
142
0.0
 63
   256
361
725C
  0
ENDSEC
  0
SECTION
  2
OBJECTS
  0
DICTIONARY
  5
7196
330
0
100
AcDbDictionary
281
     1
  3
ACAD_DETAILVIEWSTYLE
350
726A
  3
ACAD_GROUP
350
7197
  3
ACAD_LAYOUT
350
71A3
  3
ACAD_MATERIAL
350
71CC
  3
ACAD_MLEADERSTYLE
350
71E4
  3
ACAD_MLINESTYLE
350
71A0
  3
ACAD_PLOTSETTINGS
350
71A2
  3
ACAD_PLOTSTYLENAME
350
7198
  3
ACAD_SCALELIST
350
71D0
  3
ACAD_SECTIONVIEWSTYLE
350
726B
  3
ACAD_TABLESTYLE
350
71E2
  3
ACAD_VISUALSTYLE
350
71B3
  3
ACDB_RECOMPOSE_DATA
350
7267
  3
AcDbVariableDictionary
350
7263
  3
QCAD_OBJECTS
350
71E8
  0
SUN
  5
71E6
330
71B2
100
AcDbSun
 90
        1
290
     0
 63
     7
421
 16777215
 40
1.0
291
     1
 91
  2455826
 92
 54000000
292
     0
 70
     2
 71
   256
280
     1
  0
SUN
  5
725C
330
725B
100
AcDbSun
 90
        1
290
     0
 63
     7
421
 16777215
 40
1.0
291
     1
 91
  2455826
 92
 54000000
292
     0
 70
     2
 71
   256
280
     1
  0
DICTIONARY
  5
726A
102
{ACAD_REACTORS
330
7196
102
}
330
7196
100
AcDbDictionary
281
     1
  0
DICTIONARY
  5
7197
102
{ACAD_REACTORS
330
7196
102
}
330
7196
100
AcDbDictionary
281
     1
  0
DICTIONARY
  5
71A3
102
{ACAD_REACTORS
330
7196
102
}
330
7196
100
AcDbDictionary
281
     1
  3
Layout1
350
71A7
  3
Model
350
71AB
  0
DICTIONARY
  5
71CC
102
{ACAD_REACTORS
330
7196
102
}
330
7196
100
AcDbDictionary
281
     1
  3
ByBlock
350
71CE
  3
ByLayer
350
71CD
  3
Global
350
71CF
  0
DICTIONARY
  5
71E4
102
{ACAD_REACTORS
330
7196
102
}
330
7196
100
AcDbDictionary
281
     1
  3
Standard
350
71E5
  0
DICTIONARY
  5
71A0
102
{ACAD_REACTORS
330
7196
102
}
330
7196
100
AcDbDictionary
281
     1
  3
Standard
350
71A1
  0
DICTIONARY
  5
71A2
102
{ACAD_REACTORS
330
7196
102
}
330
7196
100
AcDbDictionary
281
     1
  0
ACDBDICTIONARYWDFLT
  5
7198
102
{ACAD_REACTORS
330
7196
102
}
330
7196
100
AcDbDictionary
281
     1
  3
Normal
350
7199
100
AcDbDictionaryWithDefault
340
7199
  0
DICTIONARY
  5
71D0
102
{ACAD_REACTORS
330
7196
102
}
330
7196
100
AcDbDictionary
281
     1
  3
A0
350
71D1
  3
A1
350
71D2
  3
A2
350
71D3
  3
A3
350
71D4
  3
A4
350
71D5
  3
A5
350
71D6
  3
A6
350
71D7
  3
A7
350
71D8
  3
A8
350
71D9
  3
A9
350
71DA
  3
B1
350
71DB
  3
B2
350
71DC
  3
B3
350
71DD
  3
B4
350
71DE
  3
B5
350
71DF
  3
B6
350
71E0
  3
B7
350
71E1
  0
DICTIONARY
  5
726B
102
{ACAD_REACTORS
330
7196
102
}
330
7196
100
AcDbDictionary
281
     1
  0
DICTIONARY
  5
71E2
102
{ACAD_REACTORS
330
7196
102
}
330
7196
100
AcDbDictionary
281
     1
  3
Standard
350
71E3
  0
DICTIONARY
  5
71B3
102
{ACAD_REACTORS
330
7196
102
}
330
7196
100
AcDbDictionary
281
     1
  3
2dWireframe
350
71B8
  3
Basic
350
71BB
  3
Brighten
350
71BF
  3
ColorChange
350
71C3
  3
Conceptual
350
71BD
  3
Dim
350
71BE
  3
EdgeColorOff
350
71C6
  3
Facepattern
350
71C2
  3
Flat
350
71B4
  3
FlatWithEdges
350
71B5
  3
Gouraud
350
71B6
  3
GouraudWithEdges
350
71B7
  3
Hidden
350
71BA
  3
JitterOff
350
71C4
  3
Linepattern
350
71C1
  3
OverhangOff
350
71C5
  3
Realistic
350
71BC
  3
Shaded
350
71CB
  3
Shaded with edges
350
71CA
  3
Shades of Gray
350
71C7
  3
Sketchy
350
71C8
  3
Thicken
350
71C0
  3
Wireframe
350
71B9
  3
X-Ray
350
71C9
  0
XRECORD
  5
7267
102
{ACAD_REACTORS
330
7196
102
}
330
7196
100
AcDbXrecord
280
     1
 90
        1
330
71E3
  0
DICTIONARY
  5
7263
102
{ACAD_REACTORS
330
7196
102
}
330
7196
100
AcDbDictionary
281
     1
  3
CANNOSCALE
350
7264
  3
CMLEADERSTYLE
350
7269
  3
CTABLESTYLE
350
7268
  0
DICTIONARY
  5
71E8
102
{ACAD_REACTORS
330
7196
102
}
330
7196
100
AcDbDictionary
281
     1
  3
ColorSettings/BackgroundColor
350
71EA
  3
ColorSettings/ColorMode
350
71EB
  3
Grid/DisplayGrid00
350
71EC
  3
Grid/DisplayGrid01
350
71ED
  3
Grid/DisplayGrid02
350
71EE
  3
Grid/DisplayGrid03
350
71EF
  3
Grid/GridSpacingX00
350
71F0
  3
Grid/GridSpacingX01
350
71F1
  3
Grid/GridSpacingX02
350
71F2
  3
Grid/GridSpacingX03
350
71F3
  3
Grid/GridSpacingY00
350
71F4
  3
Grid/GridSpacingY01
350
71F5
  3
Grid/GridSpacingY02
350
71F6
  3
Grid/GridSpacingY03
350
71F7
  3
Grid/IsometricGrid00
350
71F8
  3
Grid/IsometricGrid01
350
71F9
  3
Grid/IsometricGrid02
350
71FA
  3
Grid/IsometricGrid03
350
71FB
  3
Grid/IsometricProjection00
350
71FC
  3
Grid/IsometricProjection01
350
71FD
  3
Grid/IsometricProjection02
350
71FE
  3
Grid/IsometricProjection03
350
71FF
  3
Grid/MetaGridSpacingX00
350
7200
  3
Grid/MetaGridSpacingX01
350
7201
  3
Grid/MetaGridSpacingX02
350
7202
  3
Grid/MetaGridSpacingX03
350
7203
  3
Grid/MetaGridSpacingY00
350
7204
  3
Grid/MetaGridSpacingY01
350
7205
  3
Grid/MetaGridSpacingY02
350
7206
  3
Grid/MetaGridSpacingY03
350
7207
  3
MultiPageSettings/Columns
350
7208
  3
MultiPageSettings/GlueMarginsBottom
350
7209
  3
MultiPageSettings/GlueMarginsLeft
350
720A
  3
MultiPageSettings/GlueMarginsRight
350
720B
  3
MultiPageSettings/GlueMarginsTop
350
720C
  3
MultiPageSettings/PrintCropMarks
350
720D
  3
MultiPageSettings/Rows
350
720E
  3
PageSettings/OffsetX
350
720F
  3
PageSettings/OffsetY
350
7210
  3
PageSettings/PageOrientation
350
7211
  3
PageSettings/PaperHeight
350
7212
  3
PageSettings/PaperWidth
350
7213
  3
PageSettings/Scale
350
7214
  3
PageSettings/ShowPaperBorders
350
7215
  3
PageTagSettings/EnablePageTags
350
7216
  3
PageTagSettings/TagAlignment
350
7217
  3
PageTagSettings/TagFont
350
7218
  3
PageTagSettings/TagPosition
350
7219
  3
QCADVersion
350
721A
  3
UnitSettings/PaperUnit
350
721B
  3
ViewportCenter
350
721C
  3
ViewportHeight
350
721D
  3
ViewportWidth
350
721E
  0
LAYOUT
  5
71A7
102
{ACAD_REACTORS
330
71A3
102
}
330
71A3
100
AcDbPlotSettings
  1

  2
none_device
  4
ISO_A4_(210.00_x_297.00_MM)
  6

 40
7.5
 41
20.0
 42
7.5
 43
20.0
 44
210.0
 45
297.0
 46
0.0
 47
0.0
 48
0.0
 49
0.0
140
0.0
141
0.0
142
1.0
143
1.0
 70
   688
 72
     1
 73
     1
 74
     5
  7

 75
    16
 76
     0
 77
     2
 78
   300
147
1.0
148
0.0
149
0.0
100
AcDbLayout
  1
Layout1
 70
     1
 71
     0
 10
-20.0
 20
-7.5
 11
277.0
 21
202.5
 12
0.0
 22
0.0
 32
0.0
 14
0.0
 24
0.0
 34
0.0
 15
0.0
 25
0.0
 35
0.0
146
0.0
 13
0.0
 23
0.0
 33
0.0
 16
1.0
 26
0.0
 36
0.0
 17
0.0
 27
1.0
 37
0.0
 76
     0
330
71A4
331
725B
  0
LAYOUT
  5
71AB
102
{ACAD_REACTORS
330
71A3
102
}
330
71A3
100
AcDbPlotSettings
  1

  2
none_device
  4
Letter_(8.50_x_11.00_Inches)
  6

 40
6.35
 41
6.35
 42
6.35000508
 43
6.35000508
 44
215.9
 45
279.4
 46
0.0
 47
0.0
 48
0.0
 49
0.0
140
0.0
141
0.0
142
1.0
143
1.0
 70
  1712
 72
     0
 73
     0
 74
     0
  7

 75
     0
 76
     0
 77
     2
 78
   300
147
1.0
148
0.0
149
0.0
100
AcDbLayout
  1
Model
 70
     1
 71
     0
 10
0.0
 20
0.0
 11
12.0
 21
9.0
 12
0.0
 22
0.0
 32
0.0
 14
-142.7021274463983
 24
-89.99999999999999
 34
0.0
 15
133.1088437857962
 25
20.00000000000004
 35
0.0
146
0.0
 13
0.0
 23
0.0
 33
0.0
 16
1.0
 26
0.0
 36
0.0
 17
0.0
 27
1.0
 37
0.0
 76
     0
330
71A8
331
71B2
  0
MATERIAL
  5
71CE
102
{ACAD_REACTORS
330
71CC
102
}
330
71CC
100
AcDbMaterial
  1
ByBlock
 72
     1
 94
      127
  0
MATERIAL
  5
71CD
102
{ACAD_REACTORS
330
71CC
102
}
330
71CC
100
AcDbMaterial
  1
ByLayer
 72
     1
 94
      127
  0
MATERIAL
  5
71CF
102
{ACAD_REACTORS
330
71CC
102
}
330
71CC
100
AcDbMaterial
  1
Global
 72
     1
 94
      127
  0
MLEADERSTYLE
  5
71E5
102
{ACAD_REACTORS
330
71E4
102
}
330
71E4
100
AcDbMLeaderStyle
179
     2
170
     2
171
     1
172
     0
 90
        2
 40
0.0
 41
0.0
173
     1
 91
-1056964608
340
719D
 92
       -2
290
     1
 42
0.09
291
     1
 43
0.36
  3
Standard
341
0
 44
0.18
300

342
719B
174
     1
178
     6
175
     1
176
     0
 93
-1056964608
 45
0.18
292
     0
297
     0
 46
0.18
343
0
 94
-1056964608
 47
1.0
 49
1.0
140
1.0
293
     1
141
0.0
294
     1
177
     0
142
1.0
295
     0
296
     0
143
0.125
271
     0
272
     9
273
     9
298
     0
  0
MLINESTYLE
  5
71A1
102
{ACAD_REACTORS
330
71A0
102
}
330
71A0
100
AcDbMlineStyle
  2
Standard
 70
     0
  3

 62
   256
 51
90.0
 52
90.0
 71
     2
 49
0.5
 62
   256
  6
BYLAYER
 49
-0.5
 62
   256
  6
BYLAYER
  0
ACDBPLACEHOLDER
  5
7199
102
{ACAD_REACTORS
330
7198
102
}
330
7198
  0
SCALE
  5
71D1
102
{ACAD_REACTORS
330
71D0
102
}
330
71D0
100
AcDbScale
 70
     0
300
1:1
140
1.0
141
1.0
290
     1
  0
SCALE
  5
71D2
102
{ACAD_REACTORS
330
71D0
102
}
330
71D0
100
AcDbScale
 70
     0
300
1/128" = 1'-0"
140
0.0078125
141
12.0
290
     0
  0
SCALE
  5
71D3
102
{ACAD_REACTORS
330
71D0
102
}
330
71D0
100
AcDbScale
 70
     0
300
1/64" = 1'-0"
140
0.015625
141
12.0
290
     0
  0
SCALE
  5
71D4
102
{ACAD_REACTORS
330
71D0
102
}
330
71D0
100
AcDbScale
 70
     0
300
1/32" = 1'-0"
140
0.03125
141
12.0
290
     0
  0
SCALE
  5
71D5
102
{ACAD_REACTORS
330
71D0
102
}
330
71D0
100
AcDbScale
 70
     0
300
1/16" = 1'-0"
140
0.0625
141
12.0
290
     0
  0
SCALE
  5
71D6
102
{ACAD_REACTORS
330
71D0
102
}
330
71D0
100
AcDbScale
 70
     0
300
3/32" = 1'-0"
140
0.09375
141
12.0
290
     0
  0
SCALE
  5
71D7
102
{ACAD_REACTORS
330
71D0
102
}
330
71D0
100
AcDbScale
 70
     0
300
1/8" = 1'-0"
140
0.125
141
12.0
290
     0
  0
SCALE
  5
71D8
102
{ACAD_REACTORS
330
71D0
102
}
330
71D0
100
AcDbScale
 70
     0
300
3/16" = 1'-0"
140
0.1875
141
12.0
290
     0
  0
SCALE
  5
71D9
102
{ACAD_REACTORS
330
71D0
102
}
330
71D0
100
AcDbScale
 70
     0
300
1/4" = 1'-0"
140
0.25
141
12.0
290
     0
  0
SCALE
  5
71DA
102
{ACAD_REACTORS
330
71D0
102
}
330
71D0
100
AcDbScale
 70
     0
300
3/8" = 1'-0"
140
0.375
141
12.0
290
     0
  0
SCALE
  5
71DB
102
{ACAD_REACTORS
330
71D0
102
}
330
71D0
100
AcDbScale
 70
     0
300
1/2" = 1'-0"
140
0.5
141
12.0
290
     0
  0
SCALE
  5
71DC
102
{ACAD_REACTORS
330
71D0
102
}
330
71D0
100
AcDbScale
 70
     0
300
3/4" = 1'-0"
140
0.75
141
12.0
290
     0
  0
SCALE
  5
71DD
102
{ACAD_REACTORS
330
71D0
102
}
330
71D0
100
AcDbScale
 70
     0
300
1" = 1'-0"
140
1.0
141
12.0
290
     0
  0
SCALE
  5
71DE
102
{ACAD_REACTORS
330
71D0
102
}
330
71D0
100
AcDbScale
 70
     0
300
1-1/2" = 1'-0"
140
1.5
141
12.0
290
     0
  0
SCALE
  5
71DF
102
{ACAD_REACTORS
330
71D0
102
}
330
71D0
100
AcDbScale
 70
     0
300
3" = 1'-0"
140
3.0
141
12.0
290
     0
  0
SCALE
  5
71E0
102
{ACAD_REACTORS
330
71D0
102
}
330
71D0
100
AcDbScale
 70
     0
300
6" = 1'-0"
140
6.0
141
12.0
290
     0
  0
SCALE
  5
71E1
102
{ACAD_REACTORS
330
71D0
102
}
330
71D0
100
AcDbScale
 70
     0
300
1'-0" = 1'-0"
140
12.0
141
12.0
290
     0
  0
TABLESTYLE
  5
71E3
102
{ACAD_REACTORS
330
71E2
102
}
102
{ACAD_XDICTIONARY
360
7265
102
}
330
71E2
100
AcDbTableStyle
  3
Standard
 70
     0
 71
     0
 40
0.06
 41
0.06
280
     0
281
     0
  7
Standard
140
0.18
170
     2
 62
     0
 63
   257
283
     0
 90
        4
 91
        0
  1

274
    -2
284
     1
 64
     0
275
    -2
285
     1
 65
     0
276
    -2
286
     1
 66
     0
277
    -2
287
     1
 67
     0
278
    -2
288
     1
 68
     0
279
    -2
289
     1
 69
     0
  7
Standard
140
0.25
170
     5
 62
     0
 63
   257
283
     0
 90
        4
 91
        0
  1

274
    -2
284
     1
 64
     0
275
    -2
285
     1
 65
     0
276
    -2
286
     1
 66
     0
277
    -2
287
     1
 67
     0
278
    -2
288
     1
 68
     0
279
    -2
289
     1
 69
     0
  7
Standard
140
0.18
170
     5
 62
     0
 63
   257
283
     0
 90
        4
 91
        0
  1

274
    -2
284
     1
 64
     0
275
    -2
285
     1
 65
     0
276
    -2
286
     1
 66
     0
277
    -2
287
     1
 67
     0
278
    -2
288
     1
 68
     0
279
    -2
289
     1
 69
     0
  0
VISUALSTYLE
  5
71B8
102
{ACAD_REACTORS
330
71B3
102
}
330
71B3
100
AcDbVisualStyle
  2
2dWireframe
 70
     4
177
     3
291
     0
 70
    58
 90
        0
176
     1
 90
        2
176
     1
 90
        0
176
     1
 90
        0
176
     1
 40
0.6
176
     1
 40
30.0
176
     1
 62
     7
420
 16777215
176
     1
 90
        1
176
     1
 90
        4
176
     1
 62
     7
176
     1
 62
   257
176
     1
 90
        1
176
     1
 90
        1
176
     1
 40
1.0
176
     1
 90
        0
176
     1
 62
   257
176
     1
 40
1.0
176
     1
 90
        1
176
     1
 90
        6
176
     1
 90
        2
176
     1
 62
     7
176
     1
 90
        5
176
     1
 90
        0
176
     1
 90
        0
176
     1
290
     0
176
     1
 90
        1
176
     1
 40
0.0
176
     1
 90
        0
176
     1
290
     1
176
     1
290
     1
176
     1
290
     0
176
     1
290
     0
176
     1
290
     0
176
     1
290
     0
176
     1
290
     0
176
     1
290
     0
176
     1
290
     0
176
     1
 90
       50
176
     1
 40
0.0
176
     1
 40
1.0
176
     1
 90
        0
176
     1
 62
    18
420
        0
176
     1
 90
       50
176
     1
 90
        3
176
     1
 62
     5
420
      255
176
     1
290
     0
176
     1
 90
       50
176
     1
 90
       50
176
     1
 90
       50
176
     1
290
     0
176
     1
 90
       50
176
     1
 62
   256
176
     0
 40
1.0
176
     0
 90
        2
176
     1
  1
strokes_ogs.tif
176
     1
290
     0
176
     1
 40
1.0
176
     1
 40
1.0
176
     1
  0
VISUALSTYLE
  5
71BB
102
{ACAD_REACTORS
330
71B3
102
}
330
71B3
100
AcDbVisualStyle
  2
Basic
 70
     7
177
     3
291
     1
 70
    58
 90
        1
176
     1
 90
        0
176
     1
 90
        1
176
     1
 90
        0
176
     1
 40
0.6
176
     1
 40
30.0
176
     1
 62
     7
420
 16777215
176
     1
 90
        0
176
     1
 90
        4
176
     1
 62
     7
176
     1
 62
   257
176
     1
 90
        1
176
     1
 90
        1
176
     1
 40
1.0
176
     1
 90
        8
176
     1
 62
     7
176
     1
 40
1.0
176
     1
 90
        1
176
     1
 90
        6
176
     1
 90
        2
176
     1
 62
     7
176
     1
 90
        5
176
     1
 90
        0
176
     1
 90
        0
176
     1
290
     0
176
     1
 90
        1
176
     1
 40
0.0
176
     1
 90
        0
176
     1
290
     0
176
     1
290
     1
176
     1
290
     1
176
     1
290
     0
176
     1
290
     0
176
     1
290
     0
176
     1
290
     0
176
     1
290
     0
176
     1
290
     0
176
     1
 90
       50
176
     1
 40
0.0
176
     1
 40
1.0
176
     1
 90
        0
176
     1
 62
    18
420
        0
176
     1
 90
       50
176
     1
 90
        3
176
     1
 62
     5
420
      255
176
     1
290
     0
176
     1
 90
       50
176
     1
 90
       50
176
     1
 90
       50
176
     1
290
     0
176
     1
 90
       50
176
     1
 62
   256
176
     0
 40
1.0
176
     0
 90
        2
176
     1
  1
strokes_ogs.tif
176
     1
290
     0
176
     1
 40
1.0
176
     1
 40
1.0
176
     1
  0
VISUALSTYLE
  5
71BF
102
{ACAD_REACTORS
330
71B3
102
}
330
71B3
100
AcDbVisualStyle
  2
Brighten
 70
    12
177
     3
291
     1
 70
    58
 90
        2
176
     1
 90
        2
176
     1
 90
        0
176
     1
 90
        0
176
     1
 40
0.6
176
     1
 40
30.0
176
     1
 62
     7
420
 16777215
176
     1
 90
        1
176
     1
 90
        4
176
     1
 62
     7
176
     1
 62
   257
176
     1
 90
        1
176
     1
 90
        1
176
     1
 40
1.0
176
     1
 90
        8
176
     1
 62
     7
176
     1
 40
1.0
176
     1
 90
        1
176
     1
 90
        6
176
     1
 90
        2
176
     1
 62
     7
176
     1
 90
        5
176
     1
 90
        0
176
     1
 90
        0
176
     1
290
     0
176
     1
 90
        1
176
     1
 40
50.0
176
     1
 90
        0
176
     1
290
     0
176
     1
290
     1
176
     1
290
     1
176
     1
290
     0
176
     1
290
     0
176
     1
290
     0
176
     1
290
     0
176
     1
290
     0
176
     1
290
     0
176
     1
 90
       50
176
     1
 40
0.0
176
     1
 40
1.0
176
     1
 90
        0
176
     1
 62
    18
420
        0
176
     1
 90
       50
176
     1
 90
        3
176
     1
 62
     5
420
      255
176
     1
290
     0
176
     1
 90
       50
176
     1
 90
       50
176
     1
 90
       50
176
     1
290
     0
176
     1
 90
       50
176
     1
 62
   256
176
     0
 40
1.0
176
     0
 90
        2
176
     1
  1
strokes_ogs.tif
176
     1
290
     0
176
     1
 40
1.0
176
     1
 40
1.0
176
     1
  0
VISUALSTYLE
  5
71C3
102
{ACAD_REACTORS
330
71B3
102
}
330
71B3
100
AcDbVisualStyle
  2
ColorChange
 70
    16
177
     3
291
     1
 70
    58
 90
        2
176
     1
 90
        2
176
     1
 90
        3
176
     1
 90
        0
176
     1
 40
0.6
176
     1
 40
30.0
176
     1
 62
     8
420
  8421504
176
     1
 90
        1
176
     1
 90
        4
176
     1
 62
     7
176
     1
 62
   257
176
     1
 90
        1
176
     1
 90
        1
176
     1
 40
1.0
176
     1
 90
        8
176
     1
 62
     8
420
  8421504
176
     1
 40
1.0
176
     1
 90
        1
176
     1
 90
        6
176
     1
 90
        2
176
     1
 62
     7
176
     1
 90
        5
176
     1
 90
        0
176
     1
 90
        0
176
     1
290
     0
176
     1
 90
        1
176
     1
 40
0.0
176
     1
 90
        0
176
     1
290
     0
176
     1
290
     1
176
     1
290
     1
176
     1
290
     0
176
     1
290
     0
176
     1
290
     0
176
     1
290
     0
176
     1
290
     0
176
     1
290
     0
176
     1
 90
       50
176
     1
 40
0.0
176
     1
 40
1.0
176
     1
 90
        0
176
     1
 62
    18
420
        0
176
     1
 90
       50
176
     1
 90
        3
176
     1
 62
     5
420
      255
176
     1
290
     0
176
     1
 90
       50
176
     1
 90
       50
176
     1
 90
       50
176
     1
290
     0
176
     1
 90
       50
176
     1
 62
   256
176
     0
 40
1.0
176
     0
 90
        2
176
     1
  1
strokes_ogs.tif
176
     1
290
     0
176
     1
 40
1.0
176
     1
 40
1.0
176
     1
  0
VISUALSTYLE
  5
71BD
102
{ACAD_REACTORS
330
71B3
102
}
330
71B3
100
AcDbVisualStyle
  2
Conceptual
 70
     9
177
     3
291
     0
 70
    58
 90
        3
176
     1
 90
        2
176
     1
 90
        0
176
     1
 90
        0
176
     1
 40
0.6
176
     1
 40
30.0
176
     1
 62
     7
420
 16777215
176
     1
 90
        2
176
     1
 90
        2
176
     1
 62
     7
176
     1
 62
   257
176
     1
 90
        1
176
     1
 90
        1
176
     1
 40
179.0
176
     1
 90
        8
176
     1
 62
     7
176
     1
 40
1.0
176
     1
 90
        1
176
     1
 90
        6
176
     1
 90
        2
176
     1
 62
     7
176
     1
 90
        3
176
     1
 90
        0
176
     1
 90
        0
176
     1
290
     0
176
     1
 90
        1
176
     1
 40
0.0
176
     1
 90
        0
176
     1
290
     0
176
     1
290
     1
176
     1
290
     1
176
     1
290
     0
176
     1
290
     0
176
     1
290
     0
176
     1
290
     0
176
     1
290
     0
176
     1
290
     0
176
     1
 90
       50
176
     1
 40
0.0
176
     1
 40
1.0
176
     1
 90
        0
176
     1
 62
    18
420
        0
176
     1
 90
       50
176
     1
 90
        3
176
     1
 62
     5
420
      255
176
     1
290
     0
176
     1
 90
       50
176
     1
 90
       50
176
     1
 90
       50
176
     1
290
     0
176
     1
 90
       50
176
     1
 62
   256
176
     0
 40
1.0
176
     0
 90
        2
176
     1
  1
strokes_ogs.tif
176
     1
290
     0
176
     1
 40
1.0
176
     1
 40
1.0
176
     1
  0
VISUALSTYLE
  5
71BE
102
{ACAD_REACTORS
330
71B3
102
}
330
71B3
100
AcDbVisualStyle
  2
Dim
 70
    11
177
     3
291
     1
 70
    58
 90
        2
176
     1
 90
        2
176
     1
 90
        0
176
     1
 90
        0
176
     1
 40
0.6
176
     1
 40
30.0
176
     1
 62
     7
420
 16777215
176
     1
 90
        1
176
     1
 90
        4
176
     1
 62
     7
176
     1
 62
   257
176
     1
 90
        1
176
     1
 90
        1
176
     1
 40
1.0
176
     1
 90
        8
176
     1
 62
     7
176
     1
 40
1.0
176
     1
 90
        1
176
     1
 90
        6
176
     1
 90
        2
176
     1
 62
     7
176
     1
 90
        5
176
     1
 90
        0
176
     1
 90
        0
176
     1
290
     0
176
     1
 90
        1
176
     1
 40
-50.0
176
     1
 90
        0
176
     1
290
     0
176
     1
290
     1
176
     1
290
     1
176
     1
290
     0
176
     1
290
     0
176
     1
290
     0
176
     1
290
     0
176
     1
290
     0
176
     1
290
     0
176
     1
 90
       50
176
     1
 40
0.0
176
     1
 40
1.0
176
     1
 90
        0
176
     1
 62
    18
420
        0
176
     1
 90
       50
176
     1
 90
        3
176
     1
 62
     5
420
      255
176
     1
290
     0
176
     1
 90
       50
176
     1
 90
       50
176
     1
 90
       50
176
     1
290
     0
176
     1
 90
       50
176
     1
 62
   256
176
     0
 40
1.0
176
     0
 90
        2
176
     1
  1
strokes_ogs.tif
176
     1
290
     0
176
     1
 40
1.0
176
     1
 40
1.0
176
     1
  0
VISUALSTYLE
  5
71C6
102
{ACAD_REACTORS
330
71B3
102
}
330
71B3
100
AcDbVisualStyle
  2
EdgeColorOff
 70
    22
177
     3
291
     1
 70
    58
 90
        2
176
     0
 90
        2
176
     0
 90
        0
176
     0
 90
        0
176
     0
 40
0.6
176
     0
 40
30.0
176
     0
 62
     7
420
 16777215
176
     0
 90
        1
176
     0
 90
        4
176
     0
 62
     7
176
     0
 62
   257
176
     0
 90
        1
176
     0
 90
        1
176
     0
 40
1.0
176
     0
 90
        8
176
     2
 62
     7
176
     0
 40
1.0
176
     0
 90
        1
176
     0
 90
        6
176
     0
 90
        2
176
     0
 62
     7
176
     0
 90
        5
176
     0
 90
        0
176
     0
 90
        0
176
     0
290
     0
176
     0
 90
        1
176
     0
 40
0.0
176
     0
 90
        0
176
     0
290
     0
176
     0
290
     1
176
     0
290
     1
176
     0
290
     0
176
     0
290
     0
176
     0
290
     0
176
     0
290
     0
176
     0
290
     0
176
     0
290
     0
176
     0
 90
       50
176
     0
 40
0.0
176
     0
 40
1.0
176
     0
 90
        0
176
     0
 62
    18
420
        0
176
     0
 90
       50
176
     0
 90
        3
176
     0
 62
     5
420
      255
176
     0
290
     0
176
     0
 90
       50
176
     0
 90
       50
176
     0
 90
       50
176
     0
290
     0
176
     0
 90
       50
176
     0
 62
   256
176
     0
 40
1.0
176
     0
 90
        2
176
     0
  1
strokes_ogs.tif
176
     0
290
     0
176
     0
 40
1.0
176
     0
 40
1.0
176
     0
  0
VISUALSTYLE
  5
71C2
102
{ACAD_REACTORS
330
71B3
102
}
330
71B3
100
AcDbVisualStyle
  2
Facepattern
 70
    15
177
     3
291
     1
 70
    58
 90
        2
176
     1
 90
        2
176
     1
 90
        0
176
     1
 90
        0
176
     1
 40
0.6
176
     1
 40
30.0
176
     1
 62
     7
420
 16777215
176
     1
 90
        1
176
     1
 90
        4
176
     1
 62
     7
176
     1
 62
   257
176
     1
 90
        1
176
     1
 90
        1
176
     1
 40
1.0
176
     1
 90
        8
176
     1
 62
     7
176
     1
 40
1.0
176
     1
 90
        1
176
     1
 90
        6
176
     1
 90
        2
176
     1
 62
     7
176
     1
 90
        5
176
     1
 90
        0
176
     1
 90
        0
176
     1
290
     0
176
     1
 90
        1
176
     1
 40
0.0
176
     1
 90
        0
176
     1
290
     0
176
     1
290
     1
176
     1
290
     1
176
     1
290
     0
176
     1
290
     0
176
     1
290
     0
176
     1
290
     0
176
     1
290
     0
176
     1
290
     0
176
     1
 90
       50
176
     1
 40
0.0
176
     1
 40
1.0
176
     1
 90
        0
176
     1
 62
    18
420
        0
176
     1
 90
       50
176
     1
 90
        3
176
     1
 62
     5
420
      255
176
     1
290
     0
176
     1
 90
       50
176
     1
 90
       50
176
     1
 90
       50
176
     1
290
     0
176
     1
 90
       50
176
     1
 62
   256
176
     0
 40
1.0
176
     0
 90
        2
176
     1
  1
strokes_ogs.tif
176
     1
290
     0
176
     1
 40
1.0
176
     1
 40
1.0
176
     1
  0
VISUALSTYLE
  5
71B4
102
{ACAD_REACTORS
330
71B3
102
}
330
71B3
100
AcDbVisualStyle
  2
Flat
 70
     0
177
     3
291
     1
 70
    58
 90
        2
176
     1
 90
        1
176
     1
 90
        1
176
     1
 90
        2
176
     1
 40
0.6
176
     1
 40
30.0
176
     1
 62
     7
420
 16777215
176
     1
 90
        0
176
     1
 90
        0
176
     1
 62
     7
176
     1
 62
   257
176
     1
 90
        1
176
     1
 90
        1
176
     1
 40
1.0
176
     1
 90
        8
176
     1
 62
     7
176
     1
 40
1.0
176
     1
 90
        1
176
     1
 90
        6
176
     1
 90
        2
176
     1
 62
     7
176
     1
 90
        5
176
     1
 90
        0
176
     1
 90
        0
176
     1
290
     0
176
     1
 90
       13
176
     1
 40
0.0
176
     1
 90
        0
176
     1
290
     0
176
     1
290
     1
176
     1
290
     1
176
     1
290
     0
176
     1
290
     0
176
     1
290
     0
176
     1
290
     0
176
     1
290
     0
176
     1
290
     0
176
     1
 90
       50
176
     1
 40
0.0
176
     1
 40
1.0
176
     1
 90
        0
176
     1
 62
    18
420
        0
176
     1
 90
       50
176
     1
 90
        3
176
     1
 62
     5
420
      255
176
     1
290
     0
176
     1
 90
       50
176
     1
 90
       50
176
     1
 90
       50
176
     1
290
     0
176
     1
 90
       50
176
     1
 62
   256
176
     0
 40
1.0
176
     0
 90
        2
176
     1
  1
strokes_ogs.tif
176
     1
290
     0
176
     1
 40
1.0
176
     1
 40
1.0
176
     1
  0
VISUALSTYLE
  5
71B5
102
{ACAD_REACTORS
330
71B3
102
}
330
71B3
100
AcDbVisualStyle
  2
FlatWithEdges
 70
     1
177
     3
291
     1
 70
    58
 90
        2
176
     1
 90
        1
176
     1
 90
        1
176
     1
 90
        2
176
     1
 40
0.6
176
     1
 40
30.0
176
     1
 62
     7
420
 16777215
176
     1
 90
        1
176
     1
 90
        0
176
     1
 62
     7
176
     1
 62
   257
176
     1
 90
        1
176
     1
 90
        1
176
     1
 40
1.0
176
     1
 90
        0
176
     1
 62
   257
176
     1
 40
1.0
176
     1
 90
        1
176
     1
 90
        6
176
     1
 90
        2
176
     1
 62
     7
176
     1
 90
        5
176
     1
 90
        0
176
     1
 90
        0
176
     1
290
     0
176
     1
 90
       13
176
     1
 40
0.0
176
     1
 90
        0
176
     1
290
     0
176
     1
290
     1
176
     1
290
     1
176
     1
290
     0
176
     1
290
     0
176
     1
290
     0
176
     1
290
     0
176
     1
290
     0
176
     1
290
     0
176
     1
 90
       50
176
     1
 40
0.0
176
     1
 40
1.0
176
     1
 90
        0
176
     1
 62
    18
420
        0
176
     1
 90
       50
176
     1
 90
        3
176
     1
 62
     5
420
      255
176
     1
290
     0
176
     1
 90
       50
176
     1
 90
       50
176
     1
 90
       50
176
     1
290
     0
176
     1
 90
       50
176
     1
 62
   256
176
     0
 40
1.0
176
     0
 90
        2
176
     1
  1
strokes_ogs.tif
176
     1
290
     0
176
     1
 40
1.0
176
     1
 40
1.0
176
     1
  0
VISUALSTYLE
  5
71B6
102
{ACAD_REACTORS
330
71B3
102
}
330
71B3
100
AcDbVisualStyle
  2
Gouraud
 70
     2
177
     3
291
     1
 70
    58
 90
        2
176
     1
 90
        2
176
     1
 90
        1
176
     1
 90
        2
176
     1
 40
0.6
176
     1
 40
30.0
176
     1
 62
     7
420
 16777215
176
     1
 90
        0
176
     1
 90
        0
176
     1
 62
     7
176
     1
 62
   257
176
     1
 90
        1
176
     1
 90
        1
176
     1
 40
1.0
176
     1
 90
        0
176
     1
 62
     7
176
     1
 40
1.0
176
     1
 90
        1
176
     1
 90
        6
176
     1
 90
        2
176
     1
 62
     7
176
     1
 90
        5
176
     1
 90
        0
176
     1
 90
        0
176
     1
290
     0
176
     1
 90
       13
176
     1
 40
0.0
176
     1
 90
        0
176
     1
290
     0
176
     1
290
     1
176
     1
290
     1
176
     1
290
     0
176
     1
290
     0
176
     1
290
     0
176
     1
290
     0
176
     1
290
     0
176
     1
290
     0
176
     1
 90
       50
176
     1
 40
0.0
176
     1
 40
1.0
176
     1
 90
        0
176
     1
 62
    18
420
        0
176
     1
 90
       50
176
     1
 90
        3
176
     1
 62
     5
420
      255
176
     1
290
     0
176
     1
 90
       50
176
     1
 90
       50
176
     1
 90
       50
176
     1
290
     0
176
     1
 90
       50
176
     1
 62
   256
176
     0
 40
1.0
176
     0
 90
        2
176
     1
  1
strokes_ogs.tif
176
     1
290
     0
176
     1
 40
1.0
176
     1
 40
1.0
176
     1
  0
VISUALSTYLE
  5
71B7
102
{ACAD_REACTORS
330
71B3
102
}
330
71B3
100
AcDbVisualStyle
  2
GouraudWithEdges
 70
     3
177
     3
291
     1
 70
    58
 90
        2
176
     1
 90
        2
176
     1
 90
        1
176
     1
 90
        2
176
     1
 40
0.6
176
     1
 40
30.0
176
     1
 62
     7
420
 16777215
176
     1
 90
        1
176
     1
 90
        0
176
     1
 62
     7
176
     1
 62
   257
176
     1
 90
        1
176
     1
 90
        1
176
     1
 40
1.0
176
     1
 90
        0
176
     1
 62
   257
176
     1
 40
1.0
176
     1
 90
        1
176
     1
 90
        6
176
     1
 90
        2
176
     1
 62
     7
176
     1
 90
        5
176
     1
 90
        0
176
     1
 90
        0
176
     1
290
     0
176
     1
 90
       13
176
     1
 40
0.0
176
     1
 90
        0
176
     1
290
     0
176
     1
290
     1
176
     1
290
     1
176
     1
290
     0
176
     1
290
     0
176
     1
290
     0
176
     1
290
     0
176
     1
290
     0
176
     1
290
     0
176
     1
 90
       50
176
     1
 40
0.0
176
     1
 40
1.0
176
     1
 90
        0
176
     1
 62
    18
420
        0
176
     1
 90
       50
176
     1
 90
        3
176
     1
 62
     5
420
      255
176
     1
290
     0
176
     1
 90
       50
176
     1
 90
       50
176
     1
 90
       50
176
     1
290
     0
176
     1
 90
       50
176
     1
 62
   256
176
     0
 40
1.0
176
     0
 90
        2
176
     1
  1
strokes_ogs.tif
176
     1
290
     0
176
     1
 40
1.0
176
     1
 40
1.0
176
     1
  0
VISUALSTYLE
  5
71BA
102
{ACAD_REACTORS
330
71B3
102
}
330
71B3
100
AcDbVisualStyle
  2
Hidden
 70
     6
177
     3
291
     0
 70
    58
 90
        1
176
     1
 90
        2
176
     1
 90
        2
176
     1
 90
        0
176
     1
 40
0.6
176
     1
 40
30.0
176
     1
 62
     7
420
 16777215
176
     1
 90
        2
176
     1
 90
        2
176
     1
 62
     7
176
     1
 62
   257
176
     1
 90
        2
176
     1
 90
        1
176
     1
 40
40.0
176
     1
 90
        0
176
     1
 62
   257
176
     1
 40
1.0
176
     1
 90
        1
176
     1
 90
        6
176
     1
 90
        2
176
     1
 62
     7
176
     1
 90
        3
176
     1
 90
        0
176
     1
 90
        0
176
     1
290
     0
176
     1
 90
        1
176
     1
 40
0.0
176
     1
 90
        0
176
     1
290
     0
176
     1
290
     1
176
     1
290
     1
176
     1
290
     0
176
     1
290
     0
176
     1
290
     0
176
     1
290
     0
176
     1
290
     0
176
     1
290
     0
176
     1
 90
       50
176
     1
 40
0.0
176
     1
 40
1.0
176
     1
 90
        0
176
     1
 62
    18
420
        0
176
     1
 90
       50
176
     1
 90
        3
176
     1
 62
     5
420
      255
176
     1
290
     0
176
     1
 90
       50
176
     1
 90
       50
176
     1
 90
       50
176
     1
290
     0
176
     1
 90
       50
176
     1
 62
   256
176
     0
 40
1.0
176
     0
 90
        2
176
     1
  1
strokes_ogs.tif
176
     1
290
     0
176
     1
 40
1.0
176
     1
 40
1.0
176
     1
  0
VISUALSTYLE
  5
71C4
102
{ACAD_REACTORS
330
71B3
102
}
330
71B3
100
AcDbVisualStyle
  2
JitterOff
 70
    20
177
     3
291
     1
 70
    58
 90
        2
176
     0
 90
        2
176
     0
 90
        0
176
     0
 90
        0
176
     0
 40
0.6
176
     0
 40
30.0
176
     0
 62
     7
420
 16777215
176
     0
 90
        1
176
     0
 90
        4
176
     0
 62
     7
176
     0
 62
   257
176
     0
 90
        1
176
     0
 90
        1
176
     0
 40
1.0
176
     0
 90
       10
176
     2
 62
     7
176
     0
 40
1.0
176
     0
 90
        1
176
     0
 90
        6
176
     0
 90
        2
176
     0
 62
     7
176
     0
 90
        5
176
     0
 90
        0
176
     0
 90
        0
176
     0
290
     0
176
     0
 90
        1
176
     0
 40
0.0
176
     0
 90
        0
176
     0
290
     0
176
     0
290
     1
176
     0
290
     1
176
     0
290
     0
176
     0
290
     0
176
     0
290
     0
176
     0
290
     0
176
     0
290
     0
176
     0
290
     0
176
     0
 90
       50
176
     0
 40
0.0
176
     0
 40
1.0
176
     0
 90
        0
176
     0
 62
    18
420
        0
176
     0
 90
       50
176
     0
 90
        3
176
     0
 62
     5
420
      255
176
     0
290
     0
176
     0
 90
       50
176
     0
 90
       50
176
     0
 90
       50
176
     0
290
     0
176
     0
 90
       50
176
     0
 62
   256
176
     0
 40
1.0
176
     0
 90
        2
176
     0
  1
strokes_ogs.tif
176
     0
290
     0
176
     0
 40
1.0
176
     0
 40
1.0
176
     0
  0
VISUALSTYLE
  5
71C1
102
{ACAD_REACTORS
330
71B3
102
}
330
71B3
100
AcDbVisualStyle
  2
Linepattern
 70
    14
177
     3
291
     1
 70
    58
 90
        2
176
     1
 90
        2
176
     1
 90
        0
176
     1
 90
        0
176
     1
 40
0.6
176
     1
 40
30.0
176
     1
 62
     7
420
 16777215
176
     1
 90
        1
176
     1
 90
        4
176
     1
 62
     7
176
     1
 62
   257
176
     1
 90
        7
176
     1
 90
        7
176
     1
 40
1.0
176
     1
 90
        8
176
     1
 62
     7
176
     1
 40
1.0
176
     1
 90
        1
176
     1
 90
        6
176
     1
 90
        2
176
     1
 62
     7
176
     1
 90
        5
176
     1
 90
        0
176
     1
 90
        0
176
     1
290
     0
176
     1
 90
        1
176
     1
 40
0.0
176
     1
 90
        0
176
     1
290
     0
176
     1
290
     1
176
     1
290
     1
176
     1
290
     0
176
     1
290
     0
176
     1
290
     0
176
     1
290
     0
176
     1
290
     0
176
     1
290
     0
176
     1
 90
       50
176
     1
 40
0.0
176
     1
 40
1.0
176
     1
 90
        0
176
     1
 62
    18
420
        0
176
     1
 90
       50
176
     1
 90
        3
176
     1
 62
     5
420
      255
176
     1
290
     0
176
     1
 90
       50
176
     1
 90
       50
176
     1
 90
       50
176
     1
290
     0
176
     1
 90
       50
176
     1
 62
   256
176
     0
 40
1.0
176
     0
 90
        2
176
     1
  1
strokes_ogs.tif
176
     1
290
     0
176
     1
 40
1.0
176
     1
 40
1.0
176
     1
  0
VISUALSTYLE
  5
71C5
102
{ACAD_REACTORS
330
71B3
102
}
330
71B3
100
AcDbVisualStyle
  2
OverhangOff
 70
    21
177
     3
291
     1
 70
    58
 90
        2
176
     0
 90
        2
176
     0
 90
        0
176
     0
 90
        0
176
     0
 40
0.6
176
     0
 40
30.0
176
     0
 62
     7
420
 16777215
176
     0
 90
        1
176
     0
 90
        4
176
     0
 62
     7
176
     0
 62
   257
176
     0
 90
        1
176
     0
 90
        1
176
     0
 40
1.0
176
     0
 90
        9
176
     2
 62
     7
176
     0
 40
1.0
176
     0
 90
        1
176
     0
 90
        6
176
     0
 90
        2
176
     0
 62
     7
176
     0
 90
        5
176
     0
 90
        0
176
     0
 90
        0
176
     0
290
     0
176
     0
 90
        1
176
     0
 40
0.0
176
     0
 90
        0
176
     0
290
     0
176
     0
290
     1
176
     0
290
     1
176
     0
290
     0
176
     0
290
     0
176
     0
290
     0
176
     0
290
     0
176
     0
290
     0
176
     0
290
     0
176
     0
 90
       50
176
     0
 40
0.0
176
     0
 40
1.0
176
     0
 90
        0
176
     0
 62
    18
420
        0
176
     0
 90
       50
176
     0
 90
        3
176
     0
 62
     5
420
      255
176
     0
290
     0
176
     0
 90
       50
176
     0
 90
       50
176
     0
 90
       50
176
     0
290
     0
176
     0
 90
       50
176
     0
 62
   256
176
     0
 40
1.0
176
     0
 90
        2
176
     0
  1
strokes_ogs.tif
176
     0
290
     0
176
     0
 40
1.0
176
     0
 40
1.0
176
     0
  0
VISUALSTYLE
  5
71BC
102
{ACAD_REACTORS
330
71B3
102
}
330
71B3
100
AcDbVisualStyle
  2
Realistic
 70
     8
177
     3
291
     0
 70
    58
 90
        2
176
     1
 90
        3
176
     1
 90
        0
176
     1
 90
        2
176
     1
 40
0.6
176
     1
 40
30.0
176
     1
 62
     7
420
 16777215
176
     1
 90
        0
176
     1
 90
        0
176
     1
 62
     7
176
     1
 62
   257
176
     1
 90
        1
176
     1
 90
        1
176
     1
 40
1.0
176
     1
 90
        8
176
     1
 62
   257
176
     1
 40
1.0
176
     1
 90
        1
176
     1
 90
        6
176
     1
 90
        2
176
     1
 62
     7
176
     1
 90
        3
176
     1
 90
        0
176
     1
 90
        0
176
     1
290
     0
176
     1
 90
       13
176
     1
 40
0.0
176
     1
 90
        0
176
     1
290
     0
176
     1
290
     1
176
     1
290
     1
176
     1
290
     0
176
     1
290
     0
176
     1
290
     0
176
     1
290
     0
176
     1
290
     0
176
     1
290
     0
176
     1
 90
       50
176
     1
 40
0.0
176
     1
 40
1.0
176
     1
 90
        0
176
     1
 62
    18
420
        0
176
     1
 90
       50
176
     1
 90
        3
176
     1
 62
     5
420
      255
176
     1
290
     0
176
     1
 90
       50
176
     1
 90
       50
176
     1
 90
       50
176
     1
290
     0
176
     1
 90
       50
176
     1
 62
   256
176
     0
 40
1.0
176
     0
 90
        2
176
     1
  1
strokes_ogs.tif
176
     1
290
     0
176
     1
 40
1.0
176
     1
 40
1.0
176
     1
  0
VISUALSTYLE
  5
71CB
102
{ACAD_REACTORS
330
71B3
102
}
330
71B3
100
AcDbVisualStyle
  2
Shaded
 70
    27
177
     3
291
     0
 70
    58
 90
        2
176
     1
 90
        2
176
     1
 90
        1
176
     1
 90
        2
176
     1
 40
0.6
176
     1
 40
30.0
176
     1
 62
     7
420
 16777215
176
     1
 90
        0
176
     1
 90
        4
176
     1
 62
     7
176
     1
 62
   257
176
     1
 90
        1
176
     1
 90
        1
176
     1
 40
1.0
176
     1
 90
        8
176
     1
 62
   257
176
     1
 40
1.0
176
     1
 90
        1
176
     1
 90
        6
176
     1
 90
        2
176
     1
 62
     8
420
  7895160
176
     1
 90
        3
176
     1
 90
        0
176
     1
 90
        0
176
     1
290
     0
176
     1
 90
        5
176
     1
 40
0.0
176
     1
 90
        0
176
     1
290
     0
176
     1
290
     1
176
     1
290
     1
176
     1
290
     0
176
     1
290
     0
176
     1
290
     0
176
     1
290
     0
176
     1
290
     0
176
     1
290
     0
176
     1
 90
       50
176
     1
 40
0.0
176
     1
 40
1.0
176
     1
 90
        0
176
     1
 62
    18
420
        0
176
     1
 90
       50
176
     1
 90
        3
176
     1
 62
     5
420
      255
176
     1
290
     0
176
     1
 90
       50
176
     1
 90
       50
176
     1
 90
       50
176
     1
290
     0
176
     1
 90
       50
176
     1
 62
   256
176
     0
 40
1.0
176
     0
 90
        2
176
     1
  1
strokes_ogs.tif
176
     1
290
     0
176
     1
 40
1.0
176
     1
 40
1.0
176
     1
  0
VISUALSTYLE
  5
71CA
102
{ACAD_REACTORS
330
71B3
102
}
330
71B3
100
AcDbVisualStyle
  2
Shaded with edges
 70
    26
177
     3
291
     0
 70
    58
 90
        2
176
     1
 90
        2
176
     1
 90
        1
176
     1
 90
        2
176
     1
 40
0.6
176
     1
 40
30.0
176
     1
 62
     7
420
 16777215
176
     1
 90
        1
176
     1
 90
       10
176
     1
 62
     7
176
     1
 62
   257
176
     1
 90
        2
176
     1
 90
        1
176
     1
 40
1.0
176
     1
 90
        8
176
     1
 62
   257
176
     1
 40
1.0
176
     1
 90
        1
176
     1
 90
        6
176
     1
 90
        2
176
     1
 62
     7
176
     1
 90
        3
176
     1
 90
        0
176
     1
 90
        0
176
     1
290
     0
176
     1
 90
        5
176
     1
 40
0.0
176
     1
 90
        0
176
     1
290
     0
176
     1
290
     1
176
     1
290
     1
176
     1
290
     0
176
     1
290
     0
176
     1
290
     0
176
     1
290
     0
176
     1
290
     0
176
     1
290
     0
176
     1
 90
       50
176
     1
 40
0.0
176
     1
 40
1.0
176
     1
 90
        0
176
     1
 62
    18
420
        0
176
     1
 90
       50
176
     1
 90
        3
176
     1
 62
     5
420
      255
176
     1
290
     0
176
     1
 90
       50
176
     1
 90
       50
176
     1
 90
       50
176
     1
290
     0
176
     1
 90
       50
176
     1
 62
   256
176
     0
 40
1.0
176
     0
 90
        2
176
     1
  1
strokes_ogs.tif
176
     1
290
     0
176
     1
 40
1.0
176
     1
 40
1.0
176
     1
  0
VISUALSTYLE
  5
71C7
102
{ACAD_REACTORS
330
71B3
102
}
330
71B3
100
AcDbVisualStyle
  2
Shades of Gray
 70
    23
177
     3
291
     0
 70
    58
 90
        2
176
     1
 90
        2
176
     1
 90
        3
176
     1
 90
        0
176
     1
 40
0.6
176
     1
 40
30.0
176
     1
 62
     7
420
 16777215
176
     1
 90
        2
176
     1
 90
        2
176
     1
 62
     7
176
     1
 62
     7
176
     1
 90
        1
176
     1
 90
        1
176
     1
 40
40.0
176
     1
 90
        8
176
     1
 62
     7
176
     1
 40
1.0
176
     1
 90
        1
176
     1
 90
        6
176
     1
 90
        2
176
     1
 62
     7
176
     1
 90
        3
176
     1
 90
        0
176
     1
 90
        0
176
     1
290
     0
176
     1
 90
        1
176
     1
 40
0.0
176
     1
 90
        0
176
     1
290
     0
176
     1
290
     1
176
     1
290
     1
176
     1
290
     0
176
     1
290
     0
176
     1
290
     0
176
     1
290
     0
176
     1
290
     0
176
     1
290
     0
176
     1
 90
       50
176
     1
 40
0.0
176
     1
 40
1.0
176
     1
 90
        0
176
     1
 62
    18
420
        0
176
     1
 90
       50
176
     1
 90
        3
176
     1
 62
     5
420
      255
176
     1
290
     0
176
     1
 90
       50
176
     1
 90
       50
176
     1
 90
       50
176
     1
290
     0
176
     1
 90
       50
176
     1
 62
   256
176
     0
 40
1.0
176
     0
 90
        2
176
     1
  1
strokes_ogs.tif
176
     1
290
     0
176
     1
 40
1.0
176
     1
 40
1.0
176
     1
  0
VISUALSTYLE
  5
71C8
102
{ACAD_REACTORS
330
71B3
102
}
330
71B3
100
AcDbVisualStyle
  2
Sketchy
 70
    24
177
     3
291
     0
 70
    58
 90
        1
176
     1
 90
        2
176
     1
 90
        2
176
     1
 90
        0
176
     1
 40
0.6
176
     1
 40
30.0
176
     1
 62
     7
420
 16777215
176
     1
 90
        2
176
     1
 90
        2
176
     1
 62
     7
176
     1
 62
     7
176
     1
 90
        1
176
     1
 90
        1
176
     1
 40
40.0
176
     1
 90
       11
176
     1
 62
     7
176
     1
 40
1.0
176
     1
 90
        1
176
     1
 90
        6
176
     1
 90
        2
176
     1
 62
     7
176
     1
 90
        6
176
     1
 90
        0
176
     1
 90
        0
176
     1
290
     0
176
     1
 90
        1
176
     1
 40
0.0
176
     1
 90
        0
176
     1
290
     0
176
     1
290
     1
176
     1
290
     1
176
     1
290
     0
176
     1
290
     0
176
     1
290
     0
176
     1
290
     0
176
     1
290
     0
176
     1
290
     0
176
     1
 90
       50
176
     1
 40
0.0
176
     1
 40
1.0
176
     1
 90
        0
176
     1
 62
    18
420
        0
176
     1
 90
       50
176
     1
 90
        3
176
     1
 62
     5
420
      255
176
     1
290
     0
176
     1
 90
       50
176
     1
 90
       50
176
     1
 90
       50
176
     1
290
     0
176
     1
 90
       50
176
     1
 62
   256
176
     0
 40
1.0
176
     0
 90
        2
176
     1
  1
strokes_ogs.tif
176
     1
290
     0
176
     1
 40
1.0
176
     1
 40
1.0
176
     1
  0
VISUALSTYLE
  5
71C0
102
{ACAD_REACTORS
330
71B3
102
}
330
71B3
100
AcDbVisualStyle
  2
Thicken
 70
    13
177
     3
291
     1
 70
    58
 90
        2
176
     1
 90
        2
176
     1
 90
        0
176
     1
 90
        0
176
     1
 40
0.6
176
     1
 40
30.0
176
     1
 62
     7
420
 16777215
176
     1
 90
        1
176
     1
 90
        4
176
     1
 62
     7
176
     1
 62
   257
176
     1
 90
        1
176
     1
 90
        1
176
     1
 40
1.0
176
     1
 90
       12
176
     1
 62
     7
176
     1
 40
1.0
176
     1
 90
        1
176
     1
 90
        6
176
     1
 90
        2
176
     1
 62
     7
176
     1
 90
        5
176
     1
 90
        0
176
     1
 90
        0
176
     1
290
     0
176
     1
 90
        1
176
     1
 40
0.0
176
     1
 90
        0
176
     1
290
     0
176
     1
290
     1
176
     1
290
     1
176
     1
290
     0
176
     1
290
     0
176
     1
290
     0
176
     1
290
     0
176
     1
290
     0
176
     1
290
     0
176
     1
 90
       50
176
     1
 40
0.0
176
     1
 40
1.0
176
     1
 90
        0
176
     1
 62
    18
420
        0
176
     1
 90
       50
176
     1
 90
        3
176
     1
 62
     5
420
      255
176
     1
290
     0
176
     1
 90
       50
176
     1
 90
       50
176
     1
 90
       50
176
     1
290
     0
176
     1
 90
       50
176
     1
 62
   256
176
     0
 40
1.0
176
     0
 90
        2
176
     1
  1
strokes_ogs.tif
176
     1
290
     0
176
     1
 40
1.0
176
     1
 40
1.0
176
     1
  0
VISUALSTYLE
  5
71B9
102
{ACAD_REACTORS
330
71B3
102
}
330
71B3
100
AcDbVisualStyle
  2
Wireframe
 70
     5
177
     3
291
     0
 70
    58
 90
        0
176
     1
 90
        2
176
     1
 90
        0
176
     1
 90
        0
176
     1
 40
0.6
176
     1
 40
30.0
176
     1
 62
     7
420
 16777215
176
     1
 90
        1
176
     1
 90
        4
176
     1
 62
     7
176
     1
 62
   257
176
     1
 90
        1
176
     1
 90
        1
176
     1
 40
1.0
176
     1
 90
        0
176
     1
 62
   257
176
     1
 40
1.0
176
     1
 90
        1
176
     1
 90
        6
176
     1
 90
        2
176
     1
 62
     7
176
     1
 90
        3
176
     1
 90
        0
176
     1
 90
        0
176
     1
290
     0
176
     1
 90
        1
176
     1
 40
0.0
176
     1
 90
        0
176
     1
290
     0
176
     1
290
     1
176
     1
290
     1
176
     1
290
     0
176
     1
290
     0
176
     1
290
     0
176
     1
290
     0
176
     1
290
     0
176
     1
290
     0
176
     1
 90
       50
176
     1
 40
0.0
176
     1
 40
1.0
176
     1
 90
        0
176
     1
 62
    18
420
        0
176
     1
 90
       50
176
     1
 90
        3
176
     1
 62
     5
420
      255
176
     1
290
     0
176
     1
 90
       50
176
     1
 90
       50
176
     1
 90
       50
176
     1
290
     0
176
     1
 90
       50
176
     1
 62
   256
176
     0
 40
1.0
176
     0
 90
        2
176
     1
  1
strokes_ogs.tif
176
     1
290
     0
176
     1
 40
1.0
176
     1
 40
1.0
176
     1
  0
VISUALSTYLE
  5
71C9
102
{ACAD_REACTORS
330
71B3
102
}
330
71B3
100
AcDbVisualStyle
  2
X-Ray
 70
    25
177
     3
291
     0
 70
    58
 90
        2
176
     1
 90
        2
176
     1
 90
        1
176
     1
 90
        1
176
     1
 40
0.5
176
     1
 40
30.0
176
     1
 62
     7
420
 16777215
176
     1
 90
        1
176
     1
 90
        0
176
     1
 62
     7
176
     1
 62
   257
176
     1
 90
        1
176
     1
 90
        1
176
     1
 40
1.0
176
     1
 90
        8
176
     1
 62
     7
176
     1
 40
1.0
176
     1
 90
        1
176
     1
 90
        6
176
     1
 90
        2
176
     1
 62
     7
176
     1
 90
        3
176
     1
 90
        0
176
     1
 90
        0
176
     1
290
     0
176
     1
 90
       13
176
     1
 40
0.0
176
     1
 90
        0
176
     1
290
     0
176
     1
290
     1
176
     1
290
     1
176
     1
290
     0
176
     1
290
     0
176
     1
290
     0
176
     1
290
     0
176
     1
290
     0
176
     1
290
     0
176
     1
 90
       50
176
     1
 40
0.0
176
     1
 40
1.0
176
     1
 90
        0
176
     1
 62
    18
420
        0
176
     1
 90
       50
176
     1
 90
        3
176
     1
 62
     5
420
      255
176
     1
290
     0
176
     1
 90
       50
176
     1
 90
       50
176
     1
 90
       50
176
     1
290
     0
176
     1
 90
       50
176
     1
 62
   256
176
     0
 40
1.0
176
     0
 90
        2
176
     1
  1
strokes_ogs.tif
176
     1
290
     0
176
     1
 40
1.0
176
     1
 40
1.0
176
     1
  0
DICTIONARYVAR
  5
7264
102
{ACAD_REACTORS
330
7263
102
}
330
7263
100
DictionaryVariables
280
     0
  1
1:1
  0
DICTIONARYVAR
  5
7269
102
{ACAD_REACTORS
330
7263
102
}
330
7263
100
DictionaryVariables
280
     0
  1
Standard
  0
DICTIONARYVAR
  5
7268
102
{ACAD_REACTORS
330
7263
102
}
330
7263
100
DictionaryVariables
280
     0
  1
Standard
  0
XRECORD
  5
71EA
102
{ACAD_REACTORS
330
71E8
102
}
330
71E8
100
AcDbXrecord
280
     1
1000
#ffffff
  0
XRECORD
  5
71EB
102
{ACAD_REACTORS
330
71E8
102
}
330
71E8
100
AcDbXrecord
280
     1
1000
FullColor
  0
XRECORD
  5
71EC
102
{ACAD_REACTORS
330
71E8
102
}
330
71E8
100
AcDbXrecord
280
     1
290
     1
  0
XRECORD
  5
71ED
102
{ACAD_REACTORS
330
71E8
102
}
330
71E8
100
AcDbXrecord
280
     1
290
     1
  0
XRECORD
  5
71EE
102
{ACAD_REACTORS
330
71E8
102
}
330
71E8
100
AcDbXrecord
280
     1
290
     1
  0
XRECORD
  5
71EF
102
{ACAD_REACTORS
330
71E8
102
}
330
71E8
100
AcDbXrecord
280
     1
290
     1
  0
XRECORD
  5
71F0
102
{ACAD_REACTORS
330
71E8
102
}
330
71E8
100
AcDbXrecord
280
     1
1000
auto
  0
XRECORD
  5
71F1
102
{ACAD_REACTORS
330
71E8
102
}
330
71E8
100
AcDbXrecord
280
     1
1000
auto
  0
XRECORD
  5
71F2
102
{ACAD_REACTORS
330
71E8
102
}
330
71E8
100
AcDbXrecord
280
     1
1000
auto
  0
XRECORD
  5
71F3
102
{ACAD_REACTORS
330
71E8
102
}
330
71E8
100
AcDbXrecord
280
     1
1000
auto
  0
XRECORD
  5
71F4
102
{ACAD_REACTORS
330
71E8
102
}
330
71E8
100
AcDbXrecord
280
     1
1000
auto
  0
XRECORD
  5
71F5
102
{ACAD_REACTORS
330
71E8
102
}
330
71E8
100
AcDbXrecord
280
     1
1000
auto
  0
XRECORD
  5
71F6
102
{ACAD_REACTORS
330
71E8
102
}
330
71E8
100
AcDbXrecord
280
     1
1000
auto
  0
XRECORD
  5
71F7
102
{ACAD_REACTORS
330
71E8
102
}
330
71E8
100
AcDbXrecord
280
     1
1000
auto
  0
XRECORD
  5
71F8
102
{ACAD_REACTORS
330
71E8
102
}
330
71E8
100
AcDbXrecord
280
     1
290
     0
  0
XRECORD
  5
71F9
102
{ACAD_REACTORS
330
71E8
102
}
330
71E8
100
AcDbXrecord
280
     1
290
     0
  0
XRECORD
  5
71FA
102
{ACAD_REACTORS
330
71E8
102
}
330
71E8
100
AcDbXrecord
280
     1
290
     0
  0
XRECORD
  5
71FB
102
{ACAD_REACTORS
330
71E8
102
}
330
71E8
100
AcDbXrecord
280
     1
290
     0
  0
XRECORD
  5
71FC
102
{ACAD_REACTORS
330
71E8
102
}
330
71E8
100
AcDbXrecord
280
     1
 90
    65537
  0
XRECORD
  5
71FD
102
{ACAD_REACTORS
330
71E8
102
}
330
71E8
100
AcDbXrecord
280
     1
 90
    65537
  0
XRECORD
  5
71FE
102
{ACAD_REACTORS
330
71E8
102
}
330
71E8
100
AcDbXrecord
280
     1
 90
    65537
  0
XRECORD
  5
71FF
102
{ACAD_REACTORS
330
71E8
102
}
330
71E8
100
AcDbXrecord
280
     1
 90
    65537
  0
XRECORD
  5
7200
102
{ACAD_REACTORS
330
71E8
102
}
330
71E8
100
AcDbXrecord
280
     1
1000
auto
  0
XRECORD
  5
7201
102
{ACAD_REACTORS
330
71E8
102
}
330
71E8
100
AcDbXrecord
280
     1
1000
auto
  0
XRECORD
  5
7202
102
{ACAD_REACTORS
330
71E8
102
}
330
71E8
100
AcDbXrecord
280
     1
1000
auto
  0
XRECORD
  5
7203
102
{ACAD_REACTORS
330
71E8
102
}
330
71E8
100
AcDbXrecord
280
     1
1000
auto
  0
XRECORD
  5
7204
102
{ACAD_REACTORS
330
71E8
102
}
330
71E8
100
AcDbXrecord
280
     1
1000
auto
  0
XRECORD
  5
7205
102
{ACAD_REACTORS
330
71E8
102
}
330
71E8
100
AcDbXrecord
280
     1
1000
auto
  0
XRECORD
  5
7206
102
{ACAD_REACTORS
330
71E8
102
}
330
71E8
100
AcDbXrecord
280
     1
1000
auto
  0
XRECORD
  5
7207
102
{ACAD_REACTORS
330
71E8
102
}
330
71E8
100
AcDbXrecord
280
     1
1000
auto
  0
XRECORD
  5
7208
102
{ACAD_REACTORS
330
71E8
102
}
330
71E8
100
AcDbXrecord
280
     1
 90
        1
  0
XRECORD
  5
7209
102
{ACAD_REACTORS
330
71E8
102
}
330
71E8
100
AcDbXrecord
280
     1
 40
10.0
  0
XRECORD
  5
720A
102
{ACAD_REACTORS
330
71E8
102
}
330
71E8
100
AcDbXrecord
280
     1
 40
10.0
  0
XRECORD
  5
720B
102
{ACAD_REACTORS
330
71E8
102
}
330
71E8
100
AcDbXrecord
280
     1
 40
10.0
  0
XRECORD
  5
720C
102
{ACAD_REACTORS
330
71E8
102
}
330
71E8
100
AcDbXrecord
280
     1
 40
10.0
  0
XRECORD
  5
720D
102
{ACAD_REACTORS
330
71E8
102
}
330
71E8
100
AcDbXrecord
280
     1
290
     0
  0
XRECORD
  5
720E
102
{ACAD_REACTORS
330
71E8
102
}
330
71E8
100
AcDbXrecord
280
     1
 90
        1
  0
XRECORD
  5
720F
102
{ACAD_REACTORS
330
71E8
102
}
330
71E8
100
AcDbXrecord
280
     1
 40
-153.296641830301
  0
XRECORD
  5
7210
102
{ACAD_REACTORS
330
71E8
102
}
330
71E8
100
AcDbXrecord
280
     1
 90
     -140
  0
XRECORD
  5
7211
102
{ACAD_REACTORS
330
71E8
102
}
330
71E8
100
AcDbXrecord
280
     1
1000
Landscape
  0
XRECORD
  5
7212
102
{ACAD_REACTORS
330
71E8
102
}
330
71E8
100
AcDbXrecord
280
     1
 40
297.0
  0
XRECORD
  5
7213
102
{ACAD_REACTORS
330
71E8
102
}
330
71E8
100
AcDbXrecord
280
     1
 40
210.0
  0
XRECORD
  5
7214
102
{ACAD_REACTORS
330
71E8
102
}
330
71E8
100
AcDbXrecord
280
     1
1000
1
  0
XRECORD
  5
7215
102
{ACAD_REACTORS
330
71E8
102
}
330
71E8
100
AcDbXrecord
280
     1
290
     1
  0
XRECORD
  5
7216
102
{ACAD_REACTORS
330
71E8
102
}
330
71E8
100
AcDbXrecord
280
     1
290
     0
  0
XRECORD
  5
7217
102
{ACAD_REACTORS
330
71E8
102
}
330
71E8
100
AcDbXrecord
280
     1
1000
Inside
  0
XRECORD
  5
7218
102
{ACAD_REACTORS
330
71E8
102
}
330
71E8
100
AcDbXrecord
280
     1
1000
Arial,10,-1,5,50,0,0,0,0,0
  0
XRECORD
  5
7219
102
{ACAD_REACTORS
330
71E8
102
}
330
71E8
100
AcDbXrecord
280
     1
1000
TopLeft
  0
XRECORD
  5
721A
102
{ACAD_REACTORS
330
71E8
102
}
330
71E8
100
AcDbXrecord
280
     1
1000
3.26.4
  0
XRECORD
  5
721B
102
{ACAD_REACTORS
330
71E8
102
}
330
71E8
100
AcDbXrecord
280
     1
 90
        4
  0
XRECORD
  5
721C
102
{ACAD_REACTORS
330
71E8
102
}
330
71E8
100
AcDbXrecord
280
     1
  0
XRECORD
  5
721D
102
{ACAD_REACTORS
330
71E8
102
}
330
71E8
100
AcDbXrecord
280
     1
 40
147.2590750824934
  0
XRECORD
  5
721E
102
{ACAD_REACTORS
330
71E8
102
}
330
71E8
100
AcDbXrecord
280
     1
 40
282.7002442296018
  0
DICTIONARY
  5
7265
330
71E3
100
AcDbDictionary
280
     1
281
     1
  3
ACAD_ROUNDTRIP_2008_TABLESTYLE_CELLSTYLEMAP
360
7266
  0
CELLSTYLEMAP
  5
7266
102
{ACAD_REACTORS
330
7265
102
}
330
7265
100
AcDbCellStyleMap
 90
        3
300
CELLSTYLE
  1
TABLEFORMAT_BEGIN
 90
        5
170
     1
 91
        0
 92
    32768
 62
   257
 93
        1
300
CONTENTFORMAT
  1
CONTENTFORMAT_BEGIN
 90
        0
 91
        0
 92
        4
 93
        0
300

 40
0.0
140
1.0
 94
        5
 62
     0
340
719B
144
0.25
309
CONTENTFORMAT_END
171
     1
301
MARGIN
  1
CELLMARGIN_BEGIN
 40
0.06
 40
0.06
 40
0.06
 40
0.06
 40
0.06
 40
0.06
309
CELLMARGIN_END
 94
        6
 95
        1
302
GRIDFORMAT
  1
GRIDFORMAT_BEGIN
 90
        0
 91
        1
 62
     0
 92
       -2
340
719D
 93
        0
 40
0.045
309
GRIDFORMAT_END
 95
        2
302
GRIDFORMAT
  1
GRIDFORMAT_BEGIN
 90
        0
 91
        1
 62
     0
 92
       -2
340
719D
 93
        0
 40
0.045
309
GRIDFORMAT_END
 95
        4
302
GRIDFORMAT
  1
GRIDFORMAT_BEGIN
 90
        0
 91
        1
 62
     0
 92
       -2
340
719D
 93
        0
 40
0.045
309
GRIDFORMAT_END
 95
        8
302
GRIDFORMAT
  1
GRIDFORMAT_BEGIN
 90
        0
 91
        1
 62
     0
 92
       -2
340
719D
 93
        0
 40
0.045
309
GRIDFORMAT_END
 95
       16
302
GRIDFORMAT
  1
GRIDFORMAT_BEGIN
 90
        0
 91
        1
 62
     0
 92
       -2
340
719D
 93
        0
 40
0.045
309
GRIDFORMAT_END
 95
       32
302
GRIDFORMAT
  1
GRIDFORMAT_BEGIN
 90
        0
 91
        1
 62
     0
 92
       -2
340
719D
 93
        0
 40
0.045
309
GRIDFORMAT_END
309
TABLEFORMAT_END
  1
CELLSTYLE_BEGIN
 90
        1
 91
        1
300
_TITLE
309
CELLSTYLE_END
300
CELLSTYLE
  1
TABLEFORMAT_BEGIN
 90
        5
170
     1
 91
        0
 92
        0
 62
   257
 93
        1
300
CONTENTFORMAT
  1
CONTENTFORMAT_BEGIN
 90
        0
 91
        0
 92
        4
 93
        0
300

 40
0.0
140
1.0
 94
        5
 62
     0
340
719B
144
0.18
309
CONTENTFORMAT_END
171
     1
301
MARGIN
  1
CELLMARGIN_BEGIN
 40
0.06
 40
0.06
 40
0.06
 40
0.06
 40
0.06
 40
0.06
309
CELLMARGIN_END
 94
        6
 95
        1
302
GRIDFORMAT
  1
GRIDFORMAT_BEGIN
 90
        0
 91
        1
 62
     0
 92
       -2
340
719D
 93
        0
 40
0.045
309
GRIDFORMAT_END
 95
        2
302
GRIDFORMAT
  1
GRIDFORMAT_BEGIN
 90
        0
 91
        1
 62
     0
 92
       -2
340
719D
 93
        0
 40
0.045
309
GRIDFORMAT_END
 95
        4
302
GRIDFORMAT
  1
GRIDFORMAT_BEGIN
 90
        0
 91
        1
 62
     0
 92
       -2
340
719D
 93
        0
 40
0.045
309
GRIDFORMAT_END
 95
        8
302
GRIDFORMAT
  1
GRIDFORMAT_BEGIN
 90
        0
 91
        1
 62
     0
 92
       -2
340
719D
 93
        0
 40
0.045
309
GRIDFORMAT_END
 95
       16
302
GRIDFORMAT
  1
GRIDFORMAT_BEGIN
 90
        0
 91
        1
 62
     0
 92
       -2
340
719D
 93
        0
 40
0.045
309
GRIDFORMAT_END
 95
       32
302
GRIDFORMAT
  1
GRIDFORMAT_BEGIN
 90
        0
 91
        1
 62
     0
 92
       -2
340
719D
 93
        0
 40
0.045
309
GRIDFORMAT_END
309
TABLEFORMAT_END
  1
CELLSTYLE_BEGIN
 90
        2
 91
        1
300
_HEADER
309
CELLSTYLE_END
300
CELLSTYLE
  1
TABLEFORMAT_BEGIN
 90
        5
170
     1
 91
        0
 92
        0
 62
   257
 93
        1
300
CONTENTFORMAT
  1
CONTENTFORMAT_BEGIN
 90
        0
 91
        0
 92
        4
 93
        0
300

 40
0.0
140
1.0
 94
        2
 62
     0
340
719B
144
0.18
309
CONTENTFORMAT_END
171
     1
301
MARGIN
  1
CELLMARGIN_BEGIN
 40
0.06
 40
0.06
 40
0.06
 40
0.06
 40
0.06
 40
0.06
309
CELLMARGIN_END
 94
        6
 95
        1
302
GRIDFORMAT
  1
GRIDFORMAT_BEGIN
 90
        0
 91
        1
 62
     0
 92
       -2
340
719D
 93
        0
 40
0.045
309
GRIDFORMAT_END
 95
        2
302
GRIDFORMAT
  1
GRIDFORMAT_BEGIN
 90
        0
 91
        1
 62
     0
 92
       -2
340
719D
 93
        0
 40
0.045
309
GRIDFORMAT_END
 95
        4
302
GRIDFORMAT
  1
GRIDFORMAT_BEGIN
 90
        0
 91
        1
 62
     0
 92
       -2
340
719D
 93
        0
 40
0.045
309
GRIDFORMAT_END
 95
        8
302
GRIDFORMAT
  1
GRIDFORMAT_BEGIN
 90
        0
 91
        1
 62
     0
 92
       -2
340
719D
 93
        0
 40
0.045
309
GRIDFORMAT_END
 95
       16
302
GRIDFORMAT
  1
GRIDFORMAT_BEGIN
 90
        0
 91
        1
 62
     0
 92
       -2
340
719D
 93
        0
 40
0.045
309
GRIDFORMAT_END
 95
       32
302
GRIDFORMAT
  1
GRIDFORMAT_BEGIN
 90
        0
 91
        1
 62
     0
 92
       -2
340
719D
 93
        0
 40
0.045
309
GRIDFORMAT_END
309
TABLEFORMAT_END
  1
CELLSTYLE_BEGIN
 90
        3
 91
        2
300
_DATA
309
CELLSTYLE_END
  0
ENDSEC
  0
EOF
